<svg width="29" height="41" viewBox="0 0 29 41" fill="none" xmlns="http://www.w3.org/2000/svg">
<path fill-rule="evenodd" clip-rule="evenodd" d="M2.336 40.144C1.23143 40.144 0.336003 39.2486 0.336003 38.144V34.112C0.336003 33.5435 0.57794 33.0019 1.00134 32.6225C5.8229 28.3022 9.55091 24.5618 12.0631 21.2754C14.6052 17.9497 15.696 15.3513 15.696 13.28C15.696 11.8367 15.3168 10.9289 14.8456 10.4039C14.4026 9.91033 13.6689 9.52 12.416 9.52C10.6867 9.52 9.13584 10.6073 7.37107 12.5578C7.00502 12.9624 6.48956 13.1999 5.94416 13.2152C5.39877 13.2305 4.87079 13.0224 4.4826 12.639L0.5946 8.79897C-0.175087 8.03878 -0.200802 6.80437 0.536559 6.01279C2.26627 4.1559 4.07348 2.63272 6.17794 1.58397C8.30196 0.525457 10.6284 0 13.328 0C17.0945 0 20.418 1.21254 22.8118 3.5258C25.213 5.84624 26.512 9.11423 26.512 12.896C26.512 16.6776 24.9516 20.409 22.6933 23.9003C21.3091 26.0402 19.6224 28.1515 17.7706 30.2029C18.0099 30.1958 18.2419 30.192 18.464 30.192H26.144C27.2486 30.192 28.144 31.0874 28.144 32.192V38.144C28.144 39.2486 27.2486 40.144 26.144 40.144H2.336ZM15.7838 32.3208C14.7033 32.4067 13.5986 32.5221 12.656 32.624C13.4097 31.8871 14.1484 31.1424 14.8654 30.3915C20.3138 24.686 24.512 18.6223 24.512 12.896C24.512 6.272 20 2 13.328 2C9.17937 2 6.22584 3.37085 3.41464 5.96215C3.33471 6.03583 3.2549 6.11049 3.17517 6.18614C2.78221 6.55901 2.39145 6.95577 2 7.376L5.888 11.216C6.32124 10.7372 6.76802 10.2773 7.23284 9.85435C8.72499 8.49671 10.4031 7.52 12.416 7.52C15.824 7.52 17.696 9.728 17.696 13.28C17.696 18.752 12.032 25.424 2.336 34.112V38.144H26.144V32.192H18.464C17.6756 32.192 16.7392 32.2449 15.7838 32.3208Z" fill="#E94816"/>
</svg>
