<svg width="29" height="41" viewBox="0 0 29 41" fill="none" xmlns="http://www.w3.org/2000/svg">
<path fill-rule="evenodd" clip-rule="evenodd" d="M0.488626 35.1819C-0.12883 34.4694 -0.164895 33.4225 0.402068 32.6693L3.76207 28.2053C4.10796 27.7457 4.63496 27.4573 5.20848 27.4137C5.782 27.3702 6.34651 27.5756 6.75787 27.9776C8.69145 29.8673 10.7594 31.104 13.232 31.104C14.7477 31.104 15.7858 30.7232 16.4008 30.2326C16.9618 29.7849 17.328 29.1286 17.328 28.112C17.328 26.8091 16.9859 26.1352 16.2284 25.6353C15.2562 24.9937 13.3083 24.448 9.536 24.448C8.43144 24.448 7.536 23.5526 7.536 22.448V17.36C7.536 16.2554 8.43144 15.36 9.536 15.36C12.6433 15.36 14.3063 14.8216 15.1512 14.2257C15.8532 13.7305 16.176 13.0664 16.176 11.984C16.176 11.0135 15.8858 10.4702 15.5579 10.1593C15.2164 9.8355 14.5752 9.52 13.424 9.52C11.6062 9.52 10.01 10.3411 8.06746 12.1512C7.66395 12.5272 7.12308 12.7199 6.57273 12.6837C6.02238 12.6475 5.51141 12.3856 5.16063 11.96L1.56063 7.59201C0.868335 6.75202 0.974922 5.51262 1.80047 4.80316C5.12132 1.9493 8.97432 0 13.712 0C17.4427 0 20.8094 0.910589 23.288 2.87438C25.8255 4.88481 27.232 7.84553 27.232 11.456C27.232 13.7395 26.5898 15.8196 25.313 17.5552C24.7938 18.2609 24.1831 18.8917 23.4928 19.4477C26.3891 21.3033 28.432 24.3316 28.432 28.544C28.432 32.4604 26.6901 35.6026 23.9426 37.7139C21.2427 39.7886 17.6547 40.816 13.904 40.816C7.7329 40.816 3.38054 38.5187 0.488626 35.1819ZM21.6284 20.6713C20.9422 20.3114 20.2045 20.0176 19.4304 19.7897C19.3964 19.7797 19.3622 19.7698 19.328 19.76V19.52C19.3538 19.5102 19.3794 19.5004 19.405 19.4905C20.1827 19.1895 20.8888 18.8293 21.5194 18.4138C23.9243 16.8292 25.232 14.4398 25.232 11.456C25.232 5.36 20.576 2 13.712 2C10.2738 2 7.33511 3.16543 4.674 5.0803C4.41289 5.26818 4.15446 5.46329 3.89848 5.66521C3.63105 5.87617 3.3663 6.09459 3.104 6.32L6.704 10.688C7.21471 10.2121 7.72261 9.78114 8.23517 9.40118C9.84227 8.20982 11.4952 7.52 13.424 7.52C16.448 7.52 18.176 9.2 18.176 11.984C18.176 15.152 16.064 17.36 9.536 17.36V22.448C17.264 22.448 19.328 24.608 19.328 28.112C19.328 31.28 16.88 33.104 13.232 33.104C10.7455 33.104 8.66074 32.1284 6.86675 30.7319C6.34041 30.3222 5.83909 29.8762 5.36 29.408L2 33.872C4.496 36.752 8.288 38.816 13.904 38.816C20.72 38.816 26.432 35.072 26.432 28.544C26.432 24.7866 24.472 22.1624 21.6284 20.6713Z" fill="#E94816"/>
</svg>
