<svg width="54" height="50" viewBox="0 0 54 50" fill="none" xmlns="http://www.w3.org/2000/svg">
<g clip-path="url(#clip0_408_1773)">
<path d="M17.7778 37.7117C17.3192 38.1174 17.2075 38.9523 17.6955 39.3756C18.0659 39.6931 18.6421 39.5579 19.0243 39.3227C19.5005 39.0228 19.5829 38.4525 19.2948 37.9763C18.9655 37.4295 18.2658 37.2825 17.7837 37.7117H17.7778Z" fill="#E94816"/>
<path d="M17.6662 18.7265C17.7073 17.8387 17.2252 16.9685 16.3727 16.6804C16.308 16.6569 16.2374 16.6392 16.1669 16.6216V20.5315C16.1669 20.5315 17.6015 20.1552 17.6662 18.7265Z" fill="#E94816"/>
<path d="M18.9009 6.80848C18.8068 6.44395 18.4423 6.30872 18.2659 6.36164C18.2659 6.36164 16.3668 6.69089 16.2256 10.2657C16.2256 10.2657 18.9067 8.60176 18.895 6.80848H18.9009Z" fill="#E94816"/>
<path d="M13.4446 20.2317C14.7675 20.802 15.4143 20.6786 15.4143 20.6786L15.4554 16.5217C15.4554 16.5217 13.9326 16.7863 13.9561 17.9093C13.9738 18.5972 14.3148 18.9794 14.5265 19.1499C14.6205 19.2263 14.6852 19.2851 14.6852 19.2851C14.6852 19.2851 15.038 19.6202 14.6735 19.7731C14.303 19.926 13.868 19.4027 13.868 19.4027C13.868 19.4027 12.2275 17.7446 13.5093 15.9808C14.3324 14.8284 15.4319 14.7755 15.4319 14.7755L15.4848 13.0527C15.4848 13.0527 12.8978 14.4874 12.2746 15.6515C11.6455 16.8157 11.6866 17.4683 11.6866 17.4683C11.6866 17.4683 11.5455 19.1851 13.4446 20.2435V20.2317Z" fill="#E94816"/>
<path d="M36.7865 19.7849C36.0516 19.1381 35.005 19.1381 34.4465 19.7849C33.9114 20.4022 33.9055 21.3841 34.4288 21.8486C35.0873 22.4366 36.1927 22.413 36.7277 21.7898C37.3098 21.1019 37.545 20.3611 36.7865 19.7849Z" fill="#E94816"/>
<path d="M45.1121 25.6878C44.3948 25.6761 43.9068 26.1523 43.9009 26.8696C43.895 27.7692 44.3125 28.2807 45.0709 28.2807C45.8705 28.2807 46.4232 27.8692 46.3879 27.2107C46.3409 26.3287 46.0352 25.6526 45.118 25.6878H45.1121Z" fill="#E94816"/>
<path d="M52.6144 20.6138C51.8794 18.0974 50.4684 15.5456 48.0871 13.6348C45.7059 11.718 42.3898 10.5127 38.1212 10.5245C36.7689 10.5245 35.6812 10.3716 34.7757 10.1305C33.2 9.69544 32.1476 8.99577 31.1304 8.07855C30.3719 7.39064 29.6605 6.56162 28.855 5.6738C27.6497 4.35089 26.2151 2.881 24.0984 1.78739C21.9759 0.682032 19.2419 0 15.5318 0C7.33571 0 0.691772 6.64393 0.691772 14.8401V43.6736C0.691772 47.166 3.51985 50 7.01821 50H46.9818C50.4801 50 53.3082 47.166 53.3082 43.6736V25.5233C53.3082 23.977 53.1083 22.2954 52.6144 20.6138ZM15.4966 10.6362C15.3731 10.2952 15.5436 8.78998 15.6142 8.21966C15.6436 8.03739 15.673 7.85513 15.72 7.67874C15.9023 7.00259 16.4491 5.43274 17.6309 4.49788C18.3952 3.89817 18.8597 4.33913 19.0949 4.72131C19.2066 4.90357 19.2771 5.10348 19.3183 5.31515C19.4241 5.80903 19.6711 7.10254 19.5417 7.95508C19.0302 11.377 16.2315 12.6764 16.2315 12.6764L16.1668 14.7284L16.4138 14.7636C16.9371 14.8518 17.4368 15.0459 17.8602 15.3634C18.4952 15.8337 19.1302 16.6745 18.9949 18.1209C18.7245 20.8549 16.1786 21.2135 16.1786 21.2135C16.2786 22.0543 16.1492 23.5301 16.0904 24.1475C16.0669 24.4003 16.0199 24.6472 15.9317 24.8765C15.1438 26.9167 12.6744 26.3405 12.6744 26.3405C12.6744 26.3405 11.1868 26.0466 10.8223 24.4179C10.4578 22.7893 12.0335 22.46 12.0335 22.46C12.0335 22.46 13.5034 22.2425 13.7915 23.5477C14.1619 25.2411 12.2746 25.2763 12.2746 25.2763C12.2746 25.2763 12.7214 25.6879 13.3917 25.7408C16.1492 25.9055 15.3907 21.3782 15.3907 21.3782C13.18 21.4428 11.0222 20.067 10.6694 16.9979C10.2696 13.4878 15.5201 10.6362 15.5201 10.6362H15.4966ZM20.9293 41.9391V45.949C20.9293 46.8721 20.2179 47.6246 19.3418 47.6246H10.0286C9.1525 47.6246 8.44107 46.8779 8.44107 45.949V35.8655C8.44107 32.3906 10.9752 29.4214 14.2736 29.2333C14.4441 29.2215 14.6146 29.2215 14.791 29.2215C14.9439 29.2215 15.0968 29.2274 15.2437 29.2392C18.4775 29.4802 20.9293 32.4377 20.9293 35.8537V41.9332V41.9391ZM26.1033 47.1602C26.1033 47.3895 25.9152 47.5717 25.6918 47.5717C25.4683 47.5717 25.2802 47.3895 25.2802 47.1602V33.4842C25.2802 33.2549 25.4683 33.0727 25.6918 33.0727C25.9152 33.0727 26.1033 33.2549 26.1033 33.4842V47.1602ZM28.2376 28.6453C27.8378 28.5219 27.5615 28.3102 27.2616 28.028C26.95 27.7399 26.6443 27.4518 26.4973 27.0402C26.3797 26.7168 26.3033 26.3464 26.3091 25.9995C26.3091 25.7879 26.3562 25.5821 26.4208 25.3763C26.4385 25.3234 26.4502 25.2587 26.4796 25.2117C26.5149 25.1587 26.5796 25.0706 26.6207 25.0294C26.7913 24.8883 27.3145 25.0412 27.5262 25.0764C27.9378 25.1411 28.2906 25.2117 28.6551 25.4116C29.0431 25.6232 29.4136 25.9055 29.7546 26.1877C30.3366 26.6698 30.6835 27.4459 30.3014 28.1691L29.6076 28.7806C29.1313 28.8394 28.7021 28.7806 28.2435 28.6395L28.2376 28.6453ZM32.371 46.2253C32.371 46.972 31.7654 47.5717 31.0246 47.5717C30.2837 47.5717 29.6781 46.9661 29.6781 46.2253V39.2345C29.6781 38.6348 30.0721 38.135 30.613 37.9586V30.1976C30.613 30.0035 30.8011 29.8507 31.0246 29.8507C31.248 29.8507 31.4361 30.0035 31.4361 30.1976V37.9586C31.9771 38.135 32.371 38.6348 32.371 39.2345V46.2253ZM37.7038 46.2253C37.7038 46.972 37.0982 47.5717 36.3573 47.5717C35.6165 47.5717 35.0109 46.9661 35.0109 46.2253V39.2345C35.0109 38.6348 35.4048 38.135 35.9458 37.9586V29.5332C35.9458 29.3627 36.1339 29.2215 36.3573 29.2215C36.5808 29.2215 36.7689 29.3627 36.7689 29.5332V37.9586C37.3098 38.135 37.7038 38.6348 37.7038 39.2345V46.2253ZM37.6156 24.6766C37.1041 24.4179 37.2099 24.2944 36.8042 24.8942C36.1574 25.8525 35.3343 26.5522 34.1055 26.4934C33.0177 26.4405 32.177 25.9113 31.5714 24.9941C31.1245 24.3238 30.7541 23.6418 30.807 22.7952C30.8247 22.4953 30.8776 22.2072 30.9716 21.9309C31.0422 21.7251 30.9893 21.5957 30.8423 21.4605C30.172 20.8666 29.8486 20.1258 29.8663 19.2204C29.878 18.7559 29.8722 18.2973 30.0368 17.8563C30.2249 17.333 30.5542 16.9567 31.054 16.6686C31.5184 16.3982 32.03 16.2982 32.5121 16.0983C33.2294 15.7984 33.8762 16.163 34.4935 16.4452C34.811 16.5922 35.005 16.5393 35.1991 16.3217C35.9693 15.4692 36.9335 15.187 38.0507 15.3398C38.5387 15.4045 38.9208 15.6985 39.2854 15.9925C40.0615 16.5863 40.132 17.4271 40.0732 18.2914C40.0438 18.7206 39.9968 19.1557 39.8322 19.5673C39.7616 19.7378 39.8087 19.8612 39.9674 19.9494C40.0556 19.9965 40.1379 20.067 40.232 20.1082C41.502 20.7373 41.6078 22.5835 40.9493 23.4772C40.7082 23.8064 40.5318 24.1886 40.2261 24.465C39.4147 25.1999 38.668 25.1999 37.6156 24.6707V24.6766ZM43.0307 46.2253C43.0307 46.972 42.4251 47.5717 41.6842 47.5717C40.9434 47.5717 40.3378 46.9661 40.3378 46.2253V39.2345C40.3378 38.6348 40.7318 38.135 41.2727 37.9586V32.9668C41.2727 32.7375 41.4608 32.5553 41.6842 32.5553C41.9077 32.5553 42.0958 32.7375 42.0958 32.9668V37.9586C42.6367 38.135 43.0307 38.6348 43.0307 39.2345V46.2253ZM47.4286 47.1602C47.4286 47.3895 47.2405 47.5717 47.017 47.5717C46.7936 47.5717 46.6055 47.3895 46.6055 47.1602V32.2495C46.6055 32.0202 46.7936 31.838 47.017 31.838C47.2405 31.838 47.4286 32.0202 47.4286 32.2495V47.1602ZM48.7398 24.8824C48.5986 25.5938 48.2047 26.1936 47.8696 26.8109C47.7167 27.099 47.752 27.2578 47.9578 27.5047C48.4399 28.0868 48.6574 28.8041 48.6927 29.5508C48.7045 29.8213 48.4517 30.0447 48.1283 30.0506C47.9107 30.0564 47.6932 30.0388 47.4698 30.0329C47.0053 30.0329 46.5525 29.9624 46.1116 29.833C45.359 29.6155 44.9415 30.1446 44.4477 30.5151C44.2419 30.6738 44.0655 30.8913 43.795 30.9384C43.2835 31.0325 42.8425 30.6738 42.8014 30.0917C42.772 29.6743 42.6426 29.2509 42.8131 28.8217C42.9131 28.5689 42.7779 28.3925 42.5485 28.2867C42.2017 28.1279 41.8548 27.9633 41.5079 27.8163C41.0375 27.6223 40.8141 26.6992 41.3726 26.3993C41.6313 26.2641 41.8254 25.9936 42.0899 25.8878C42.9542 25.5409 43.2012 24.8001 43.3834 24.0063C43.4422 23.7476 43.4658 23.4772 43.5187 23.2185C43.6186 22.7481 44.089 22.5541 44.5006 22.8069C44.9063 23.0597 45.2061 23.4184 45.5119 23.777C45.7412 24.0416 45.9528 24.2121 46.3291 24.0769C46.8054 23.9123 47.3169 23.9182 47.8108 23.8417C48.4046 23.7535 48.8456 24.2768 48.7339 24.8648L48.7398 24.8824Z" fill="#E94816"/>
</g>
<defs>
<clipPath id="clip0_408_1773">
<rect width="52.6164" height="50" fill="white" transform="translate(0.691772)"/>
</clipPath>
</defs>
</svg>
