<?xml version="1.0" encoding="UTF-8"?>
<svg id="_レイヤー_2" data-name="レイヤー 2" xmlns="http://www.w3.org/2000/svg" viewBox="0 0 804.22 85.53">
  <defs>
    <style>
      .cls-1 {
        fill: #00418d;
      }

      .cls-1, .cls-2, .cls-3, .cls-4, .cls-5 {
        stroke-width: 0px;
      }

      .cls-2 {
        fill: #3d423e;
        fill-rule: evenodd;
      }

      .cls-3 {
        fill: #e94816;
      }

      .cls-4 {
        fill: #efbb3f;
      }

      .cls-5 {
        fill: #009479;
      }
    </style>
  </defs>
  <g id="_レイヤー_1-2" data-name="レイヤー 1">
    <g>
      <g>
        <path class="cls-2" d="m355.59,18.13l-5.64,26.56c-.61,2.86-2.3,5.21-4.54,6.7-2.24,1.48-5.04,2.1-7.85,1.51-2.82-.6-5.12-2.3-6.56-4.57-1.44-2.27-2.04-5.1-1.43-7.97.61-2.86,2.3-5.21,4.54-6.7,2.24-1.48,5.04-2.1,7.85-1.51,1.36.29,2.61.84,3.7,1.6.67.46,1.27,1,1.81,1.59l6.03-28.38c.09-.41.48-.67.89-.59.24.05.43.21.52.42,1.62,3.05,4.16,5,6.55,6.83,5.19,3.98,9.77,7.5,4.79,19.83-.16.38-.59.57-.97.42-.32-.13-.5-.47-.45-.8.62-4.51-.32-7.65-2.19-9.98-1.72-2.16-4.25-3.68-7.04-4.97h0Z"/>
        <path class="cls-2" d="m451.61,26.7l2.8,19.04c.3,2.07-.26,4.07-1.42,5.63h0c-1.16,1.56-2.91,2.68-4.98,2.98-2.07.3-4.07-.26-5.63-1.42h0c-1.56-1.16-2.67-2.92-2.98-4.99-.3-2.07.26-4.07,1.42-5.63h0c1.16-1.56,2.91-2.68,4.98-2.98,1-.15,1.99-.09,2.93.14.47.12.93.28,1.37.49l-3.22-21.89c-.05-.33.15-.64.45-.75l25.67-11.32c.35-.15.75,0,.9.35.02.06.04.12.05.18l4.15,28.17c.31,2.07-.26,4.07-1.41,5.63h0c-1.16,1.56-2.91,2.68-4.98,2.98s-4.07-.26-5.63-1.42l-.04-.04c-1.53-1.16-2.63-2.9-2.93-4.95-.3-2.05.26-4.07,1.42-5.63,1.15-1.56,2.91-2.68,4.98-2.98,1-.15,1.99-.09,2.93.14.47.12.93.28,1.37.49l-1.66-11.27-20.52,9.05h0Z"/>
        <path class="cls-1" d="m487.03,69.6c2.2-4.06,4.38-8.09,5.69-12.56,1.01-3.43,1.04-3.7-2.34-4.29-2.28-.4-2.27-.85-1.05-2.85,2.13-3.49,4.02-7.13,5.87-10.78.75-1.47-.6-1.19-1.37-1.17-.61.01-1.32.16-1.61-.47-.36-.77.61-.88.9-1.35,2.57-4.25,5.29-8.43,7.66-12.79,1.73-3.19,4.38-3.83,6.52-.9,2.63,3.6,4.91,7.45,7.37,11.17.66,1,1.41,1.95,2.17,2.88.94,1.16,1.16,2.08-.76,2.12-1.9.04-1.77,1.17-1.5,2.46.7,3.4,2.7,6.06,4.88,8.61,1.29,1.5,1.03,2.8-.81,2.8-2.71,0-1.84,1.55-1.53,2.83,1.06,4.45,2.88,8.61,5.29,12.48,1.06,1.7.62,2.18-1.17,2.32-1.78.14-3.52.67-5.33.03-.7-.25-1.53-.18-2.3-.17-4.03.07-4.58.62-4.36,4.53.1,1.78.39,3.54.58,5.31.09.85-.12,1.88-1.12,1.44-2.7-1.21-5.21-.15-7.77.29-1.33.23-1.53-.03-1.09-1.27.87-2.45.92-5.02,1.01-7.6.05-1.32-.41-1.69-1.68-1.94-3.19-.63-6.35-1.13-9.61-.73-.78.1-1.69.22-2.53-.4Zm14.4,6.3c-.06,1.29,0,2.5-.2,3.67-.18,1.04.52,1.07,1.01.93,2.14-.61,4.25-1.05,6.44-.3.39-2.19-.45-4.31-.37-6.49,0-.25-.17-.5-.15-.75.12-1.39-.4-1.82-1.87-1.83-4.43-.04-4.43-.12-4.8,4.37-.01.17-.06.34-.07.4Zm10.62-25.08c.01-1.88-1.74-4.74-2.96-4.72-1.03,0-1.56.64-1.6,1.64-.07,1.64,1.95,5.06,2.97,5.01,1.19-.06,1.58-.85,1.58-1.93Zm-9-16.89c.23-1.3.05-2.18-1.11-2.46-1.09-.26-3.22,2.4-3.59,4.44-.2,1.1.24,2.06,1.35,1.97,2.47-.2,2.57-2.56,3.36-3.95Zm-1.76,15.21c0-.17.04-.68,0-1.18-.09-.96-.58-1.66-1.58-1.65-.99,0-1.63.71-1.57,1.65.09,1.55-1.53,3.37.54,4.63.78.48,1.46-.02,1.95-.69.53-.72.61-1.57.67-2.76Zm5.57,9.52c-.13-1.22.35-3.01-1.62-3.12-1.77-.1-1.76,1.52-1.81,2.79-.06,1.37-.17,3.01,1.77,3.04,1.63.03,1.58-1.45,1.67-2.71Zm3.55-23.45c.11-1.1-1.91-3.03-3.1-3.04-.89,0-1.42.34-1.54.98-.15.84,1.96,3.01,2.98,3.06,1.03.05,1.52-.4,1.66-1Zm4.75,24.62c-.27-1.31-.78-2.65-2.57-2.83-1.02-.1-1.83.52-1.58,1.49.37,1.44.95,3.03,2.74,3.25,1.02.12,1.45-.72,1.41-1.91Zm-8.93-19.05c-.23-1.13-.25-2.6-1.96-2.67-1.13-.04-1.65.87-1.52,1.9.15,1.19,0,2.77,1.76,2.91,1.29.1,1.67-.9,1.72-2.14Zm-10.33,19.44c-.15,1.12.08,2.12,1.22,2.22,1.85.17,2.06-1.49,2.43-2.73.3-1.03-.21-1.97-1.35-2-1.64-.04-1.93,1.37-2.3,2.51Z"/>
        <g>
          <path class="cls-5" d="m479.26,69.12c2.14.06,3.35,1.02,3.78,3.14.33,1.59,1.37,2.62,2.66,3.38,1.39.82,1.34,1.92,1.17,3.06-.14.92-1.25,1.71-2.34,1.81-.33.03-.66.03-.99.01-1.66-.1-1.73-.03-1.8,1.7-.03.78-.03,1.53-.54,2.24-.87,1.2-2.06,1.15-3.27,1-.95-.12-1.8-.61-2.61-1.11-.44-.28-.69-.7-.5-1.27.14-.41.26-.81.4-1.22.43-1.24-.26-2.26-1.58-2.27-.89,0-1.77-.03-2.63-.34-.73-.26-1.27-.67-1.43-1.47-.17-.84.18-1.47.8-2,.54-.46,1.2-.68,1.85-.9,1.54-.53,2.67-1.45,3.27-3.01.73-1.9,2.01-2.79,3.74-2.74Zm-4,10.27c.55,1.04.91,1.93.34,3.03-.57,1.1-.41,1.29.67,1.8.21.1.4.23.61.33,1.95.94,4.49.58,4.36-2.47,0-.2,0-.4.04-.59.24-1.25.23-1.2-1-1.45-.69-.15-.65.37-.86.69-.12.19-.17.47-.47.42-.31-.05-.27-.32-.3-.54-.04-.29-.06-.61-.18-.87-.25-.55-.75-.58-1.26-.44-.58.15-.09.43-.06.65.03.19.12.44-.09.54-.34.16-.32-.18-.42-.37-.27-.5-.68-.77-1.37-.73Zm2.84-6.55c-.03-.4.1-.94-.52-.99-.6-.04-.63.51-.65.92-.04.54-.69,1.4.33,1.51.78.08.73-.83.84-1.44Zm-4.64,3.61c-.02-.33-.22-.51-.55-.56-.52-.07-1.42.68-1.49,1.23-.04.34.1.58.44.65.31.06,1.58-.99,1.6-1.32Zm10.88-.3c-.39.05-.63.26-.54.59.14.51.2,1.15.87,1.27.41.07.59-.27.54-.63-.07-.56-.27-1.07-.87-1.23Zm-4.54-.04c.42-.02.7-.24.74-.65.04-.46-.23-.77-.69-.79-.46-.02-.75.28-.74.74,0,.42.27.65.69.7Zm1.68-3.74c-.03-.36-.24-.65-.65-.68-.46-.03-.77.24-.78.7-.01.46.28.74.75.73.42-.01.65-.27.69-.75Z"/>
          <path class="cls-5" d="m487.71,74.29c-.07,0,.05-.02.15.01,1.53.41,2.8,1.36,3.86,2.38.98.94.22,2.55-1.26,3.28-1.27.62-1.35.75-.43,1.74.6.65.88,1.3.33,2-.57.72-1.47.86-2.37.78-.31-.03-.49-.25-.62-.54-.42-.97-.15-2.17-1.06-2.97-.03-.03.01-.23.07-.27.18-.13.32,0,.47.12.64.54.68,1.31.83,2.04.12.56.04,1.28,1.08,1.03,1.38-.33,1.57-.72.73-1.85-.11-.14-.22-.29-.29-.46-.28-.64-.31-1.38-1.44-1.34-.55.02-1.09-.61-.65-1.47.57-1.11.33-2.24-.23-3.3-.56-1.07-.53-1.17.83-1.18Zm2.07,4.5c.37-.03.62-.2.65-.59.03-.38-.19-.62-.56-.67-.38-.06-.67.13-.71.5-.05.42.2.66.62.76Z"/>
        </g>
        <g>
          <path class="cls-1" d="m397.97,50.14c-.07-5.03.33-9.57.72-14.1.22-2.51.5-5.01.74-7.52.07-.74.24-1.5,1.14-1.37.79.11.61.9.69,1.5.52,3.93.49,7.94,1.57,11.8.47,1.69,1.05,2,2.28.58.84-.97,2.01-1.65,2.57-2.88.21-.46.61-.69,1.13-.54.53.15.62.56.62,1.08,0,1.24-.21,2.42-.61,3.6-3.19,9.32-3.44,18.9-2.07,28.5.44,3.05,1.46,6.29,4.25,8.41.47.35.89.85.9,1.59-1.01.37-1.95.13-2.8-.39-5.91-3.58-12.11-2.59-18.35-1.27-1.02.22-2.25,1.57-3.01.39-.76-1.17.78-2.01,1.57-2.72,3.37-3.01,4.28-6.98,4.38-11.18.18-7.7-1.4-14.98-5.6-21.57-.29-.46-.65-.94-.34-1.48.46-.81,1.05-.07,1.59-.07,2.6,0,3.34,2.43,4.93,3.73,1.25,1.03,2.26,2.36,3.71,3.92Z"/>
          <path class="cls-5" d="m397.55,0c2.28-.1,7.12,3.1,6.98,5.45-.12,2.04-3.86,6.5-5.61,6.46-2.6-.06-6.51-3.56-6.41-5.74.15-3.3,2.51-6.19,5.04-6.16Z"/>
          <path class="cls-4" d="m389.2,19.69c-4.56-.53-4.9-.48-5.26-5.93-.12-1.94,2.67-4.34,4.86-4.32,2.86.02,5.87,2.95,5.84,5.69-.03,2.52-2.44,4.54-5.44,4.56Z"/>
          <path class="cls-5" d="m381.33,43.07c-3.69-.1-5.01-1.51-4.99-5.3.02-2.48,2.66-5.32,4.99-5.09,3.04.3,5.61,2.74,5.56,5-.06,2.99-2.57,5.46-5.56,5.38Z"/>
          <path class="cls-4" d="m425.47,34.95c1.94,1.13,2.06,3.7.32,6.85-.99,1.78-5.26,2.9-7.16,1.87-1.78-.97-2.96-5.54-1.86-7.21,1.76-2.68,5.55-3.34,8.69-1.51Z"/>
          <path class="cls-5" d="m407.33,38.93c-2.68.05-5.11-2.38-5.15-5.17-.04-2.62,2.24-5.21,4.63-5.26,3.5-.08,5.95,1.95,6.01,4.96.05,2.87-2.5,5.41-5.49,5.47Z"/>
          <path class="cls-5" d="m420.53,58.42c-2.75-.13-4.41-1.93-4.29-4.69.13-3.25,2.05-5.51,4.55-5.39,3.16.15,5.87,2.17,5.79,4.29-.17,4.22-2,5.97-6.04,5.78Z"/>
          <path class="cls-5" d="m393.8,50.28c2.92-.05,5.43,1.91,5.44,4.25.01,2.93-2.21,5.47-4.91,5.6-2.59.13-5.04-2.16-5.04-4.7,0-2.83,1.99-5.1,4.51-5.15Z"/>
          <path class="cls-4" d="m421.4,16.98c.01,2.18-1.69,4.33-3.4,4.3-3.01-.05-4.96-1.72-5.02-4.31-.06-2.28,1.87-4.22,4.2-4.22,2.24,0,4.21,1.97,4.22,4.23Z"/>
          <path class="cls-5" d="m378.18,47.13c.09,3.46-1.38,5.47-3.86,5.56-1.9.07-3.37-1.36-3.43-3.35-.1-3.06,1.82-5.55,4.33-5.65,2.65-.1,2.54,2.01,2.96,3.43Z"/>
          <path class="cls-3" d="m410.09,49.25c-2.22.07-4.17-1.74-4.16-3.86,0-1.62,2.12-3.77,3.74-3.81,1.67-.04,3.88,1.98,3.9,3.57.03,2.44-1.33,4.04-3.48,4.11Z"/>
          <path class="cls-5" d="m415.6,28.53c0-1.68,1.87-3.65,3.43-3.62,1.85.04,3.65,1.64,3.68,3.25.03,2.17-1.64,4-3.57,3.91-1.65-.08-3.54-1.98-3.53-3.54Z"/>
          <path class="cls-5" d="m396.03,42.27c-2.03.04-3.7-1.4-3.5-3.26.22-2.02,1.45-3.25,3.55-3.4,1.78-.13,3.47,1.52,3.52,3.37.05,1.75-1.59,3.25-3.58,3.3Z"/>
          <path class="cls-3" d="m382.31,28.27c-1.99-.01-3.3-1.36-3.3-3.39,0-2.2,1.28-3.38,3.62-3.33,1.89.04,3.1,1.49,3.06,3.66-.03,1.77-1.47,3.06-3.38,3.05Z"/>
          <path class="cls-5" d="m410.09,5.07c1.66,0,3.4,1.46,3.17,3.34-.21,1.71-1.18,3.05-3.07,3.2-1.99.16-3.86-1.46-3.71-3.28.15-1.82.84-3.35,3.62-3.27Z"/>
          <path class="cls-3" d="m406.42,23.94c.04-2.06.81-3.42,3.15-3.38,1.82.03,3.95,2.15,3.76,4.03-.19,1.81-1.63,2.57-3.21,2.72-1.96.18-3.67-1.53-3.69-3.37Z"/>
          <path class="cls-3" d="m389.05,46.36c-.16,2.44-1.21,3.43-3.5,3.38-2.19-.05-2.86-1.66-3.22-3.34-.26-1.19,2.13-3.22,3.48-3.2,1.86.04,3.36,1.49,3.25,3.16Z"/>
          <path class="cls-4" d="m381.96,51.13c2.1.08,3.77,1.79,3.72,3.51-.04,1.45-2.08,3.37-3.5,3.09-1.75-.35-3.39-1.13-3.16-3.31.19-1.84,1.24-3.1,2.94-3.28Z"/>
          <path class="cls-5" d="m400.11,23.57c-.13,1.73-1.15,2.86-3.24,2.82-1.91-.04-3.03-1.15-3.31-2.95-.22-1.41,1.7-3.68,2.95-3.74,1.83-.09,3.61,1.67,3.6,3.88Z"/>
          <path class="cls-5" d="m428.64,49.31c-2.45.26-2.94-1.41-3.06-3.21-.15-2.21,1.63-2.76,3.22-2.84,1.81-.09,3.15,1.18,3.09,3-.06,1.83-1.08,3.23-3.24,3.05Z"/>
          <path class="cls-4" d="m409.74,60.53c-2.31.09-2.98-1.1-2.97-2.88,0-2.02.97-3.18,3.08-3.21,2.03-.04,2.9,1.31,3.11,2.99.22,1.74-1.46,3.09-3.22,3.1Z"/>
          <path class="cls-5" d="m390.94,28.42c-.39,1.18-1.03,2.04-2.17,1.98-1.28-.06-2.01-.92-1.87-2.26.12-1.15.98-1.58,2-1.56,1.2.03,1.75.86,2.04,1.83Z"/>
          <path class="cls-5" d="m405.93,15.14c-.17,1.28-.66,1.92-1.86,1.86-1.3-.07-1.86-.84-1.8-1.99.06-1.15.92-1.56,1.98-1.54,1.21.03,1.52.88,1.68,1.67Z"/>
          <path class="cls-5" d="m388.92,32.42c-.05.76-.35,1.25-1.2,1.29-.9.05-1.51-.29-1.56-1.22-.04-.76.42-1.25,1.2-1.35.95-.12,1.36.45,1.56,1.27Z"/>
        </g>
        <path class="cls-3" d="m430.47,79.62c-.21.01-.47.08-.44.24.31,2.22-1.42,1.36-2.4,1.61-.13.03-.26.09-.54.19.88.52,1.76.8,2.32,1.55.27.36.8.24,1.19.15.35-.08.54-.47.39-.79-.55-1.19.23-1.71,1.04-2.25.46-.31.91-.63,1.37-.95.02-.09.01-.2.07-.26.5-.5,1.15-.99,1.01-1.77-.17-.9-1.12.22-1.51-.52.29-.61,1.03-.49,1.5-.8.25-.17.52-.48.88-.22.36.27.07.6.06.91-.11,1.9-1.36,2.99-2.74,4.05-.47.36-1.3.6-.99,1.49.29.82-.04,1.5-.7,1.78-.72.3-1.71.33-2.22-.37-.61-.83-1.49-1.23-2.29-1.18-1.32.07-2.82-.99-4,.76-.76,1.13-1.72.77-2.2-.56-.28-.78-.41-1.67-1.3-2.07-1.75-.78-2.77-2.14-3.27-3.98-.17-.62-.21-.84.47-1.12,1.67-.7,2.88-1.9,3.02-3.8.09-1.09.59-1.96,1.03-2.89.5.16.1.62.45.91.79-1.19,2.12-1.12,3.3-1.4.15.6-.23,1.17.12,1.75.63-.22,1.25-.45,1.88-.64.34-.1.72-.39,1.03.01.36.46-.13.73-.3,1.08,3.05-.04,3.45.25,2.61,1.84,1.41.52,2.81,1.04,4.04,1.96.82.61.66,1.02-.17,1.42-.48.23-1.1.23-1.47.87,1.27.51,1.31,1.73,1.68,2.77-.98.08-1.95.17-2.93.25Zm-7.09.94c-.97-.02-1.55-.45-2.08-1.16-.15-.21-.34-.52-.18-.59,1.17-.55.51-2.24,1.75-2.75.31-.13.35-.77-.07-.69-1.17.23-1.8-.67-2.66-1.05-.68-.3-1.15-.29-1.63.25-.22.25-.42.52-.66.74-1.6,1.51-1.58,2.79.35,3.92,1.36.8,2.51,1.63,2.86,3.22.18.82.69.68.92.22.68-1.4,1.71-1.38,2.97-1.04.52.14,1.12.2,1.68-.25-1.02-.65-2.15-.81-3.26-.83Zm2.02-8.39c-.83-.24-1.53.05-2.17.56-.04.04.03.34.07.34.86.12,1.56-.21,2.22-.68-.08-.15-.09-.21-.12-.22Z"/>
        <path class="cls-1" d="m335.92,63.47c-2.18.43-3.28,1.54-4.53,2.38-5.1,3.42-10.73,3.36-16.52,2.7-3.06-.35-3.26-.05-2.64,2.76.57,2.56.96,5.16,2.19,7.55.81,1.57.42,2.35-1.65,2.33-3.01-.03-6.02.21-9.02.43-1.61.11-1.98-.36-1.72-1.94.41-2.57.44-5.19.7-7.79.11-1.13-.07-1.48-1.4-1.21-7.05,1.43-14.12-.27-21.18,0-.52.02-1.36-.25-1.52-.6-.29-.63.36-1.07.87-1.56,6.07-5.89,9.88-13.08,12.71-20.82.63-1.71-.15-2.07-1.75-2.2-3.03-.23-3.35-.84-1.75-3.49,4.04-6.71,8.2-13.36,12.22-20.09,1.23-2.06,2.36-1.53,3.55-.17,2.57,2.92,5.06,5.9,7.64,8.82,2.46,2.78,4.95,5.53,7.47,8.25,1.43,1.55,1.64,2.8-.74,3.53-2.07.64-2.16,1.47-.89,3.18,2.47,3.35,4.81,6.76,8.15,9.41,3.23,2.56,5.84,5.78,9.81,8.53Zm-27.8,16.45c.78-.01,1.56-.07,2.34-.03,2.12.1,2.96-.65,1.81-2.6-1.1-1.85-1.32-3.97-1.53-5.94-.33-3.15-1.83-3.09-4.31-2.44-1.64.43-2.26,1.1-2.16,2.71.08,1.29-.09,2.6-.25,3.89-.57,4.55-.59,4.55,4.11,4.4Zm-6.92-30.47c.09-1.97-.25-3.33-1.65-3.17-2.67.3-2.11,2.74-2.46,4.42-.24,1.16.54,2.19,1.8,1.96,2.19-.39,2.14-2.31,2.31-3.22Zm6.05-12.63c.31,1.39-.1,3.77,2.44,3.51,2.55-.26,1.31-2.4,1.28-3.86,0-.09-.02-.19-.03-.28-.17-1.23-.65-2.3-2.14-2.14-1.55.17-1.58,1.41-1.54,2.76Zm-6.48,21.38c.57,1.02.02,3.12,2.38,3.24,1.34.07,1.92-.99,1.75-2.07-.24-1.47-.09-3.43-2.24-3.71-1.48-.19-1.88.97-1.89,2.53Zm13.54-3c-1.29.18-2.06.85-1.77,1.92.43,1.62,1.06,3.35,3.18,3.53,1.19.1,1.84-.79,1.62-1.84-.35-1.7-1.23-3.12-3.03-3.61Zm-6.03-7.87c-.26-1.28-.08-3.11-2.31-3.12-1.38,0-1.78,1.11-1.57,2.21.27,1.45-.18,3.56,2.29,3.56,1.54,0,1.66-1.31,1.6-2.65Zm-14.71,17.07c1.75-.38,2.18-1.89,2.48-3.31.22-1.02-.48-1.92-1.61-1.85-2.07.13-2.53,1.8-2.73,3.37-.13,1.02.61,1.7,1.86,1.78Zm9.79-27.55c-.05-1.31-.34-2.64-2.02-2.53-1.69.11-1.71,1.53-1.68,2.8.02,1.31.29,2.66,1.98,2.53,1.64-.12,1.76-1.5,1.72-2.8Zm18.65,18.36c-1.3.15-2.05.86-1.75,1.9.42,1.44,1.2,2.92,3.03,3.03,1.14.06,1.76-.82,1.59-1.92-.25-1.64-1.26-2.68-2.87-3.01Zm-5.51-6.3c-.2-1.15-.55-2.42-2.15-2.44-1.37-.02-1.77.99-1.65,2.15.14,1.27.52,2.53,2.14,2.54,1.37.01,1.75-.96,1.66-2.25Z"/>
      </g>
      <g>
        <path class="cls-3" d="m718.22,79.63c-.1,1.69-.45,1.89-1.89,2.41-2.18.79-4.3-.32-6.44.16-.53.12-1.08.16-1.62.22-.4.04-.8.04-1-.44-.17-.42.1-.74.28-1.06.19-.35.53-.49.83-.7,1.21-.84,1.45-2.64.44-3.75-1.02-1.13-1.87-2.29-1.51-4.04.04-.18.04-.33-.11-.45-1.11-.85-.43-1.55.14-2.31.46-.61,1.15-1.08,1.16-2.01,0-.22.26-.53.32-.44.66.94,1.31-.11,1.93.01.48.1.93.45.87,1.16-.06.74.26,1.29.73,1.79,1.18,1.25,1.48,1.23,2.36-.27,1.48-2.54,3.98-3.41,7.02-2.45,3.68,1.16,5.35,6.77,2.92,10.12-1.07,1.47-2.31,2.06-3.41,1.64-1.19-.45-2.17-1.49-2.22-3.44,0-.34.07-.71-.01-1.02-.12-.48-.29-1.09-.88-.99-.51.09-.8.63-.74,1.15.09.75.02,1.53.44,2.23.44.73.5,1.6.38,2.48Zm-1-10.66c.83.19,1.47-.03,2.11-.07.24-.01.48-.15.46-.45-.02-.32-.3-.32-.53-.36-.73-.12-1.34.13-2.04.88Zm-4.19,8.21c-1.69.42-2.21,1.32-1.82,3.14-.02-1.49.52-2.58,1.82-3.14Zm5.47-7.1c.6.49,1.21.54,1.85.4.18-.04.23-.29.13-.4-.47-.55-1.08-.19-1.63-.23-.09,0-.18.12-.35.23Z"/>
        <g>
          <path class="cls-1" d="m651.29,68.63c-2.14.06-3.35,1.02-3.78,3.14-.33,1.59-1.37,2.62-2.66,3.38-1.39.82-1.34,1.92-1.17,3.06.14.92,1.25,1.71,2.34,1.81.33.03.66.03.99.01,1.66-.1,1.73-.03,1.8,1.7.03.78.03,1.53.54,2.24.87,1.2,2.06,1.15,3.27,1,.95-.12,1.8-.61,2.61-1.11.44-.28.69-.7.5-1.27-.14-.41-.26-.81-.4-1.22-.43-1.24.26-2.26,1.58-2.27.89,0,1.77-.03,2.63-.34.73-.26,1.27-.67,1.43-1.47.17-.84-.18-1.47-.8-2-.54-.46-1.2-.68-1.85-.9-1.54-.53-2.67-1.45-3.27-3.01-.73-1.9-2.01-2.79-3.74-2.74Zm4,10.27c-.55,1.04-.91,1.93-.34,3.03.57,1.1.41,1.29-.67,1.8-.21.1-.4.23-.61.33-1.95.94-4.49.58-4.36-2.47,0-.2,0-.4-.04-.59-.24-1.25-.23-1.2,1-1.45.69-.15.65.37.86.69.12.19.17.47.47.42.31-.05.27-.32.3-.54.04-.29.06-.61.18-.87.25-.55.75-.58,1.26-.44.58.15.09.43.06.65-.03.19-.12.44.09.54.34.16.32-.18.42-.37.27-.5.68-.77,1.37-.73Zm-2.84-6.55c.03-.4-.1-.94.52-.99.6-.04.63.51.65.92.04.54.69,1.4-.33,1.51-.78.08-.73-.83-.84-1.44Zm4.64,3.61c.02-.33.22-.51.55-.56.52-.07,1.42.68,1.49,1.23.04.34-.1.58-.44.65-.31.06-1.58-.99-1.6-1.32Zm-10.88-.3c.39.05.63.26.54.59-.14.51-.2,1.15-.87,1.27-.41.07-.59-.27-.54-.63.07-.56.27-1.07.87-1.23Zm4.54-.04c-.42-.02-.7-.24-.74-.65-.04-.46.23-.77.69-.79.46-.02.75.28.74.74,0,.42-.27.65-.69.7Zm-1.68-3.74c.03-.36.24-.65.65-.68.46-.03.77.24.78.7.01.46-.28.74-.75.73-.42-.01-.65-.27-.69-.75Z"/>
          <path class="cls-1" d="m642.84,73.8c.07,0-.05-.02-.15.01-1.53.41-2.8,1.36-3.86,2.38-.98.94-.22,2.55,1.26,3.28,1.27.62,1.35.75.43,1.74-.6.65-.88,1.3-.33,2,.57.72,1.47.86,2.37.78.31-.03.49-.25.62-.54.42-.97.15-2.17,1.06-2.97.03-.03-.01-.23-.07-.27-.18-.13-.32,0-.47.12-.64.54-.68,1.31-.83,2.04-.12.56-.04,1.28-1.08,1.03-1.38-.33-1.57-.72-.73-1.85.11-.14.22-.29.29-.46.28-.64.31-1.38,1.44-1.34.55.02,1.09-.61.65-1.47-.57-1.11-.33-2.24.23-3.3.56-1.07.53-1.17-.83-1.18Zm-2.07,4.5c-.37-.03-.62-.2-.65-.59-.03-.38.19-.62.56-.67.38-.06.67.13.71.5.05.42-.2.66-.62.76Z"/>
        </g>
        <path class="cls-2" d="m634.45,17.64l-5.64,26.56c-.61,2.86-2.3,5.21-4.54,6.7-2.24,1.48-5.04,2.1-7.85,1.51-2.82-.6-5.12-2.3-6.56-4.57-1.44-2.27-2.04-5.1-1.43-7.97.61-2.86,2.3-5.21,4.54-6.7,2.24-1.48,5.04-2.1,7.85-1.51,1.36.29,2.61.84,3.7,1.6.67.46,1.27,1,1.81,1.59l6.03-28.38c.09-.41.48-.67.89-.59.24.05.43.21.52.42,1.62,3.05,4.16,5,6.55,6.83,5.19,3.98,9.77,7.5,4.79,19.83-.16.38-.59.57-.97.42-.32-.13-.5-.47-.45-.8.62-4.51-.32-7.65-2.19-9.98-1.72-2.16-4.25-3.68-7.04-4.97h0Z"/>
        <path class="cls-2" d="m730.48,26.21l2.8,19.04c.3,2.07-.26,4.07-1.42,5.63h0c-1.16,1.56-2.91,2.68-4.98,2.98-2.07.3-4.07-.26-5.63-1.42h0c-1.56-1.16-2.67-2.92-2.98-4.99-.3-2.07.26-4.07,1.42-5.63h0c1.16-1.56,2.91-2.68,4.98-2.98,1-.15,1.99-.09,2.93.14.47.12.93.28,1.37.49l-3.22-21.89c-.05-.33.15-.64.45-.75l25.67-11.32c.35-.15.75,0,.9.35.02.06.04.12.05.18l4.15,28.17c.31,2.07-.26,4.07-1.41,5.63h0c-1.16,1.56-2.91,2.68-4.98,2.98s-4.07-.26-5.63-1.42l-.04-.04c-1.53-1.16-2.63-2.9-2.93-4.95-.3-2.05.26-4.07,1.42-5.63,1.15-1.56,2.91-2.68,4.98-2.98,1-.15,1.99-.09,2.93.14.47.12.93.28,1.37.49l-1.66-11.27-20.52,9.05h0Z"/>
        <path class="cls-5" d="m601.2,69.11c-2.2-4.06-4.38-8.09-5.69-12.56-1.01-3.43-1.04-3.7,2.34-4.29,2.28-.4,2.27-.85,1.05-2.85-2.13-3.49-4.02-7.13-5.87-10.78-.75-1.47.6-1.19,1.37-1.17.61.01,1.32.16,1.61-.47.36-.77-.61-.88-.9-1.35-2.57-4.25-5.29-8.43-7.66-12.79-1.73-3.19-4.38-3.83-6.52-.9-2.63,3.6-4.91,7.45-7.37,11.17-.66,1-1.41,1.95-2.17,2.88-.94,1.16-1.16,2.08.76,2.12,1.9.04,1.77,1.17,1.5,2.46-.7,3.4-2.7,6.06-4.88,8.61-1.29,1.5-1.03,2.8.81,2.8,2.71,0,1.84,1.55,1.53,2.83-1.06,4.45-2.88,8.61-5.29,12.48-1.06,1.7-.62,2.18,1.17,2.32,1.78.14,3.52.67,5.33.03.7-.25,1.53-.18,2.3-.17,4.03.07,4.58.62,4.36,4.53-.1,1.78-.39,3.54-.58,5.31-.09.85.12,1.88,1.12,1.44,2.7-1.21,5.21-.15,7.77.29,1.33.23,1.53-.03,1.09-1.27-.87-2.45-.92-5.02-1.01-7.6-.05-1.32.41-1.69,1.68-1.94,3.19-.63,6.35-1.13,9.61-.73.78.1,1.69.22,2.53-.4Zm-14.4,6.3c.06,1.29,0,2.5.2,3.67.18,1.04-.52,1.07-1.01.93-2.14-.61-4.25-1.05-6.44-.3-.39-2.19.45-4.31.37-6.49,0-.25.17-.5.15-.75-.12-1.39.4-1.82,1.87-1.83,4.43-.04,4.43-.12,4.8,4.37.01.17.06.34.07.4Zm-10.62-25.08c-.01-1.88,1.74-4.74,2.96-4.72,1.03,0,1.56.64,1.6,1.64.07,1.64-1.95,5.06-2.97,5.01-1.19-.06-1.58-.85-1.58-1.93Zm9-16.89c-.23-1.3-.05-2.18,1.11-2.46,1.09-.26,3.22,2.4,3.59,4.44.2,1.1-.24,2.06-1.35,1.97-2.47-.2-2.57-2.56-3.36-3.95Zm1.76,15.21c0-.17-.04-.68,0-1.18.09-.96.58-1.66,1.58-1.65.99,0,1.63.71,1.57,1.65-.09,1.55,1.53,3.37-.54,4.63-.78.48-1.46-.02-1.95-.69-.53-.72-.61-1.57-.67-2.76Zm-5.57,9.52c.13-1.22-.35-3.01,1.62-3.12,1.77-.1,1.76,1.52,1.81,2.79.06,1.37.17,3.01-1.77,3.04-1.63.03-1.58-1.45-1.67-2.71Zm-3.55-23.45c-.11-1.1,1.91-3.03,3.1-3.04.89,0,1.42.34,1.54.98.15.84-1.96,3.01-2.98,3.06-1.03.05-1.52-.4-1.66-1Zm-4.75,24.62c.27-1.31.78-2.65,2.57-2.83,1.02-.1,1.83.52,1.58,1.49-.37,1.44-.95,3.03-2.74,3.25-1.02.12-1.45-.72-1.41-1.91Zm8.93-19.05c.23-1.13.25-2.6,1.96-2.67,1.13-.04,1.65.87,1.52,1.9-.15,1.19,0,2.77-1.76,2.91-1.29.1-1.67-.9-1.72-2.14Zm10.33,19.44c.15,1.12-.08,2.12-1.22,2.22-1.85.17-2.06-1.49-2.43-2.73-.3-1.03.21-1.97,1.35-2,1.64-.04,1.93,1.37,2.3,2.51Z"/>
        <path class="cls-5" d="m745.27,64.14c2.24.44,3.37,1.59,4.66,2.45,5.24,3.51,11.03,3.45,16.98,2.78,3.14-.35,3.36-.05,2.71,2.83-.59,2.63-.98,5.3-2.26,7.76-.84,1.62-.43,2.41,1.7,2.39,3.09-.03,6.19.22,9.27.44,1.66.12,2.03-.37,1.77-1.99-.42-2.64-.45-5.34-.72-8.01-.12-1.16.07-1.52,1.44-1.24,7.24,1.47,14.51-.28,21.77,0,.53.02,1.4-.25,1.56-.62.29-.65-.37-1.1-.89-1.61-6.24-6.05-10.15-13.44-13.07-21.4-.64-1.76.15-2.13,1.8-2.26,3.12-.24,3.44-.86,1.8-3.58-4.15-6.9-8.43-13.73-12.56-20.65-1.27-2.12-2.42-1.57-3.65-.17-2.64,3-5.2,6.07-7.85,9.06-2.52,2.86-5.09,5.68-7.68,8.48-1.47,1.59-1.69,2.88.76,3.63,2.13.65,2.22,1.51.92,3.27-2.54,3.45-4.94,6.95-8.37,9.67-3.32,2.63-6,5.94-10.09,8.77Zm28.58,16.9c-.8-.01-1.6-.07-2.4-.04-2.18.1-3.04-.66-1.86-2.67,1.13-1.9,1.36-4.08,1.57-6.1.34-3.23,1.88-3.17,4.43-2.5,1.69.44,2.32,1.13,2.22,2.79-.08,1.33.09,2.68.26,4,.59,4.68.61,4.68-4.23,4.52Zm7.11-31.32c-.1-2.02.25-3.42,1.7-3.26,2.74.31,2.16,2.81,2.53,4.55.25,1.19-.56,2.25-1.85,2.02-2.25-.41-2.2-2.38-2.37-3.31Zm-6.22-12.98c-.32,1.43.11,3.87-2.51,3.61-2.62-.26-1.35-2.47-1.31-3.97,0-.1.02-.19.03-.29.17-1.26.66-2.36,2.2-2.2,1.6.17,1.62,1.45,1.59,2.84Zm6.66,21.98c-.59,1.05-.02,3.21-2.45,3.33-1.38.07-1.97-1.01-1.79-2.12.24-1.51.09-3.53,2.3-3.82,1.52-.2,1.94,1,1.94,2.61Zm-13.92-3.08c1.33.18,2.11.88,1.82,1.97-.45,1.67-1.09,3.44-3.27,3.63-1.22.11-1.89-.81-1.67-1.89.36-1.75,1.26-3.21,3.11-3.71Zm6.19-8.09c.27-1.32.09-3.19,2.37-3.2,1.42,0,1.83,1.14,1.62,2.27-.28,1.49.18,3.66-2.35,3.66-1.58,0-1.7-1.35-1.64-2.73Zm15.12,17.55c-1.8-.39-2.24-1.94-2.55-3.4-.22-1.04.49-1.97,1.66-1.9,2.12.14,2.6,1.85,2.81,3.46.14,1.05-.63,1.75-1.91,1.83Zm-10.06-28.31c.06-1.35.35-2.71,2.07-2.6,1.74.11,1.76,1.58,1.73,2.87-.03,1.35-.29,2.73-2.04,2.6-1.68-.13-1.81-1.54-1.76-2.87Zm-19.17,18.87c1.34.15,2.11.89,1.79,1.96-.44,1.48-1.23,3.01-3.11,3.11-1.17.07-1.81-.85-1.64-1.97.26-1.68,1.3-2.75,2.95-3.1Zm5.66-6.47c.21-1.18.56-2.48,2.21-2.51,1.41-.02,1.82,1.02,1.69,2.21-.14,1.31-.53,2.6-2.2,2.62-1.4.01-1.79-.99-1.7-2.31Z"/>
        <g>
          <path class="cls-1" d="m675.5,38.56c-2.04-.78-4.06-2.03-6.14-.08-1.37,1.28-2.05,2.75-1.13,4.54,1.08,2.09,2.82,3.09,5.06,2.05,1.82-.84,2.04-.33,2.23,1.42.14,1.28,1.24,2.42,1.61,3.71,1.43,4.9,1.07,9.89.1,14.79-1.1,5.54-4.05,10.07-8.34,13.73-.75.64-2.19,1.41-1.67,2.28.53.91,2.1.99,3.32.76,2.85-.53,5.69-1.15,8.54-1.68,2.3-.43,4.52-.35,6.82.44,2.99,1.02,6.31.4,10.06,1.83-1.07-1.51-1.55-2.63-2.39-3.31-3.85-3.1-4.29-7.6-4.48-11.89-.36-8.18-.91-16.41,1.29-24.49.24-.87.44-1.94,1.1-2.21,2.02-.83,2.2-2.66,2.81-4.3.28-.76,1.14-1.66-.04-2.18-1.03-.45-1.42.63-1.85,1.36-1.17,1.95-2.81,3.36-5.06,4.46-.04-3.65-.59-6.99-1.71-10.21-.36-1.05-.73-2.12-1.74-2.77-.46-.29-.96-.42-1.45-.11-.4.25-.59.72-.36,1.12,1.52,2.71.18,5.52.02,8.2-.18,3.05-.89,6.2-2.2,9.5-1.57-2.56-3.63-4.4-4.49-7.05l.09.09Z"/>
          <path class="cls-5" d="m692.25,18.22c3.3-.21,5.44-2.07,5.3-4.6-.16-2.91-2.81-5.44-5.53-5.28-3.06.18-5.4,2.5-5.23,5.2.18,2.83,2.55,4.87,5.46,4.68Z"/>
          <path class="cls-4" d="m676.12,55.52c2.61.91,5.3-.23,6.07-2.57.84-2.57-.32-4.77-3.07-5.78-1.96-.72-5.71,1.05-6.35,3-.43,1.33,1.74,4.79,3.35,5.35Z"/>
          <path class="cls-4" d="m668.72,30.56c2.11.03,4.26-2.04,4.33-4.18.06-1.87-2.58-4.27-4.71-4.28-2.13,0-4.42,2.15-4.43,4.16,0,2.32,2.16,4.26,4.8,4.3Z"/>
          <path class="cls-4" d="m701.94,25.11c-3.03.24-4.17,1.59-3.97,4.69.15,2.28,1.93,3.73,4.42,3.61,2.2-.11,4.33-2.32,4.2-4.36-.16-2.4-2.21-4.14-4.65-3.95Z"/>
          <path class="cls-4" d="m698.49,47.76c.06,2.5,1.94,4.54,4.23,4.58,2.19.04,4.83-2.41,4.82-4.48-.02-2.84-2.11-4.8-5.07-4.73-2.44.05-4.04,1.92-3.97,4.63Z"/>
          <path class="cls-5" d="m682.49,2.18c-1.79-.05-3.68,1.68-3.81,3.49-.13,1.96,1.77,4.57,3.35,4.61,1.67.04,3.88-2.52,3.89-4.52.02-2.18-1.27-3.52-3.44-3.58Z"/>
          <path class="cls-5" d="m689.51,51.51c.12,2.12,1.64,3.49,3.75,3.38,1.74-.09,3.35-1.9,3.26-3.67-.08-1.59-2.05-3.32-3.73-3.27-1.88.06-3.38,1.69-3.28,3.57Z"/>
          <path class="cls-5" d="m671.98,13.28c-1.52.07-2.21,1.38-2.32,3.17-.12,1.95,1.27,3.62,3.13,3.62,1.83,0,3.09-.87,3.26-2.84.17-1.93-1.61-3.88-4.08-3.95Z"/>
          <path class="cls-3" d="m660.67,47.21c-.06,2.2,1.25,3.81,3.07,3.71,1.89-.1,3.37-1.08,3.44-3.02.07-1.89-1.21-3.35-3.1-3.37-1.61-.02-3.55.35-3.41,2.67Z"/>
          <path class="cls-3" d="m691.42,35.23c-2.22-.04-2.7,1.73-3.09,3.31-.3,1.2,2.1,3.33,3.52,3.05,1.55-.3,2.8-1.38,2.95-3.08.18-2.02-1.16-3.21-3.38-3.28Z"/>
          <path class="cls-5" d="m710.61,39.04c.03-1.22-1.4-2.04-2.99-1.96-1.51.07-2.67,1.27-2.65,2.94.02,1.71,1.36,2.77,2.82,2.8,1.64.04,2.82-1.07,2.82-3.78Z"/>
          <path class="cls-5" d="m665.31,38.59c1.29-.08,2.09-1.09,2.02-2.49-.08-1.65-.87-3.03-2.83-2.91-1.72.11-2.68,1.45-2.72,2.9-.05,1.93,1.62,2.34,3.53,2.5Z"/>
          <path class="cls-3" d="m686.05,18.39c-.1-1.22-1.48-2.51-3.6-2.66-2.55-.18-3.84,1.76-3.89,3.86-.04,2,1.37,3.76,3.63,3.73,2.29-.03,3.87-1.29,3.86-4.94Z"/>
          <path class="cls-5" d="m691.56,28.02c2,.15,2.58-1.23,2.56-2.78-.01-1.47-.99-2.32-2.56-2.26-1.61.06-2.69.74-2.55,2.5.12,1.5.68,2.7,2.55,2.53Z"/>
          <path class="cls-5" d="m675.41,36.28c.79-.09,1.24.75,2.15.6,1.6-.28,2.65-1.01,2.5-2.66-.13-1.38-1.02-2.47-2.54-2.31-1.68.17-2.51,1.33-2.43,3.03.02.48.27.96.41,1.44,0,0-.1-.09-.1-.09Z"/>
          <path class="cls-5" d="m699.59,19.93c.18,1.23.71,2.24,2.14,2.35,1.49.11,1.85-.97,1.89-2.15.04-1.27-.64-2.18-1.91-2.25-1.24-.07-2.07.63-2.12,2.06Z"/>
          <path class="cls-5" d="m668,41.13c.01,2.35,1.76,4.19,3.95,4.14,2.41-.05,3.9-1.61,3.94-4.1.03-1.78-2.57-4.29-4.4-4.25-1.24.03-3.5,2.75-3.49,4.21Z"/>
        </g>
      </g>
      <g>
        <path class="cls-3" d="m86,79.63c.1,1.69.45,1.89,1.89,2.41,2.18.79,4.3-.32,6.44.16.53.12,1.08.16,1.62.22.4.04.8.04,1-.44.17-.42-.1-.74-.28-1.06-.19-.35-.53-.49-.83-.7-1.21-.84-1.45-2.64-.44-3.75,1.02-1.13,1.87-2.29,1.51-4.04-.04-.18-.04-.33.11-.45,1.11-.85.43-1.55-.14-2.31-.46-.61-1.15-1.08-1.16-2.01,0-.22-.26-.53-.32-.44-.66.94-1.31-.11-1.93.01-.48.1-.93.45-.87,1.16.06.74-.26,1.29-.73,1.79-1.18,1.25-1.48,1.23-2.36-.27-1.48-2.54-3.98-3.41-7.02-2.45-3.68,1.16-5.35,6.77-2.92,10.12,1.07,1.47,2.31,2.06,3.41,1.64,1.19-.45,2.17-1.49,2.22-3.44,0-.34-.07-.71.01-1.02.12-.48.29-1.09.88-.99.51.09.8.63.74,1.15-.09.75-.02,1.53-.44,2.23-.44.73-.5,1.6-.38,2.48Zm1-10.66c-.83.19-1.47-.03-2.11-.07-.24-.01-.48-.15-.46-.45.02-.32.3-.32.53-.36.73-.12,1.34.13,2.04.88Zm4.19,8.21c1.69.42,2.21,1.32,1.82,3.14.02-1.49-.52-2.58-1.82-3.14Zm-5.47-7.1c-.6.49-1.21.54-1.85.4-.18-.04-.23-.29-.13-.4.47-.55,1.08-.19,1.63-.23.09,0,.18.12.35.23Z"/>
        <path class="cls-2" d="m69.21,17.64l-5.64,26.56c-.61,2.86-2.3,5.21-4.54,6.7-2.24,1.48-5.04,2.1-7.85,1.51-2.82-.6-5.12-2.3-6.56-4.57-1.44-2.27-2.04-5.1-1.43-7.97.61-2.86,2.3-5.21,4.54-6.7,2.24-1.48,5.04-2.1,7.85-1.51,1.36.29,2.61.84,3.7,1.6.67.46,1.27,1,1.81,1.59l6.03-28.38c.09-.41.48-.67.89-.59.24.05.43.21.52.42,1.62,3.05,4.16,5,6.55,6.83,5.19,3.98,9.77,7.5,4.79,19.83-.16.38-.59.57-.97.42-.32-.13-.5-.47-.45-.8.62-4.51-.32-7.65-2.19-9.98-1.72-2.16-4.25-3.68-7.04-4.97h0Z"/>
        <path class="cls-2" d="m165.23,26.21l2.8,19.04c.3,2.07-.26,4.07-1.42,5.63h0c-1.16,1.56-2.91,2.68-4.98,2.98-2.07.3-4.07-.26-5.63-1.42h0c-1.56-1.16-2.67-2.92-2.98-4.99-.3-2.07.26-4.07,1.42-5.63h0c1.16-1.56,2.91-2.68,4.98-2.98,1-.15,1.99-.09,2.93.14.47.12.93.28,1.37.49l-3.22-21.89c-.05-.33.15-.64.45-.75l25.67-11.32c.35-.15.75,0,.9.35.02.06.04.12.05.18l4.15,28.17c.31,2.07-.26,4.07-1.41,5.63h0c-1.16,1.56-2.91,2.68-4.98,2.98s-4.07-.26-5.63-1.42l-.04-.04c-1.53-1.16-2.63-2.9-2.93-4.95-.3-2.05.26-4.07,1.42-5.63,1.15-1.56,2.91-2.68,4.98-2.98,1-.15,1.99-.09,2.93.14.47.12.93.28,1.37.49l-1.66-11.27-20.52,9.05h0Z"/>
        <path class="cls-5" d="m35.95,69.11c-2.2-4.06-4.38-8.09-5.69-12.56-1.01-3.43-1.04-3.7,2.34-4.29,2.28-.4,2.27-.85,1.05-2.85-2.13-3.49-4.02-7.13-5.87-10.78-.75-1.47.6-1.19,1.37-1.17.61.01,1.32.16,1.61-.47.36-.77-.61-.88-.9-1.35-2.57-4.25-5.29-8.43-7.66-12.79-1.73-3.19-4.38-3.83-6.52-.9-2.63,3.6-4.91,7.45-7.37,11.17-.66,1-1.41,1.95-2.17,2.88-.94,1.16-1.16,2.08.76,2.12,1.9.04,1.77,1.17,1.5,2.46-.7,3.4-2.7,6.06-4.88,8.61-1.29,1.5-1.03,2.8.81,2.8,2.71,0,1.84,1.55,1.53,2.83-1.06,4.45-2.88,8.61-5.29,12.48-1.06,1.7-.62,2.18,1.17,2.32,1.78.14,3.52.67,5.33.03.7-.25,1.53-.18,2.3-.17,4.03.07,4.58.62,4.36,4.53-.1,1.78-.39,3.54-.58,5.31-.09.85.12,1.88,1.12,1.44,2.7-1.21,5.21-.15,7.77.29,1.33.23,1.53-.03,1.09-1.27-.87-2.45-.92-5.02-1.01-7.6-.05-1.32.41-1.69,1.68-1.94,3.19-.63,6.35-1.13,9.61-.73.78.1,1.69.22,2.53-.4Zm-14.4,6.3c.06,1.29,0,2.5.2,3.67.18,1.04-.52,1.07-1.01.93-2.14-.61-4.25-1.05-6.44-.3-.39-2.19.45-4.31.37-6.49,0-.25.17-.5.15-.75-.12-1.39.4-1.82,1.87-1.83,4.43-.04,4.43-.12,4.8,4.37.01.17.06.34.07.4Zm-10.62-25.08c-.01-1.88,1.74-4.74,2.96-4.72,1.03,0,1.56.64,1.6,1.64.07,1.64-1.95,5.06-2.97,5.01-1.19-.06-1.58-.85-1.58-1.93Zm9-16.89c-.23-1.3-.05-2.18,1.11-2.46,1.09-.26,3.22,2.4,3.59,4.44.2,1.1-.24,2.06-1.35,1.97-2.47-.2-2.57-2.56-3.36-3.95Zm1.76,15.21c0-.17-.04-.68,0-1.18.09-.96.58-1.66,1.58-1.65.99,0,1.63.71,1.57,1.65-.09,1.55,1.53,3.37-.54,4.63-.78.48-1.46-.02-1.95-.69-.53-.72-.61-1.57-.67-2.76Zm-5.57,9.52c.13-1.22-.35-3.01,1.62-3.12,1.77-.1,1.76,1.52,1.81,2.79.06,1.37.17,3.01-1.77,3.04-1.63.03-1.58-1.45-1.67-2.71Zm-3.55-23.45c-.11-1.1,1.91-3.03,3.1-3.04.89,0,1.42.34,1.54.98.15.84-1.96,3.01-2.98,3.06-1.03.05-1.52-.4-1.66-1Zm-4.75,24.62c.27-1.31.78-2.65,2.57-2.83,1.02-.1,1.83.52,1.58,1.49-.37,1.44-.95,3.03-2.74,3.25-1.02.12-1.45-.72-1.41-1.91Zm8.93-19.05c.23-1.13.25-2.6,1.96-2.67,1.13-.04,1.65.87,1.52,1.9-.15,1.19,0,2.77-1.76,2.91-1.29.1-1.67-.9-1.72-2.14Zm10.33,19.44c.15,1.12-.08,2.12-1.22,2.22-1.85.17-2.06-1.49-2.43-2.73-.3-1.03.21-1.97,1.35-2,1.64-.04,1.93,1.37,2.3,2.51Z"/>
        <g>
          <path class="cls-1" d="m141.63,68.63c2.14.06,3.35,1.02,3.78,3.14.33,1.59,1.37,2.62,2.66,3.38,1.39.82,1.34,1.92,1.17,3.06-.14.92-1.25,1.71-2.34,1.81-.33.03-.66.03-.99.01-1.66-.1-1.73-.03-1.8,1.7-.03.78-.03,1.53-.54,2.24-.87,1.2-2.06,1.15-3.27,1-.95-.12-1.8-.61-2.61-1.11-.44-.28-.69-.7-.5-1.27.14-.41.26-.81.4-1.22.43-1.24-.26-2.26-1.58-2.27-.89,0-1.77-.03-2.63-.34-.73-.26-1.27-.67-1.43-1.47-.17-.84.18-1.47.8-2,.54-.46,1.2-.68,1.85-.9,1.54-.53,2.67-1.45,3.27-3.01.73-1.9,2.01-2.79,3.74-2.74Zm-4,10.27c.55,1.04.91,1.93.34,3.03-.57,1.1-.41,1.29.67,1.8.21.1.4.23.61.33,1.95.94,4.49.58,4.36-2.47,0-.2,0-.4.04-.59.24-1.25.23-1.2-1-1.45-.69-.15-.65.37-.86.69-.12.19-.17.47-.47.42-.31-.05-.27-.32-.3-.54-.04-.29-.06-.61-.18-.87-.25-.55-.75-.58-1.26-.44-.58.15-.09.43-.06.65.03.19.12.44-.09.54-.34.16-.32-.18-.42-.37-.27-.5-.68-.77-1.37-.73Zm2.84-6.55c-.03-.4.1-.94-.52-.99-.6-.04-.63.51-.65.92-.04.54-.69,1.4.33,1.51.78.08.73-.83.84-1.44Zm-4.64,3.61c-.02-.33-.22-.51-.55-.56-.52-.07-1.42.68-1.49,1.23-.04.34.1.58.44.65.31.06,1.58-.99,1.6-1.32Zm10.88-.3c-.39.05-.63.26-.54.59.14.51.2,1.15.87,1.27.41.07.59-.27.54-.63-.07-.56-.27-1.07-.87-1.23Zm-4.54-.04c.42-.02.7-.24.74-.65.04-.46-.23-.77-.69-.79-.46-.02-.75.28-.74.74,0,.42.27.65.69.7Zm1.68-3.74c-.03-.36-.24-.65-.65-.68-.46-.03-.77.24-.78.7-.01.46.28.74.75.73.42-.01.65-.27.69-.75Z"/>
          <path class="cls-1" d="m150.08,73.8c-.07,0,.05-.02.15.01,1.53.41,2.8,1.36,3.86,2.38.98.94.22,2.55-1.26,3.28-1.27.62-1.35.75-.43,1.74.6.65.88,1.3.33,2-.57.72-1.47.86-2.37.78-.31-.03-.49-.25-.62-.54-.42-.97-.15-2.17-1.06-2.97-.03-.03.01-.23.07-.27.18-.13.32,0,.47.12.64.54.68,1.31.83,2.04.12.56.04,1.28,1.08,1.03,1.38-.33,1.57-.72.73-1.85-.11-.14-.22-.29-.29-.46-.28-.64-.31-1.38-1.44-1.34-.55.02-1.09-.61-.65-1.47.57-1.11.33-2.24-.23-3.3-.56-1.07-.53-1.17.83-1.18Zm2.07,4.5c.37-.03.62-.2.65-.59.03-.38-.19-.62-.56-.67-.38-.06-.67.13-.71.5-.05.42.2.66.62.76Z"/>
        </g>
        <path class="cls-5" d="m180.02,64.14c2.24.44,3.37,1.59,4.66,2.45,5.24,3.51,11.03,3.45,16.98,2.78,3.14-.35,3.36-.05,2.71,2.83-.59,2.63-.98,5.3-2.26,7.76-.84,1.62-.43,2.41,1.7,2.39,3.09-.03,6.19.22,9.27.44,1.66.12,2.03-.37,1.77-1.99-.42-2.64-.45-5.34-.72-8.01-.12-1.16.07-1.52,1.44-1.24,7.24,1.47,14.51-.28,21.77,0,.53.02,1.4-.25,1.56-.62.29-.65-.37-1.1-.89-1.61-6.24-6.05-10.15-13.44-13.07-21.4-.64-1.76.15-2.13,1.8-2.26,3.12-.24,3.44-.86,1.8-3.58-4.15-6.9-8.43-13.73-12.56-20.65-1.27-2.12-2.42-1.57-3.65-.17-2.64,3-5.2,6.07-7.85,9.06-2.52,2.86-5.09,5.68-7.68,8.48-1.47,1.59-1.69,2.88.76,3.63,2.13.65,2.22,1.51.92,3.27-2.54,3.45-4.94,6.95-8.37,9.67-3.32,2.63-6,5.94-10.09,8.77Zm28.58,16.9c-.8-.01-1.6-.07-2.4-.04-2.18.1-3.04-.66-1.86-2.67,1.13-1.9,1.36-4.08,1.57-6.1.34-3.23,1.88-3.17,4.43-2.5,1.69.44,2.32,1.13,2.22,2.79-.08,1.33.09,2.68.26,4,.59,4.68.61,4.68-4.23,4.52Zm7.11-31.32c-.1-2.02.25-3.42,1.7-3.26,2.74.31,2.16,2.81,2.53,4.55.25,1.19-.56,2.25-1.85,2.02-2.25-.41-2.2-2.38-2.37-3.31Zm-6.22-12.98c-.32,1.43.11,3.87-2.51,3.61-2.62-.26-1.35-2.47-1.31-3.97,0-.1.02-.19.03-.29.17-1.26.66-2.36,2.2-2.2,1.6.17,1.62,1.45,1.59,2.84Zm6.66,21.98c-.59,1.05-.02,3.21-2.45,3.33-1.38.07-1.97-1.01-1.79-2.12.24-1.51.09-3.53,2.3-3.82,1.52-.2,1.94,1,1.94,2.61Zm-13.92-3.08c1.33.18,2.11.88,1.82,1.97-.45,1.67-1.09,3.44-3.27,3.63-1.22.11-1.89-.81-1.67-1.89.36-1.75,1.26-3.21,3.11-3.71Zm6.19-8.09c.27-1.32.09-3.19,2.37-3.2,1.42,0,1.83,1.14,1.62,2.27-.28,1.49.18,3.66-2.35,3.66-1.58,0-1.7-1.35-1.64-2.73Zm15.12,17.55c-1.8-.39-2.24-1.94-2.55-3.4-.22-1.04.49-1.97,1.66-1.9,2.12.14,2.6,1.85,2.81,3.46.14,1.05-.63,1.75-1.91,1.83Zm-10.06-28.31c.06-1.35.35-2.71,2.07-2.6,1.74.11,1.76,1.58,1.73,2.87-.03,1.35-.29,2.73-2.04,2.6-1.68-.13-1.81-1.54-1.76-2.87Zm-19.17,18.87c1.34.15,2.11.89,1.79,1.96-.44,1.48-1.23,3.01-3.11,3.11-1.17.07-1.81-.85-1.64-1.97.26-1.68,1.3-2.75,2.95-3.1Zm5.66-6.47c.21-1.18.56-2.48,2.21-2.51,1.41-.02,1.82,1.02,1.69,2.21-.14,1.31-.53,2.6-2.2,2.62-1.4.01-1.79-.99-1.7-2.31Z"/>
        <path class="cls-1" d="m122.21,38.56c2.04-.78,4.06-2.03,6.14-.08,1.37,1.28,2.05,2.75,1.13,4.54-1.08,2.09-2.82,3.09-5.06,2.05-1.82-.84-2.04-.33-2.23,1.42-.14,1.28-1.24,2.42-1.61,3.71-1.43,4.9-1.07,9.89-.1,14.79,1.1,5.54,4.05,10.07,8.34,13.73.75.64,2.19,1.41,1.67,2.28-.53.91-2.1.99-3.32.76-2.85-.53-5.69-1.15-8.54-1.68-2.3-.43-4.52-.35-6.82.44-2.99,1.02-6.31.4-10.06,1.83,1.07-1.51,1.55-2.63,2.39-3.31,3.85-3.1,4.29-7.6,4.48-11.89.36-8.18.91-16.41-1.29-24.49-.24-.87-.44-1.94-1.1-2.21-2.02-.83-2.2-2.66-2.81-4.3-.28-.76-1.14-1.66.04-2.18,1.03-.45,1.42.63,1.85,1.36,1.17,1.95,2.81,3.36,5.06,4.46.04-3.65.59-6.99,1.71-10.21.36-1.05.73-2.12,1.74-2.77.46-.29.96-.42,1.45-.11.4.25.59.72.36,1.12-1.52,2.71-.18,5.52-.02,8.2.18,3.05.89,6.2,2.2,9.5,1.57-2.56,3.63-4.4,4.49-7.05l-.09.09Z"/>
        <path class="cls-5" d="m105.46,18.22c-3.3-.21-5.44-2.07-5.3-4.6.16-2.91,2.81-5.44,5.53-5.28,3.06.18,5.4,2.5,5.23,5.2-.18,2.83-2.55,4.87-5.46,4.68Z"/>
        <path class="cls-4" d="m121.59,55.52c-2.61.91-5.3-.23-6.07-2.57-.84-2.57.32-4.77,3.07-5.78,1.96-.72,5.71,1.05,6.35,3,.43,1.33-1.74,4.79-3.35,5.35Z"/>
        <path class="cls-4" d="m128.99,30.56c-2.11.03-4.26-2.04-4.33-4.18-.06-1.87,2.58-4.27,4.71-4.28,2.13,0,4.42,2.15,4.43,4.16,0,2.32-2.16,4.26-4.8,4.3Z"/>
        <path class="cls-4" d="m95.77,25.11c3.03.24,4.17,1.59,3.97,4.69-.15,2.28-1.93,3.73-4.42,3.61-2.2-.11-4.33-2.32-4.2-4.36.16-2.4,2.21-4.14,4.65-3.95Z"/>
        <path class="cls-4" d="m99.22,47.76c-.06,2.5-1.94,4.54-4.23,4.58-2.19.04-4.83-2.41-4.82-4.48.02-2.84,2.11-4.8,5.07-4.73,2.44.05,4.04,1.92,3.97,4.63Z"/>
        <path class="cls-5" d="m115.22,2.18c1.79-.05,3.68,1.68,3.81,3.49.13,1.96-1.77,4.57-3.35,4.61-1.67.04-3.88-2.52-3.89-4.52-.02-2.18,1.27-3.52,3.44-3.58Z"/>
        <path class="cls-5" d="m108.21,51.51c-.12,2.12-1.64,3.49-3.75,3.38-1.74-.09-3.35-1.9-3.26-3.67.08-1.59,2.05-3.32,3.73-3.27,1.88.06,3.38,1.69,3.28,3.57Z"/>
        <path class="cls-5" d="m125.74,13.28c1.52.07,2.21,1.38,2.32,3.17.12,1.95-1.27,3.62-3.13,3.62-1.83,0-3.09-.87-3.26-2.84-.17-1.93,1.61-3.88,4.08-3.95Z"/>
        <path class="cls-3" d="m137.04,47.21c.06,2.2-1.25,3.81-3.07,3.71-1.89-.1-3.37-1.08-3.44-3.02-.07-1.89,1.21-3.35,3.1-3.37,1.61-.02,3.55.35,3.41,2.67Z"/>
        <path class="cls-3" d="m106.3,35.23c2.22-.04,2.7,1.73,3.09,3.31.3,1.2-2.1,3.33-3.52,3.05-1.55-.3-2.8-1.38-2.95-3.08-.18-2.02,1.16-3.21,3.38-3.28Z"/>
        <path class="cls-5" d="m87.1,39.04c-.03-1.22,1.4-2.04,2.99-1.96,1.51.07,2.67,1.27,2.65,2.94-.02,1.71-1.36,2.77-2.82,2.8-1.64.04-2.82-1.07-2.82-3.78Z"/>
        <path class="cls-5" d="m132.4,38.59c-1.29-.08-2.09-1.09-2.02-2.49.08-1.65.87-3.03,2.83-2.91,1.72.11,2.68,1.45,2.72,2.9.05,1.93-1.62,2.34-3.53,2.5Z"/>
        <path class="cls-3" d="m111.66,18.39c.1-1.22,1.48-2.51,3.6-2.66,2.55-.18,3.84,1.76,3.89,3.86.04,2-1.37,3.76-3.63,3.73-2.29-.03-3.87-1.29-3.86-4.94Z"/>
        <path class="cls-5" d="m106.16,28.02c-2,.15-2.58-1.23-2.56-2.78.01-1.47.99-2.32,2.56-2.26,1.61.06,2.69.74,2.55,2.5-.12,1.5-.68,2.7-2.55,2.53Z"/>
        <path class="cls-5" d="m122.3,36.28c-.79-.09-1.24.75-2.15.6-1.6-.28-2.65-1.01-2.5-2.66.13-1.38,1.02-2.47,2.54-2.31,1.68.17,2.51,1.33,2.43,3.03-.02.48-.27.96-.41,1.44,0,0,.1-.09.1-.09Z"/>
        <path class="cls-5" d="m98.12,19.93c-.18,1.23-.71,2.24-2.14,2.35-1.49.11-1.85-.97-1.89-2.15-.04-1.27.64-2.18,1.91-2.25,1.24-.07,2.07.63,2.12,2.06Z"/>
        <path class="cls-5" d="m129.71,41.13c-.01,2.35-1.76,4.19-3.95,4.14-2.41-.05-3.9-1.61-3.94-4.1-.03-1.78,2.57-4.29,4.4-4.25,1.24.03,3.5,2.75,3.49,4.21Z"/>
      </g>
    </g>
  </g>
</svg>