<svg width="70" height="67" viewBox="0 0 70 67" fill="none" xmlns="http://www.w3.org/2000/svg">
<g clip-path="url(#clip0_408_1897)">
<path d="M22.731 50.171C22.1209 50.7107 21.9723 51.8215 22.6215 52.3846C23.1143 52.807 23.8809 52.6271 24.3893 52.3142C25.0229 51.9153 25.1324 51.1566 24.7491 50.523C24.3111 49.7955 23.3803 49.6 22.7388 50.171H22.731Z" fill="white"/>
<path d="M22.5824 24.9134C22.6372 23.7323 21.9957 22.5746 20.8615 22.1913C20.7755 22.16 20.6816 22.1366 20.5878 22.1131V27.3148C20.5878 27.3148 22.4964 26.8142 22.5824 24.9134Z" fill="white"/>
<path d="M24.225 9.05797C24.0999 8.573 23.6149 8.39309 23.3803 8.46349C23.3803 8.46349 20.8537 8.90153 20.666 13.6574C20.666 13.6574 24.2329 11.4437 24.2172 9.05797H24.225Z" fill="white"/>
<path d="M16.9662 26.9158C18.7261 27.6746 19.5866 27.5103 19.5866 27.5103L19.6413 21.9801C19.6413 21.9801 17.6154 22.3321 17.6467 23.8261C17.6701 24.7413 18.1238 25.2497 18.4054 25.4766C18.5306 25.5783 18.6166 25.6565 18.6166 25.6565C18.6166 25.6565 19.0859 26.1023 18.601 26.3057C18.1082 26.5091 17.5293 25.8129 17.5293 25.8129C17.5293 25.8129 15.347 23.6071 17.0522 21.2605C18.1473 19.7273 19.61 19.6569 19.61 19.6569L19.6804 17.3651C19.6804 17.3651 16.2387 19.2736 15.4096 20.8224C14.5726 22.3712 14.6273 23.2394 14.6273 23.2394C14.6273 23.2394 14.4396 25.5235 16.9662 26.9315V26.9158Z" fill="white"/>
<path d="M48.0199 26.3213C47.0421 25.4609 45.6498 25.4609 44.9067 26.3213C44.1949 27.1427 44.1871 28.449 44.8832 29.0669C45.7593 29.8491 47.2299 29.8178 47.9417 28.9887C48.7161 28.0735 49.029 27.0879 48.0199 26.3213Z" fill="white"/>
<path d="M59.096 34.1748C58.1417 34.1591 57.4925 34.7927 57.4846 35.747C57.4768 36.9438 58.0322 37.6243 59.0412 37.6243C60.105 37.6243 60.8403 37.0768 60.7934 36.2007C60.7308 35.0274 60.3241 34.1279 59.1038 34.1748H59.096Z" fill="white"/>
<path d="M69.077 27.4243C68.0992 24.0764 66.2219 20.6816 63.054 18.1395C59.886 15.5895 55.4744 13.9859 49.7955 14.0016C47.9964 14.0016 46.5493 13.7982 45.3447 13.4775C43.2484 12.8986 41.8483 11.9678 40.495 10.7476C39.486 9.83238 38.5395 8.72947 37.4679 7.54833C35.8643 5.78836 33.9558 3.83283 31.1398 2.37792C28.316 0.907364 24.6787 0 19.743 0C8.83898 0 0 8.83898 0 19.743V58.1026C0 62.7489 3.76243 66.5192 8.41658 66.5192H61.5834C66.2376 66.5192 70 62.7489 70 58.1026V33.9557C70 31.8985 69.7341 29.6614 69.077 27.4243ZM19.6961 14.1502C19.5318 13.6965 19.7586 11.694 19.8525 10.9353C19.8916 10.6928 19.9307 10.4503 19.9933 10.2157C20.2358 9.31612 20.9632 7.22762 22.5355 5.98391C23.5524 5.18605 24.1703 5.77271 24.4832 6.28115C24.6318 6.52363 24.7257 6.78959 24.7804 7.07118C24.9212 7.72824 25.2498 9.4491 25.0777 10.5833C24.3971 15.1358 20.6738 16.8645 20.6738 16.8645L20.5878 19.5944L20.9163 19.6413C21.6125 19.7586 22.2774 20.0168 22.8405 20.4392C23.6853 21.0649 24.5301 22.1835 24.3502 24.1077C23.9904 27.745 20.6034 28.2221 20.6034 28.2221C20.7364 29.3407 20.5643 31.3041 20.4861 32.1254C20.4548 32.4617 20.3922 32.7903 20.2749 33.0953C19.2267 35.8096 15.9414 35.043 15.9414 35.043C15.9414 35.043 13.9625 34.6519 13.4775 32.4852C12.9925 30.3185 15.0888 29.8804 15.0888 29.8804C15.0888 29.8804 17.0444 29.591 17.4276 31.3275C17.9204 33.5803 15.4095 33.6272 15.4095 33.6272C15.4095 33.6272 16.004 34.1748 16.8957 34.2452C20.5643 34.4642 19.5553 28.4412 19.5553 28.4412C16.6141 28.5272 13.7434 26.6968 13.2741 22.6137C12.7422 17.9439 19.7273 14.1502 19.7273 14.1502H19.6961ZM26.9237 55.7951V61.1297C26.9237 62.3578 25.9772 63.359 24.8117 63.359H12.4215C11.256 63.359 10.3095 62.3656 10.3095 61.1297V47.7148C10.3095 43.092 13.6809 39.1418 18.0691 38.8915C18.2959 38.8759 18.5227 38.8759 18.7574 38.8759C18.9608 38.8759 19.1642 38.8837 19.3597 38.8993C23.6619 39.22 26.9237 43.1545 26.9237 47.6992V55.7872V55.7951ZM33.8071 62.7411C33.8071 63.0461 33.5568 63.2886 33.2596 63.2886C32.9623 63.2886 32.712 63.0461 32.712 62.7411V44.5469C32.712 44.2418 32.9623 43.9993 33.2596 43.9993C33.5568 43.9993 33.8071 44.2418 33.8071 44.5469V62.7411ZM36.6466 38.1093C36.1147 37.945 35.747 37.6634 35.3481 37.288C34.9335 36.9047 34.5268 36.5214 34.3312 35.9739C34.1748 35.5436 34.0731 35.0508 34.0809 34.5893C34.0809 34.3077 34.1435 34.034 34.2295 33.7602C34.253 33.6898 34.2686 33.6038 34.3077 33.5412C34.3547 33.4708 34.4407 33.3534 34.4955 33.2987C34.7223 33.111 35.4185 33.3143 35.7001 33.3613C36.2476 33.4473 36.717 33.5412 37.2019 33.8071C37.7182 34.0887 38.211 34.4642 38.6647 34.8396C39.439 35.4811 39.9006 36.5136 39.3921 37.4757L38.4691 38.2892C37.8355 38.3674 37.2645 38.2892 36.6544 38.1015L36.6466 38.1093ZM42.1455 61.4974C42.1455 62.4908 41.3398 63.2886 40.3542 63.2886C39.3686 63.2886 38.563 62.483 38.563 61.4974V52.1969C38.563 51.399 39.0871 50.7342 39.8067 50.4995V40.1743C39.8067 39.9162 40.057 39.7128 40.3542 39.7128C40.6515 39.7128 40.9018 39.9162 40.9018 40.1743V50.4995C41.6214 50.7342 42.1455 51.399 42.1455 52.1969V61.4974ZM49.2401 61.4974C49.2401 62.4908 48.4345 63.2886 47.4489 63.2886C46.4633 63.2886 45.6576 62.483 45.6576 61.4974V52.1969C45.6576 51.399 46.1817 50.7342 46.9013 50.4995V39.2904C46.9013 39.0636 47.1516 38.8759 47.4489 38.8759C47.7461 38.8759 47.9964 39.0636 47.9964 39.2904V50.4995C48.7161 50.7342 49.2401 51.399 49.2401 52.1969V61.4974ZM49.1228 32.8294C48.4423 32.4852 48.5831 32.3209 48.0434 33.1188C47.1829 34.3938 46.0878 35.3246 44.453 35.2464C43.0059 35.176 41.8874 34.472 41.0817 33.2518C40.4872 32.36 39.9944 31.4527 40.0648 30.3263C40.0883 29.9274 40.1587 29.5441 40.2838 29.1764C40.3777 28.9027 40.3073 28.7306 40.1117 28.5507C39.22 27.7606 38.7898 26.7751 38.8133 25.5705C38.8289 24.9525 38.8211 24.3424 39.0401 23.7557C39.2904 23.0596 39.7285 22.5589 40.3933 22.1757C41.0113 21.8158 41.6918 21.6829 42.3332 21.4169C43.2875 21.018 44.148 21.503 44.9693 21.8784C45.3917 22.074 45.6498 22.0036 45.9079 21.7142C46.9326 20.58 48.2154 20.2045 49.7016 20.4079C50.3509 20.4939 50.8593 20.885 51.3443 21.2761C52.3768 22.0662 52.4707 23.1847 52.3925 24.3346C52.3533 24.9056 52.2908 25.4844 52.0717 26.032C51.9779 26.2588 52.0405 26.4231 52.2517 26.5404C52.369 26.603 52.4785 26.6968 52.6036 26.7516C54.2932 27.5886 54.434 30.0447 53.5579 31.2337C53.2372 31.6717 53.0026 32.1801 52.5958 32.5478C51.5164 33.5255 50.523 33.5255 49.1228 32.8215V32.8294ZM56.327 61.4974C56.327 62.4908 55.5213 63.2886 54.5357 63.2886C53.5501 63.2886 52.7444 62.483 52.7444 61.4974V52.1969C52.7444 51.399 53.2685 50.7342 53.9882 50.4995V43.8585C53.9882 43.5535 54.2385 43.311 54.5357 43.311C54.8329 43.311 55.0833 43.5535 55.0833 43.8585V50.4995C55.8029 50.7342 56.327 51.399 56.327 52.1969V61.4974ZM62.1779 62.7411C62.1779 63.0461 61.9276 63.2886 61.6304 63.2886C61.3331 63.2886 61.0828 63.0461 61.0828 62.7411V42.9042C61.0828 42.5992 61.3331 42.3567 61.6304 42.3567C61.9276 42.3567 62.1779 42.5992 62.1779 42.9042V62.7411ZM63.9222 33.1031C63.7345 34.0496 63.2104 34.8475 62.7646 35.6688C62.5612 36.0521 62.6081 36.2633 62.8819 36.5918C63.5233 37.3662 63.8127 38.3205 63.8597 39.3139C63.8753 39.6737 63.5389 39.9709 63.1087 39.9788C62.8193 39.9866 62.5299 39.9631 62.2327 39.9553C61.6147 39.9553 61.0124 39.8614 60.4257 39.6894C59.4245 39.3999 58.8691 40.1039 58.2121 40.5967C57.9383 40.8079 57.7037 41.0973 57.3438 41.1599C56.6633 41.2851 56.0767 40.8079 56.0219 40.0335C55.9828 39.4782 55.8107 38.915 56.0375 38.3439C56.1705 38.0076 55.9906 37.7729 55.6856 37.6321C55.2241 37.4209 54.7625 37.2019 54.301 37.0064C53.6753 36.7482 53.378 35.5202 54.1211 35.1212C54.4653 34.9413 54.7234 34.5815 55.0754 34.4407C56.2253 33.9792 56.5538 32.9936 56.7963 31.9376C56.8745 31.5935 56.9058 31.2337 56.9762 30.8895C57.1092 30.2637 57.7349 30.0056 58.2825 30.3419C58.8222 30.6783 59.2211 31.1554 59.6279 31.6326C59.933 31.9846 60.2146 32.2114 60.7152 32.0315C61.3488 31.8125 62.0293 31.8203 62.6863 31.7186C63.4764 31.6013 64.063 32.2975 63.9144 33.0797L63.9222 33.1031Z" fill="white"/>
</g>
<defs>
<clipPath id="clip0_408_1897">
<rect width="70" height="66.5192" fill="white"/>
</clipPath>
</defs>
</svg>
