<svg width="78" height="131" viewBox="0 0 78 131" fill="none" xmlns="http://www.w3.org/2000/svg">
<path d="M11.1541 76.2981C11.1541 76.2981 11.197 76.4912 11.2828 76.5984C11.2185 76.4912 11.1756 76.4053 11.1541 76.3195V76.2981Z" fill="#009479"/>
<path d="M64.9213 78.272C62.7543 70.9127 62.69 70.3334 69.9419 69.0676C74.8338 68.2093 74.8123 67.2438 72.1947 62.9527C67.6247 55.4648 63.5696 47.655 59.6004 39.8237C57.9912 36.6698 60.8877 37.2705 62.5398 37.3134C63.8485 37.3349 65.3719 37.6567 65.9941 36.305C66.7665 34.6529 64.6853 34.4169 64.0631 33.4085C58.549 24.2899 52.7131 15.3215 47.6282 5.96694C43.9164 -0.877359 38.2307 -2.25051 33.6392 4.03595C27.9964 11.7599 23.1046 20.0203 17.8265 28.0017C16.4104 30.1473 14.8013 32.1856 13.1707 34.1809C11.1539 36.6698 10.6818 38.6437 14.8013 38.7295C18.8778 38.8153 18.5989 41.2398 18.0196 44.0075C16.5177 51.3024 12.2266 57.0096 7.54933 62.4807C4.78157 65.699 5.33941 68.4883 9.28722 68.4883C15.1017 68.4883 13.235 71.8139 12.5699 74.5602C10.2956 84.1079 6.39073 93.0333 1.21996 101.337C-1.05433 104.984 -0.110284 106.014 3.73025 106.314C7.54933 106.615 11.2826 107.752 15.166 106.379C16.6679 105.842 18.4487 105.992 20.1008 106.014C28.7474 106.164 29.9274 107.344 29.4554 115.733C29.2408 119.552 28.6186 123.329 28.211 127.126C28.0179 128.95 28.4684 131.16 30.614 130.216C36.407 127.62 41.7923 129.894 47.2849 130.838C50.1385 131.331 50.5676 130.774 49.6236 128.113C47.7569 122.856 47.6496 117.342 47.4565 111.807C47.3493 108.975 48.3362 108.181 51.0611 107.645C57.9054 106.293 64.6853 105.22 71.6798 106.078C73.3533 106.293 75.3058 106.55 77.108 105.22C72.3878 96.5091 67.7105 87.8626 64.8999 78.272H64.9213ZM17.8694 84.1937C17.8051 86.1247 17.7621 88.0557 17.6978 89.9867C15.8526 90.4587 15.3162 90.1583 15.2733 88.5277C15.2304 87.4764 15.2519 86.425 15.3377 85.3952C15.4664 83.6787 15.8955 83.4427 17.7407 83.8289C17.8909 83.8718 17.9767 83.9362 17.9552 84.022C17.9552 84.1293 17.9123 84.1937 17.8694 84.1937ZM43.616 38.4077C44.0237 37.3349 44.8175 37.3349 45.6972 37.6782C46.2765 38.4506 46.2765 39.3302 46.298 40.2314C46.3194 41.4758 46.3623 42.7202 46.3623 43.9432C46.3623 44.7799 45.9761 45.1661 45.311 45.209C44.603 45.252 44.1739 44.8872 44.088 44.1148C43.9164 42.8919 43.7877 41.6474 43.6375 40.4245V38.4077H43.616ZM42.4145 68.7457C42.4574 67.4584 42.8436 67.2009 44.5386 67.2224C45.075 68.1879 45.0964 69.2607 45.2252 70.312C45.2252 71.728 45.2252 73.1441 45.2466 74.5602C45.0106 74.9035 44.7961 75.2467 44.5601 75.6115C43.38 75.5686 42.6505 74.8605 42.3716 73.5303C42.3716 71.9426 42.3287 70.3549 42.3716 68.7672L42.4145 68.7457ZM41.9425 47.8481C41.9425 47.8481 41.8781 47.8481 41.8567 47.8481C41.8781 47.8481 41.921 47.8481 41.9425 47.8481ZM40.5264 58.7046C40.3548 58.962 40.1188 59.1551 39.8613 59.3268C39.2391 59.5628 38.6812 59.5628 38.2307 58.962C37.9303 58.4256 37.6514 57.8892 37.6728 57.2456C37.7158 55.9368 37.6728 54.6066 37.7158 53.2978C37.7801 51.8388 38.102 51.5813 39.7111 51.6028C39.8613 51.6028 39.99 51.6242 40.1402 51.6457V51.5384C40.1402 51.5384 40.2046 51.6242 40.2475 51.6457C40.4406 53.9843 41.5992 56.2801 40.5264 58.6831V58.7046ZM40.3762 84.2366C40.4191 85.9959 40.3548 87.7553 40.3333 89.5146C39.3035 89.9867 38.4238 89.815 37.6728 88.9783C37.6728 87.3691 37.6514 85.7814 37.6299 84.1722C37.9089 83.8289 38.1234 83.3784 38.4882 83.1853C39.4322 82.7133 40.3548 83.1853 40.3762 84.2151V84.2366ZM37.351 27.8516C37.3939 27.401 37.2866 26.929 37.6085 26.5428C37.6085 26.2209 37.6514 25.8991 37.6514 25.5987C37.9089 25.234 37.8016 24.719 38.2092 24.4401V24.483C38.6812 23.9681 39.1962 24.0968 39.7326 24.3972C39.9257 24.5903 40.0973 24.7834 40.2904 24.9765C40.9984 26.5213 40.1402 28.2377 40.8053 29.7825C40.8053 29.7825 40.7624 29.9542 40.741 30.04C40.0759 32.1641 39.7969 32.2928 37.6514 31.3059C36.8361 30.2117 36.9434 29.0316 37.351 27.8516ZM35.4629 67.2224C35.9135 67.4155 35.7204 67.9519 36.0422 68.2093C36.0422 68.5526 36.0637 68.8959 36.0851 69.2392C35.9564 70.8055 35.8277 72.3717 35.656 73.938C35.4844 75.5471 35.0553 75.7617 33.3817 75.118C33.3817 73.0368 33.3388 70.9342 33.4032 68.853C33.4461 67.5228 33.7894 67.3297 35.4844 67.2653L35.4629 67.2224ZM35.5702 80.9539C35.5702 80.9539 35.5273 80.9968 35.5058 81.0397V80.9968C35.5058 80.9968 35.5058 80.9968 35.5058 80.9754H35.5487L35.5702 80.9539ZM32.309 37.8284C33.0599 37.2061 33.8109 37.0774 34.5833 37.8069C34.8193 40.1026 36.0851 42.4198 34.3472 44.6512C33.7679 45.252 33.0599 45.3163 32.2875 45.1876C32.03 45.0803 31.8584 44.9087 31.7726 44.6512C31.7082 42.3555 31.7726 40.0812 32.309 37.8284ZM31.1933 51.6028H31.322C31.322 51.6028 31.322 51.7315 31.3435 51.7959C31.2791 51.7315 31.2362 51.6672 31.1933 51.6242V51.6028ZM30.0561 80.3746C30.0561 80.3746 30.0561 80.4175 30.0991 80.439C30.0776 80.439 30.0561 80.3961 30.0347 80.3746C30.0347 80.3746 30.0347 80.3746 30.0561 80.3746ZM29.0477 51.0664H29.0692C29.0692 51.0664 29.0692 51.0664 29.0477 51.0664ZM20.3153 86.5752C20.3153 86.5752 20.2939 86.5323 20.2939 86.5109L20.3153 86.5752ZM20.3153 65.1197C20.3153 65.1197 20.2939 65.0125 20.2724 64.9481H20.4655C20.4655 64.9481 20.3583 65.0554 20.3153 65.1197ZM25.2501 74.6031C25.057 75.0966 24.6494 75.3755 24.1988 75.59C23.7053 75.9762 23.2333 76.0835 22.7827 75.5257H22.7613V75.4827C22.5467 75.0322 22.3322 74.5816 22.1176 74.1311C22.5682 73.3157 22.3751 72.4361 22.4394 71.5779C22.5253 70.5909 22.6111 69.5825 22.6969 68.5955C22.5896 68.5097 22.4824 68.4239 22.418 68.3381C22.5038 68.2737 22.6111 68.2308 22.7398 68.1879C24.4348 67.158 25.2501 68.0377 25.4218 69.6039C25.6149 71.256 25.6578 72.9295 25.2716 74.5602L25.2501 74.6031ZM26.8164 53.7269C26.9665 52.7399 27.2455 51.8602 28.4255 51.6886C29.0263 52.1177 29.5627 52.5254 29.5412 53.3836C29.5198 54.7997 29.5841 56.2372 29.4983 57.6318C29.4125 59.1551 28.7044 59.434 27.1167 58.6616C27.0524 58.6187 26.9665 58.5758 26.9022 58.5115C26.4087 57.9965 26.4516 57.4601 26.8164 56.9023C26.988 55.8295 26.9665 54.7782 26.8164 53.7054V53.7269ZM29.6056 88.9568C29.155 89.8579 28.4041 90.1369 27.4386 89.9867C26.6662 89.0426 27.0524 87.884 26.8593 86.8113C26.5374 86.1032 26.3014 85.3952 26.9236 84.7086C27.3742 83.9362 27.7389 83.0351 28.919 83.1424C29.3267 83.314 29.7343 83.4642 29.9489 83.8718C30.3136 84.7086 30.2707 85.5883 30.2922 86.4465C30.2922 87.3476 30.2492 88.2273 29.6056 88.9353V88.9568ZM44.4742 128.585C39.8828 127.276 35.3556 126.332 30.6569 127.941C29.8201 123.243 31.6224 118.694 31.4507 114.017C31.4507 113.48 31.8155 112.944 31.7726 112.408C31.5151 109.425 32.6308 108.503 35.7848 108.481C45.2895 108.395 45.2895 108.224 46.0834 117.857C46.1049 118.222 46.2121 118.587 46.2336 118.716C46.3623 121.483 46.2336 124.079 46.6627 126.59C47.0489 128.821 45.547 128.885 44.4957 128.585H44.4742ZM49.4519 43.5999V43.6428C49.4519 43.6428 49.4305 43.6428 49.409 43.6213C49.409 43.6213 49.4305 43.6213 49.4519 43.6213V43.5999ZM50.9109 89.8794C50.1814 90.051 49.5163 89.9867 48.9155 89.4932C48.8726 87.9484 48.8082 86.4036 48.7653 84.8588C48.7224 83.9577 49.1515 83.3998 49.9883 83.0994C50.3316 83.2925 50.6534 83.4856 50.9752 83.6787C51.0396 85.6312 51.0825 87.5622 51.1469 89.5146C51.0182 89.6005 50.9323 89.7292 50.9109 89.9008V89.8794ZM50.9323 59.0264C50.2672 59.1766 49.6236 59.1551 48.9799 58.9191C48.9799 58.7689 48.9584 58.6402 48.8512 58.5329C48.5722 56.4088 48.3577 54.2847 48.9584 52.1606C49.1301 52.1392 49.3017 52.0748 49.4734 52.0534C50.632 51.8817 51.0825 52.0963 51.1469 53.0403C51.2542 55.0357 51.4044 57.031 50.9323 59.0264ZM53.3139 62.0516C53.3139 62.0516 53.3997 61.9658 53.4426 61.9229C53.4426 62.0302 53.3997 62.1374 53.3354 62.2662H53.1852C53.1852 62.2662 53.271 62.116 53.3139 62.0516ZM55.3522 75.6115H55.3307C55.3307 75.6115 55.3307 75.6115 55.3307 75.6544C55.3307 75.6544 55.3307 75.6544 55.3307 75.6329C54.4725 75.6329 53.8074 75.3326 53.6143 74.3671C53.2924 72.715 53.2924 71.02 53.2924 69.3465C53.2924 68.4883 53.8503 67.909 54.5369 67.9304C55.202 67.9519 55.7813 68.5097 55.8242 69.3894C55.91 71.0629 55.9315 72.7579 55.91 74.4314C55.91 74.8391 55.5667 75.2253 55.3951 75.6329L55.3522 75.6115ZM63.4194 85.2021C63.2049 86.7898 63.6554 88.4848 62.7758 89.9867C62.0892 90.2441 61.4026 90.4158 60.716 90.0296C60.4586 87.9269 60.2011 85.8028 60.716 83.7002C60.8448 83.5929 60.9735 83.4856 61.1022 83.3784C62.7543 82.9064 63.5911 83.8289 63.4194 85.2235V85.2021ZM65.0071 97.4961C65.0071 97.4961 65.0071 97.4532 65.0286 97.4103C65.0286 97.4317 65.0501 97.4532 65.0715 97.4961H65.0071Z" fill="#009479"/>
</svg>
