<?xml version="1.0" standalone="no"?>
<!DOCTYPE svg PUBLIC "-//W3C//DTD SVG 20010904//EN"
 "http://www.w3.org/TR/2001/REC-SVG-20010904/DTD/svg10.dtd">
<svg version="1.0" xmlns="http://www.w3.org/2000/svg"
 width="556.000000pt" height="556.000000pt" viewBox="0 0 556.000000 556.000000"
 preserveAspectRatio="xMidYMid meet">
<metadata>
Created by potrace 1.14, written by Peter Selinger 2001-2017
</metadata>
<g transform="translate(0.000000,556.000000) scale(0.100000,-0.100000)"
fill="#000000" stroke="none">
<path d="M1617 5424 c-1 -1 -42 -4 -90 -8 -48 -4 -93 -9 -100 -11 -7 -2 -29
-6 -49 -9 -158 -23 -428 -128 -588 -228 -239 -150 -471 -404 -597 -653 -61
-120 -125 -290 -139 -369 -3 -16 -6 -32 -8 -35 -2 -3 -7 -31 -11 -61 -4 -30
-8 -57 -10 -60 -2 -3 -7 -37 -10 -75 -9 -90 -9 -2985 0 -3045 8 -56 33 -156
45 -178 4 -10 16 -37 26 -62 69 -167 243 -341 419 -421 83 -37 89 -39 115 -45
139 -33 138 -33 2155 -34 1307 0 2012 4 2053 10 266 44 505 216 629 455 36 70
82 215 89 283 7 62 6 1964 0 2022 -12 108 -18 147 -26 180 -5 19 -11 46 -14
60 -19 111 -83 294 -143 414 -186 371 -485 630 -879 762 -59 20 -119 38 -133
40 -14 3 -53 11 -86 19 -33 7 -85 16 -115 20 -30 3 -71 8 -90 10 -19 3 -106 7
-192 10 -351 10 -420 47 -728 385 -116 128 -132 143 -245 236 -110 91 -96 81
-175 130 -225 141 -509 226 -830 250 -83 6 -269 11 -273 8z"/>
</g>
</svg>
