<?xml version="1.0" encoding="utf-8"?>
<!-- Generator: Adobe Illustrator 27.8.1, SVG Export Plug-In . SVG Version: 6.00 Build 0)  -->
<svg version="1.1" id="レイヤー_1" xmlns="http://www.w3.org/2000/svg" xmlns:xlink="http://www.w3.org/1999/xlink" x="0px"
	 y="0px" viewBox="0 0 130 100" style="enable-background:new 0 0 130 100;" xml:space="preserve">
<style type="text/css">
	.st0{fill-rule:evenodd;clip-rule:evenodd;fill:#EFBB3F;}
	.st1{fill:#3D423E;}
</style>
<path class="st0" d="M68.1,52.9v26.2c0,2.8-1.2,5.4-3,7.2c-1.9,1.9-4.4,3-7.3,3c-2.8,0-5.4-1.1-7.3-3c-1.9-1.9-3-4.4-3-7.2
	s1.2-5.4,3-7.2c1.9-1.9,4.4-3,7.3-3c1.4,0,2.7,0.3,3.9,0.8c0.7,0.3,1.4,0.7,2.1,1.1v-28c0-0.4,0.3-0.7,0.7-0.7
	c0.2,0,0.5,0.1,0.6,0.3c2.2,2.6,5,3.9,7.7,5.1c5.8,2.7,11,5.1,8.7,17.8c-0.1,0.4-0.5,0.7-0.9,0.6c-0.3-0.1-0.6-0.3-0.6-0.7
	c-0.3-4.4-1.9-7.2-4.2-9C73.8,54.5,71.1,53.6,68.1,52.9L68.1,52.9z"/>
<g>
	<g>
		<path class="st1" d="M37.6,34.6c-0.2,0.1-0.5,0.1-0.8,0.1c-0.3-0.1-0.5-0.2-0.6-0.5c-0.1-0.2-0.1-0.5,0-0.8s0.3-0.4,0.5-0.6
			c0.4-0.2,0.7-0.4,0.8-0.6c0.1-0.2,0-0.5-0.2-0.9l-2-4l-3.8,1.9c-0.2,0.1-0.5,0.1-0.7,0.1c-0.2-0.1-0.4-0.2-0.6-0.5
			c-0.1-0.2-0.1-0.5-0.1-0.7c0.1-0.2,0.2-0.4,0.5-0.6l3.8-1.9l-0.8-1.5c-0.1-0.2-0.1-0.5-0.1-0.8s0.3-0.4,0.5-0.6
			c0.2-0.1,0.5-0.1,0.7-0.1c0.3,0.1,0.4,0.3,0.6,0.5l0.8,1.5l3.5-1.8c0.2-0.1,0.5-0.1,0.7-0.1c0.3,0.1,0.4,0.2,0.6,0.5
			c0.1,0.2,0.1,0.5,0.1,0.7c-0.1,0.2-0.2,0.4-0.5,0.6l-3.5,1.8l2,4.1c0.5,1,0.6,1.8,0.4,2.4C39.2,33.5,38.6,34.1,37.6,34.6z
			 M33.8,34.2c-0.1,0.2-0.4,0.4-0.6,0.4c-0.3,0.1-0.5,0-0.7-0.1c-0.2-0.2-0.4-0.4-0.4-0.6c0-0.3,0-0.5,0.1-0.7
			c0.3-0.5,0.5-1,0.8-1.5c0.2-0.6,0.4-1.1,0.6-1.6c0.1-0.3,0.2-0.5,0.4-0.6c0.2-0.2,0.4-0.2,0.7-0.2c0.3,0,0.5,0.2,0.6,0.4
			c0.2,0.2,0.2,0.5,0.2,0.7c-0.1,0.4-0.2,0.9-0.4,1.3c-0.2,0.5-0.4,0.9-0.6,1.4C34.3,33.5,34,33.9,33.8,34.2z M40,22.3
			c-0.4,0.2-0.8,0.2-1.2,0.1c-0.4-0.1-0.7-0.4-0.9-0.8c-0.2-0.4-0.2-0.8-0.1-1.2c0.1-0.4,0.4-0.7,0.8-0.9c0.4-0.2,0.8-0.2,1.2-0.1
			c0.4,0.1,0.7,0.4,0.9,0.8c0.2,0.4,0.2,0.8,0.1,1.2C40.6,21.8,40.4,22.1,40,22.3z M39.6,21.5c0.2-0.1,0.3-0.2,0.3-0.4
			c0.1-0.2,0.1-0.4,0-0.5s-0.2-0.3-0.4-0.3c-0.2-0.1-0.4,0-0.5,0c-0.2,0.1-0.3,0.2-0.4,0.4c-0.1,0.2-0.1,0.4,0,0.5
			c0.1,0.2,0.2,0.3,0.4,0.4C39.2,21.6,39.4,21.6,39.6,21.5z M44.3,28.7c-0.1,0.3-0.3,0.4-0.5,0.5c-0.3,0.1-0.5,0.1-0.8,0
			c-0.3-0.1-0.6-0.2-1-0.3s-0.8-0.2-1.2-0.3c-0.4-0.1-0.7-0.2-1.1-0.2c-0.3,0-0.5-0.2-0.6-0.4c-0.2-0.2-0.2-0.5-0.2-0.7
			c0-0.3,0.2-0.5,0.4-0.6c0.2-0.2,0.5-0.2,0.7-0.2c0.3,0,0.7,0.1,1.2,0.2s0.9,0.2,1.4,0.3c0.5,0.1,0.9,0.2,1.2,0.4
			c0.3,0.1,0.4,0.3,0.6,0.5C44.4,28.1,44.4,28.4,44.3,28.7z"/>
		<path class="st1" d="M57.8,28.5c-0.3,0-0.5,0-0.7-0.2c-0.2-0.2-0.4-0.4-0.4-0.6l-1-6.3c-0.6,0.7-1.2,1.4-1.8,2
			c-0.6,0.7-1.3,1.3-1.9,1.8c-0.2,0.2-0.4,0.2-0.7,0.2c-0.3,0-0.5-0.1-0.7-0.3c-0.2-0.2-0.2-0.5-0.2-0.7c0-0.3,0.1-0.5,0.3-0.7
			c0.6-0.5,1.2-1.1,1.9-1.8c0.6-0.7,1.2-1.4,1.8-2.1c0.6-0.7,1.1-1.5,1.6-2.2c0.5-0.7,0.9-1.4,1.2-2c0.1-0.2,0.3-0.4,0.6-0.5
			c0.3-0.1,0.5-0.1,0.8,0c0.2,0.1,0.4,0.3,0.5,0.6s0.1,0.5,0,0.8c-0.4,0.8-1,1.7-1.6,2.6l1.3,8.2c0,0.3,0,0.5-0.2,0.7
			C58.3,28.3,58,28.5,57.8,28.5z"/>
		<path class="st1" d="M71.5,26.7c-0.3,0.1-0.5,0-0.7-0.1c-0.2-0.2-0.4-0.4-0.4-0.6c-0.1-0.3,0-0.5,0.1-0.7s0.4-0.4,0.6-0.4
			c0.9-0.2,1.8-0.4,2.7-0.7c0.9-0.3,1.8-0.6,2.7-1c0.9-0.4,1.7-0.8,2.4-1.3c0.7-0.4,1.3-0.9,1.8-1.3c0.2-0.2,0.5-0.3,0.7-0.3
			c0.3,0,0.5,0.1,0.7,0.3c0.2,0.2,0.3,0.4,0.3,0.7c0,0.3-0.1,0.5-0.3,0.7c-0.5,0.5-1.2,0.9-2,1.4s-1.7,1-2.7,1.4s-2,0.8-3,1.2
			C73.4,26.3,72.4,26.5,71.5,26.7z M73.8,20.7c-0.3-0.4-0.7-0.8-1.2-1.3s-0.8-0.8-1.2-1.1c-0.2-0.2-0.3-0.4-0.3-0.7s0.1-0.5,0.2-0.7
			c0.2-0.2,0.4-0.3,0.7-0.4c0.3,0,0.5,0,0.7,0.2c0.3,0.2,0.5,0.5,0.9,0.8c0.3,0.3,0.6,0.6,0.9,0.9c0.3,0.3,0.6,0.6,0.7,0.8
			c0.2,0.2,0.3,0.4,0.3,0.7c0,0.3-0.1,0.5-0.3,0.7C75,20.9,74.7,21,74.5,21S74,20.9,73.8,20.7z"/>
		<path class="st1" d="M91.4,33.6c-0.2-0.1-0.4-0.3-0.5-0.6c-0.1-0.3-0.1-0.5,0-0.7l4.9-9.9c0.1-0.2,0.3-0.4,0.6-0.5
			c0.3-0.1,0.5-0.1,0.7,0.1c0.2,0.1,0.4,0.3,0.5,0.6s0.1,0.5,0,0.8l-1.7,3.5c0.2-0.1,0.5-0.2,0.7-0.1c0.3,0,0.5,0.2,0.6,0.4
			c0.4,0.6,0.8,1.2,1.2,1.9c0.4,0.7,0.7,1.3,1,1.9c0.1,0.2,0.1,0.5,0,0.8c-0.1,0.3-0.3,0.5-0.5,0.6c-0.2,0.1-0.5,0.1-0.8,0
			c-0.3-0.1-0.4-0.3-0.6-0.5c-0.2-0.3-0.4-0.7-0.6-1.1c-0.2-0.4-0.5-0.8-0.7-1.2c-0.2-0.4-0.5-0.7-0.7-1.1c-0.1-0.2-0.2-0.3-0.2-0.5
			l-2.7,5.5c-0.1,0.2-0.3,0.4-0.6,0.5S91.6,33.7,91.4,33.6z"/>
	</g>
</g>
</svg>
