<svg width="26" height="40" viewBox="0 0 26 40" fill="none" xmlns="http://www.w3.org/2000/svg">
<path fill-rule="evenodd" clip-rule="evenodd" d="M2 39.52C0.895431 39.52 0 38.6246 0 37.52V31.808C0 30.7034 0.895431 29.808 2 29.808H7.68V11.344H3.2C2.09543 11.344 1.2 10.4486 1.2 9.344V4.976C1.2 4.01296 1.88632 3.18667 2.83301 3.00996C6.24049 2.3739 8.40576 1.53517 10.4698 0.288168C10.7818 0.0996475 11.1394 0 11.504 0H16.736C17.8406 0 18.736 0.89543 18.736 2V29.808H23.408C24.5126 29.808 25.408 30.7034 25.408 31.808V37.52C25.408 38.6246 24.5126 39.52 23.408 39.52H2ZM16.736 31.808V2H11.504C9.2 3.392 6.8 4.304 3.2 4.976V9.344H9.68V31.808H2V37.52H23.408V31.808H16.736Z" fill="#E94816"/>
</svg>
