<svg width="286" height="120" viewBox="0 0 286 120" fill="none" xmlns="http://www.w3.org/2000/svg">
<g clip-path="url(#clip0_247_1404)">
<path d="M12.9719 60.0001C12.9719 60.854 12.2851 61.5527 11.4458 61.5527L1.5261 61.5527C0.686747 61.5527 -3.05405e-08 60.8541 -6.78677e-08 60.0001C-1.05195e-07 59.1462 0.686747 58.4475 1.5261 58.4475L11.4458 58.4475C12.2851 58.4475 12.9719 59.1462 12.9719 60.0001Z" fill="white"/>
<path d="M19 82.9012C19 83.4369 18.7253 83.957 18.2369 84.2442L9.65259 89.2903C8.92005 89.7173 7.98913 89.4611 7.56945 88.7236C7.14977 87.9783 7.40158 87.0312 8.12648 86.6042L16.7184 81.5582C17.451 81.1312 18.3819 81.3874 18.8016 82.1249C18.9389 82.3656 19.0076 82.6373 19.0076 82.9012L19 82.9012Z" fill="white"/>
<path d="M19 37.0986C19 37.3626 18.9313 37.6265 18.794 37.875C18.3743 38.6202 17.4357 38.8687 16.7108 38.4417L8.11887 33.3956C7.38634 32.9687 7.14216 32.0215 7.56184 31.2763C7.98152 30.531 8.92007 30.2826 9.64497 30.7096L18.2369 35.7556C18.7253 36.0429 19 36.563 19 37.0986Z" fill="white"/>
</g>
<path d="M92.3 26.44V8.74H97.74L98.56 9.42C98.5333 9.48667 98.5 9.58 98.46 9.7C98.42 9.80667 98.3733 9.93333 98.32 10.08L99.44 9.46C99.6933 9.76667 99.9467 10.12 100.2 10.52C100.467 10.92 100.72 11.3333 100.96 11.76C101.2 12.1733 101.413 12.5533 101.6 12.9C101.307 13.0067 100.98 13.1667 100.62 13.38C100.26 13.58 99.9667 13.76 99.74 13.92C99.5667 13.4933 99.3133 12.9933 98.98 12.42C98.66 11.8467 98.34 11.3333 98.02 10.88C97.82 11.4 97.6 11.9533 97.36 12.54C97.1333 13.1267 96.9333 13.6533 96.76 14.12C96.5867 14.5733 96.4733 14.8733 96.42 15.02C96.94 15.5133 97.3333 16.04 97.6 16.6H101.18V22.28C101.353 22.9867 101.827 23.4733 102.6 23.74C103.373 24.0067 104.373 24.14 105.6 24.14C106.547 24.14 107.4 24.1267 108.16 24.1C108.933 24.0733 109.647 24.0333 110.3 23.98C110.193 24.3 110.1 24.66 110.02 25.06C109.94 25.4733 109.887 25.82 109.86 26.1C109.807 26.1 109.64 26.1 109.36 26.1C109.08 26.1133 108.74 26.12 108.34 26.12C107.94 26.12 107.54 26.12 107.14 26.12C106.753 26.12 106.413 26.12 106.12 26.12C105.84 26.12 105.667 26.12 105.6 26.12C104.093 26.12 102.927 25.96 102.1 25.64C101.273 25.3333 100.62 24.8533 100.14 24.2C99.9267 24.36 99.64 24.5733 99.28 24.84C98.9333 25.1067 98.58 25.3733 98.22 25.64C97.8733 25.9067 97.58 26.1267 97.34 26.3L96 24.4C96.2933 24.2533 96.6267 24.08 97 23.88C97.3867 23.6667 97.7667 23.4467 98.14 23.22C98.5267 22.98 98.8533 22.7467 99.12 22.52V18.66H98.12C98.1333 18.7133 98.14 18.7733 98.14 18.84C98.14 18.8933 98.14 18.9533 98.14 19.02C98.14 20.2333 97.8733 21.0933 97.34 21.6C96.8067 22.0933 96.1467 22.34 95.36 22.34H94.8C94.7733 21.9133 94.7267 21.5467 94.66 21.24C94.6067 20.9333 94.5067 20.62 94.36 20.3H94.94C95.3267 20.3 95.6 20.1733 95.76 19.92C95.92 19.6667 96 19.2067 96 18.54C96 17.94 95.8667 17.34 95.6 16.74C95.3333 16.14 94.9267 15.62 94.38 15.18C94.42 15.0867 94.4933 14.9 94.6 14.62C94.7067 14.3267 94.8267 13.9867 94.96 13.6C95.1067 13.2133 95.2467 12.8267 95.38 12.44C95.5267 12.04 95.6467 11.68 95.74 11.36C95.8467 11.04 95.92 10.8067 95.96 10.66H94.34V26.44H92.3ZM102.62 23.46V15.94C102.3 16.3 101.98 16.64 101.66 16.96C101.513 16.7733 101.267 16.5467 100.92 16.28C100.587 16.0133 100.28 15.8133 100 15.68C100.587 15.1867 101.127 14.6133 101.62 13.96C102.113 13.3067 102.547 12.62 102.92 11.9H101.14V10.02H103.72C103.947 9.35333 104.12 8.72667 104.24 8.14L106.4 8.48C106.333 8.73333 106.26 8.99333 106.18 9.26C106.113 9.51333 106.033 9.76667 105.94 10.02H110.08V11.9H105.2C105.027 12.2733 104.827 12.6533 104.6 13.04H109.26V21.66C109.26 22.2733 109.073 22.7267 108.7 23.02C108.327 23.3 107.78 23.44 107.06 23.44H106C105.987 23.1733 105.933 22.8333 105.84 22.42C105.76 22.0067 105.673 21.6867 105.58 21.46H106.62C106.86 21.46 107.013 21.4267 107.08 21.36C107.16 21.2933 107.2 21.1533 107.2 20.94V20.06H104.62V23.46H102.62ZM104.62 15.9H107.2V14.82H104.62V15.9ZM104.62 18.5H107.2V17.44H104.62V18.5ZM124.8 26.54C124.773 26.2067 124.707 25.8067 124.6 25.34C124.507 24.8733 124.4 24.5 124.28 24.22H125.68C125.96 24.22 126.16 24.1733 126.28 24.08C126.4 23.9867 126.46 23.8067 126.46 23.54V20.16H122.32C122.627 20.3733 122.953 20.62 123.3 20.9C123.647 21.18 123.973 21.46 124.28 21.74C124.6 22.0067 124.853 22.2533 125.04 22.48C124.893 22.6 124.707 22.78 124.48 23.02C124.267 23.2467 124.06 23.48 123.86 23.72C123.673 23.9467 123.54 24.12 123.46 24.24C123.26 23.9467 122.987 23.6267 122.64 23.28C122.293 22.92 121.933 22.5867 121.56 22.28C121.2 21.96 120.887 21.7133 120.62 21.54L121.86 20.16H120.14V18.06H126.46V16.42H119.84V14.3H123.98V12.64H120.32V10.54H123.98V8.24H126.48V10.54H130.38V12.64H126.48V14.3H131.14V16.42H128.9V18.06H130.92V20.16H128.9V24.4C128.9 25.8267 128.047 26.54 126.34 26.54H124.8ZM113.38 22.98V9.78H119.36V22.98H113.38ZM115.58 20.86H117.16V17.4H115.58V20.86ZM115.58 15.3H117.16V11.88H115.58V15.3ZM134.3 18.56V13.96H137.46C137.3 13.6133 137.113 13.26 136.9 12.9C136.7 12.54 136.5 12.22 136.3 11.94L137.82 11.18C137.167 11.1933 136.507 11.1933 135.84 11.18C135.787 10.8867 135.687 10.5333 135.54 10.12C135.407 9.70667 135.28 9.37333 135.16 9.12C136.027 9.17333 136.967 9.20667 137.98 9.22C138.993 9.22 140.02 9.19333 141.06 9.14C142.1 9.08667 143.107 9.01333 144.08 8.92C145.067 8.81333 145.967 8.68667 146.78 8.54C147.607 8.39333 148.3 8.22 148.86 8.02L150.32 9.8C149.867 9.92 149.373 10.04 148.84 10.16C148.32 10.2667 147.767 10.3667 147.18 10.46L148.92 11C148.787 11.3733 148.593 11.84 148.34 12.4C148.087 12.96 147.827 13.48 147.56 13.96H151.7V18.56H149.44V15.84H136.6V18.56H134.3ZM134.86 26.6C134.82 26.4133 134.753 26.1733 134.66 25.88C134.567 25.6 134.46 25.3133 134.34 25.02C134.233 24.74 134.127 24.5133 134.02 24.34C135.393 24.2867 136.66 24.1267 137.82 23.86C138.98 23.5933 140.047 23.2267 141.02 22.76C140.553 22.28 140.12 21.7467 139.72 21.16C139.32 20.56 138.96 19.8933 138.64 19.16H137.26V17.22H147.76L148.7 18.38C147.74 20.14 146.56 21.6133 145.16 22.8C146.12 23.2533 147.193 23.6 148.38 23.84C149.567 24.0667 150.84 24.1933 152.2 24.22C152.067 24.4067 151.933 24.64 151.8 24.92C151.68 25.2 151.573 25.48 151.48 25.76C151.387 26.04 151.313 26.2733 151.26 26.46C149.66 26.3933 148.16 26.1933 146.76 25.86C145.373 25.54 144.113 25.0267 142.98 24.32C141.847 24.9733 140.607 25.48 139.26 25.84C137.913 26.2133 136.447 26.4667 134.86 26.6ZM142.62 13.96H145.22C145.38 13.6533 145.553 13.3 145.74 12.9C145.927 12.5 146.107 12.0933 146.28 11.68C146.453 11.2533 146.593 10.8733 146.7 10.54C146.087 10.6333 145.453 10.7133 144.8 10.78C144.16 10.8467 143.493 10.9133 142.8 10.98C143.013 11.2867 143.24 11.68 143.48 12.16C143.72 12.64 143.9 13.0733 144.02 13.46L142.62 13.96ZM138.22 13.96H141.78C141.647 13.5733 141.48 13.16 141.28 12.72C141.08 12.2667 140.887 11.8933 140.7 11.6L142.26 11.02C141.607 11.06 140.947 11.0933 140.28 11.12C139.613 11.1467 138.933 11.1667 138.24 11.18C138.467 11.4733 138.7 11.8133 138.94 12.2C139.193 12.5867 139.4 12.9667 139.56 13.34L138.22 13.96ZM143.1 21.44C143.5 21.1067 143.88 20.7533 144.24 20.38C144.6 20.0067 144.927 19.6 145.22 19.16H141.26C141.74 20.0267 142.353 20.7867 143.1 21.44ZM165.88 26.42C165.853 26.1933 165.807 25.9267 165.74 25.62C165.687 25.3133 165.62 25.0133 165.54 24.72C165.46 24.4133 165.38 24.1733 165.3 24H167.3C167.567 24 167.76 23.9533 167.88 23.86C168 23.7667 168.06 23.5867 168.06 23.32V15.02H160.98V12.78H168.06V8.42H170.52V12.78H173.16V15.02H170.52V24.32C170.52 25.0533 170.307 25.5867 169.88 25.92C169.467 26.2533 168.833 26.42 167.98 26.42H165.88ZM157.8 26.44V16.32C157.48 16.7067 157.16 17.08 156.84 17.44C156.52 17.7867 156.207 18.1067 155.9 18.4C155.713 18.1733 155.447 17.92 155.1 17.64C154.753 17.3467 154.44 17.12 154.16 16.96C154.573 16.6 155.007 16.1467 155.46 15.6C155.913 15.04 156.36 14.4333 156.8 13.78C157.253 13.1267 157.673 12.46 158.06 11.78C158.46 11.0867 158.8 10.4333 159.08 9.82C159.36 9.19333 159.56 8.64 159.68 8.16L161.86 8.92C161.673 9.53333 161.433 10.1667 161.14 10.82C160.847 11.46 160.52 12.1 160.16 12.74V26.44H157.8ZM164.74 21.7C164.567 21.3133 164.307 20.8667 163.96 20.36C163.613 19.84 163.247 19.3333 162.86 18.84C162.487 18.3467 162.153 17.9533 161.86 17.66L163.84 16.36C164.187 16.68 164.547 17.0733 164.92 17.54C165.293 17.9933 165.647 18.4667 165.98 18.96C166.327 19.4533 166.613 19.9133 166.84 20.34C166.667 20.42 166.44 20.5467 166.16 20.72C165.88 20.88 165.607 21.0533 165.34 21.24C165.087 21.4267 164.887 21.58 164.74 21.7ZM183.78 26.5V20.06H176.52V12.1H183.78V8.28H186.24V12.1H193.5V20.06H186.24V26.5H183.78ZM186.24 17.74H191.02V14.3H186.24V17.74ZM179.04 17.74H183.78V14.3H179.04V17.74Z" fill="#E94816"/>
<path d="M61.1 73.028C60.8573 72.5773 60.528 72.0227 60.112 71.364C59.7133 70.7053 59.28 70.0467 58.812 69.388C58.3613 68.7293 57.928 68.1747 57.512 67.724L59.592 66.216H41.132V63.642H43.992V60.132H40.17V57.532H43.992V54.854C43.628 55.2527 43.2727 55.6253 42.926 55.972C42.5793 56.3187 42.25 56.6133 41.938 56.856C41.6607 56.5613 41.288 56.232 40.82 55.868C40.3693 55.504 39.962 55.2353 39.598 55.062C40.066 54.698 40.5513 54.256 41.054 53.736C41.5567 53.1987 42.042 52.6353 42.51 52.046C42.9953 51.4393 43.42 50.85 43.784 50.278C44.148 49.706 44.4167 49.2033 44.59 48.77L47.528 49.68C47.4067 49.9573 47.2507 50.2607 47.06 50.59C46.8867 50.902 46.6873 51.2313 46.462 51.578H62.53V54.152H60.06V57.532H63.804V60.132H60.06V63.642H63.024V66.216H59.8C60.2507 66.684 60.7187 67.23 61.204 67.854C61.7067 68.478 62.1833 69.102 62.634 69.726C63.0847 70.35 63.4487 70.9047 63.726 71.39C63.31 71.5633 62.842 71.8147 62.322 72.144C61.802 72.4907 61.3947 72.7853 61.1 73.028ZM42.588 73.106C42.276 72.8113 41.8687 72.508 41.366 72.196C40.8633 71.9013 40.4127 71.6847 40.014 71.546C40.4473 71.1647 40.898 70.688 41.366 70.116C41.834 69.544 42.276 68.9373 42.692 68.296C43.1253 67.6547 43.472 67.0393 43.732 66.45L46.41 67.724C46.098 68.3653 45.7253 69.024 45.292 69.7C44.8587 70.3587 44.408 70.9827 43.94 71.572C43.472 72.1613 43.0213 72.6727 42.588 73.106ZM53.924 72.82C53.8547 72.3173 53.742 71.728 53.586 71.052C53.4473 70.3933 53.2913 69.7433 53.118 69.102C52.962 68.4433 52.7973 67.8973 52.624 67.464L55.406 66.71C55.5793 67.1087 55.7613 67.6373 55.952 68.296C56.1427 68.9373 56.316 69.596 56.472 70.272C56.6453 70.948 56.7753 71.5547 56.862 72.092C56.4807 72.144 55.9867 72.2393 55.38 72.378C54.7907 72.5167 54.3053 72.664 53.924 72.82ZM48.49 72.95C48.4553 72.4647 48.386 71.884 48.282 71.208C48.178 70.5493 48.0653 69.8993 47.944 69.258C47.8227 68.5993 47.7013 68.0533 47.58 67.62L50.388 67.048C50.544 67.4813 50.6913 68.0187 50.83 68.66C50.986 69.3013 51.116 69.96 51.22 70.636C51.3413 71.312 51.4193 71.9013 51.454 72.404C51.2113 72.4213 50.908 72.456 50.544 72.508C50.18 72.5773 49.8073 72.6467 49.426 72.716C49.062 72.7853 48.75 72.8633 48.49 72.95ZM46.748 63.642H48.412V60.132H46.748V63.642ZM55.614 63.642H57.278V60.132H55.614V63.642ZM51.194 63.642H52.832V60.132H51.194V63.642ZM46.748 57.532H48.412V54.152H46.748V57.532ZM55.614 57.532H57.278V54.152H55.614V57.532ZM51.194 57.532H52.832V54.152H51.194V57.532ZM71.006 72.846V64.474C70.4687 65.2713 69.9053 66.0167 69.316 66.71C68.744 67.4033 68.1807 68.0013 67.626 68.504C67.3833 68.192 67.0627 67.854 66.664 67.49C66.2653 67.126 65.8927 66.8487 65.546 66.658C66.1353 66.1727 66.742 65.5747 67.366 64.864C68.0073 64.136 68.614 63.3647 69.186 62.55C69.758 61.718 70.2433 60.912 70.642 60.132H66.482V57.454H71.006V49.316H73.84V57.454H77.662V60.132H73.84V60.392C74.152 60.7733 74.5507 61.224 75.036 61.744C75.5387 62.2467 76.05 62.732 76.57 63.2C77.09 63.668 77.5493 64.0493 77.948 64.344C78.8147 64.24 79.8373 64.0927 81.016 63.902C82.1947 63.694 83.3733 63.4773 84.552 63.252V54.724C84.3613 54.88 84.136 55.088 83.876 55.348C83.6333 55.5907 83.3907 55.8333 83.148 56.076C82.9227 56.3187 82.7493 56.5267 82.628 56.7C82.1427 56.1973 81.5707 55.6427 80.912 55.036C80.2533 54.4293 79.6033 53.9353 78.962 53.554L80.86 51.578C81.4667 51.9593 82.108 52.4533 82.784 53.06C83.4773 53.6493 84.0667 54.1867 84.552 54.672V49.29H87.464V62.68C88.0707 62.5413 88.6167 62.42 89.102 62.316C89.5873 62.1947 89.9773 62.082 90.272 61.978L90.454 64.812C90.0727 64.916 89.6307 65.0287 89.128 65.15C88.6253 65.254 88.0707 65.3753 87.464 65.514V72.846H84.552V66.138C83.304 66.3807 82.082 66.6147 80.886 66.84C79.69 67.048 78.6933 67.2127 77.896 67.334L77.402 65.098C77.1767 65.358 76.9513 65.6267 76.726 65.904C76.518 66.164 76.362 66.3893 76.258 66.58C75.8767 66.2507 75.478 65.8693 75.062 65.436C74.646 65.0027 74.2387 64.5433 73.84 64.058V72.846H71.006ZM81.952 62.316C81.4667 61.8133 80.886 61.276 80.21 60.704C79.534 60.1147 78.8667 59.6293 78.208 59.248L80.002 57.22C80.418 57.48 80.86 57.792 81.328 58.156C81.796 58.5027 82.2467 58.8667 82.68 59.248C83.1307 59.612 83.5207 59.95 83.85 60.262C83.6767 60.4007 83.4687 60.6 83.226 60.86C82.9833 61.1027 82.7407 61.3627 82.498 61.64C82.2727 61.9 82.0907 62.1253 81.952 62.316ZM76.544 56.83C76.2667 56.674 75.8853 56.492 75.4 56.284C74.9147 56.0587 74.5247 55.9113 74.23 55.842C74.4207 55.4953 74.6373 55.0447 74.88 54.49C75.14 53.918 75.374 53.3287 75.582 52.722C75.79 52.098 75.9373 51.5693 76.024 51.136L78.494 51.864C78.4247 52.176 78.3033 52.566 78.13 53.034C77.974 53.4847 77.8007 53.9613 77.61 54.464C77.4193 54.9493 77.2287 55.4087 77.038 55.842C76.8473 56.258 76.6827 56.5873 76.544 56.83ZM68.068 56.778C67.9813 56.362 67.834 55.868 67.626 55.296C67.4353 54.7067 67.2187 54.126 66.976 53.554C66.7507 52.982 66.5253 52.514 66.3 52.15L68.666 51.214C68.874 51.5607 69.0993 52.0373 69.342 52.644C69.602 53.2333 69.836 53.8313 70.044 54.438C70.2693 55.0273 70.4253 55.5127 70.512 55.894C70.1653 55.9633 69.732 56.0933 69.212 56.284C68.692 56.4747 68.3107 56.6393 68.068 56.778ZM105.612 72.924V68.998H102.622V65.93H105.612V61.016C105.04 61.9347 104.416 62.8533 103.74 63.772C103.064 64.6733 102.379 65.514 101.686 66.294C101.01 67.074 100.351 67.75 99.71 68.322C99.5367 68.114 99.32 67.88 99.06 67.62C98.8 67.36 98.5313 67.1173 98.254 66.892V72.898H95.16V60.132C94.8827 60.4787 94.6053 60.8167 94.328 61.146C94.068 61.458 93.7993 61.7613 93.522 62.056C93.2447 61.744 92.8893 61.4233 92.456 61.094C92.04 60.7473 91.6327 60.4787 91.234 60.288C91.858 59.6987 92.4907 58.936 93.132 58C93.7733 57.064 94.3713 56.0587 94.926 54.984C95.498 53.9093 95.9833 52.8693 96.382 51.864C96.798 50.8587 97.084 49.992 97.24 49.264L100.152 50.044C99.944 50.8413 99.6753 51.6647 99.346 52.514C99.0167 53.3633 98.6527 54.2127 98.254 55.062V65.514C98.9647 64.838 99.7187 64.0233 100.516 63.07C101.313 62.1167 102.067 61.1287 102.778 60.106C103.489 59.066 104.078 58.078 104.546 57.142H99.32V54.256H105.612V49.29H108.654V54.256H115.388V57.142H109.356C109.755 57.922 110.249 58.7367 110.838 59.586C111.445 60.4353 112.095 61.2673 112.788 62.082C113.481 62.8967 114.166 63.6507 114.842 64.344C115.518 65.02 116.125 65.5833 116.662 66.034C116.437 66.1553 116.168 66.346 115.856 66.606C115.561 66.866 115.267 67.1433 114.972 67.438C114.695 67.7153 114.469 67.9753 114.296 68.218C113.395 67.4033 112.433 66.3807 111.41 65.15C110.405 63.902 109.486 62.6193 108.654 61.302V65.93H111.514V68.998H108.654V72.924H105.612ZM129.48 73.08C129.393 72.872 129.255 72.6207 129.064 72.326C128.873 72.0487 128.665 71.7627 128.44 71.468C128.232 71.1907 128.033 70.9653 127.842 70.792C129.177 70.3413 130.329 69.726 131.3 68.946C132.271 68.1487 132.947 67.1693 133.328 66.008H129.142V59.456H133.64V57.948H130.65V56.284C130.355 56.5093 130.061 56.726 129.766 56.934C129.471 57.1247 129.194 57.298 128.934 57.454C128.813 57.246 128.622 56.986 128.362 56.674C128.102 56.3447 127.842 56.05 127.582 55.79V56.05H125.32V57.558H127.582V59.82H125.32V61.536H128.388C128.388 62.524 128.371 63.564 128.336 64.656C128.301 65.7307 128.241 66.7533 128.154 67.724C128.085 68.6773 127.981 69.4747 127.842 70.116C127.617 71.1387 127.235 71.8493 126.698 72.248C126.178 72.664 125.363 72.872 124.254 72.872H122.902C122.885 72.5253 122.824 72.0833 122.72 71.546C122.616 71.026 122.503 70.6273 122.382 70.35H123.812C124.332 70.35 124.705 70.272 124.93 70.116C125.155 69.96 125.337 69.5873 125.476 68.998C125.511 68.8593 125.545 68.6947 125.58 68.504C125.615 68.296 125.641 68.0793 125.658 67.854C125.485 67.906 125.294 67.958 125.086 68.01C124.895 68.062 124.757 68.1053 124.67 68.14C124.601 67.6373 124.488 67.0393 124.332 66.346C124.193 65.6527 124.046 65.0807 123.89 64.63L125.216 64.292C125.303 64.5173 125.389 64.8033 125.476 65.15C125.58 65.4967 125.675 65.852 125.762 66.216C125.779 65.7827 125.788 65.358 125.788 64.942C125.805 64.5087 125.814 64.11 125.814 63.746H118.846V49.966H128.492V52.28H125.32V53.788H127.582V55.14C128.379 54.7067 129.177 54.152 129.974 53.476C130.789 52.7827 131.525 52.046 132.184 51.266C132.843 50.4687 133.328 49.7147 133.64 49.004L135.772 49.42C136.24 50.0613 136.847 50.7113 137.592 51.37C138.355 52.0287 139.187 52.6353 140.088 53.19C140.989 53.7447 141.882 54.1953 142.766 54.542C142.437 54.8713 142.107 55.2873 141.778 55.79C141.466 56.2927 141.249 56.7087 141.128 57.038C140.833 56.8993 140.53 56.7433 140.218 56.57C139.906 56.3967 139.594 56.206 139.282 55.998V57.948H136.37V59.456H141.024V66.008H136.916C137.401 67.0653 138.173 67.984 139.23 68.764C140.305 69.544 141.449 70.1593 142.662 70.61C142.471 70.7833 142.255 71.0173 142.012 71.312C141.787 71.624 141.57 71.936 141.362 72.248C141.171 72.56 141.024 72.82 140.92 73.028C139.811 72.5253 138.753 71.8927 137.748 71.13C136.76 70.3673 135.937 69.4487 135.278 68.374C134.654 69.466 133.831 70.3933 132.808 71.156C131.803 71.9187 130.693 72.56 129.48 73.08ZM131.586 55.53H138.58C137.852 55.01 137.159 54.4467 136.5 53.84C135.841 53.2333 135.287 52.6527 134.836 52.098C134.455 52.6527 133.978 53.2333 133.406 53.84C132.834 54.4293 132.227 54.9927 131.586 55.53ZM117.806 69.726C117.841 69.3447 117.858 68.8853 117.858 68.348C117.875 67.7933 117.875 67.2473 117.858 66.71C117.858 66.1553 117.832 65.6873 117.78 65.306L119.574 65.098C119.609 65.462 119.635 65.9213 119.652 66.476C119.687 67.0133 119.704 67.5593 119.704 68.114C119.721 68.6687 119.73 69.154 119.73 69.57C119.453 69.5527 119.132 69.5613 118.768 69.596C118.421 69.6307 118.101 69.674 117.806 69.726ZM120.328 69.128C120.328 68.816 120.311 68.4087 120.276 67.906C120.241 67.386 120.198 66.8833 120.146 66.398C120.111 65.8953 120.068 65.514 120.016 65.254L121.55 65.046C121.619 65.358 121.68 65.7567 121.732 66.242C121.801 66.71 121.853 67.178 121.888 67.646C121.94 68.114 121.975 68.5127 121.992 68.842C121.819 68.8593 121.55 68.9027 121.186 68.972C120.822 69.0413 120.536 69.0933 120.328 69.128ZM122.564 68.634C122.547 68.3047 122.503 67.906 122.434 67.438C122.382 66.97 122.313 66.5107 122.226 66.06C122.157 65.6093 122.079 65.2453 121.992 64.968L123.448 64.708C123.535 65.02 123.621 65.4013 123.708 65.852C123.795 66.3027 123.873 66.7533 123.942 67.204C124.011 67.6373 124.055 68.01 124.072 68.322C123.985 68.3393 123.838 68.374 123.63 68.426C123.422 68.4607 123.214 68.504 123.006 68.556C122.798 68.5907 122.651 68.6167 122.564 68.634ZM136.37 63.668H138.45V61.796H136.37V63.668ZM131.716 63.668H133.64V61.796H131.716V63.668ZM121.316 61.536H123.006V59.82H121.316V61.536ZM121.316 57.558H123.006V56.05H121.316V57.558ZM121.316 53.788H123.006V52.28H121.316V53.788ZM149.968 69.466L148.278 68.166C148.295 67.958 148.313 67.568 148.33 66.996C148.347 66.424 148.356 65.7393 148.356 64.942C148.373 64.1447 148.382 63.2867 148.382 62.368C148.382 61.432 148.382 60.5133 148.382 59.612C148.382 58.6067 148.373 57.662 148.356 56.778C148.356 55.8767 148.347 55.0967 148.33 54.438C148.313 53.762 148.295 53.2767 148.278 52.982H151.606C151.571 53.294 151.545 53.7967 151.528 54.49C151.511 55.1833 151.493 55.9633 151.476 56.83C151.476 57.6967 151.476 58.572 151.476 59.456V65.384C152.672 64.9333 153.946 64.396 155.298 63.772C156.65 63.1307 157.976 62.446 159.276 61.718C160.593 60.9727 161.798 60.2273 162.89 59.482C163.982 58.7367 164.875 58.026 165.568 57.35C165.585 57.6447 165.629 58.0433 165.698 58.546C165.767 59.0313 165.845 59.508 165.932 59.976C166.036 60.444 166.123 60.7993 166.192 61.042C165.499 61.614 164.658 62.2207 163.67 62.862C162.699 63.486 161.633 64.1187 160.472 64.76C159.311 65.4013 158.115 66.0253 156.884 66.632C155.671 67.2213 154.466 67.7587 153.27 68.244C152.091 68.7293 150.991 69.1367 149.968 69.466ZM177.476 71.338C177.337 70.974 177.129 70.558 176.852 70.09C176.575 69.6047 176.306 69.232 176.046 68.972C179.045 68.2613 181.463 66.996 183.3 65.176C185.155 63.356 186.299 60.886 186.732 57.766L189.254 58.182C188.873 60.6953 188.145 62.81 187.07 64.526C186.013 66.242 184.669 67.646 183.04 68.738C181.428 69.8127 179.573 70.6793 177.476 71.338ZM175.864 63.356C175.812 63.0093 175.699 62.5673 175.526 62.03C175.353 61.4927 175.153 60.964 174.928 60.444C174.72 59.924 174.529 59.5253 174.356 59.248L176.722 58.39C176.895 58.6847 177.086 59.1007 177.294 59.638C177.502 60.1753 177.693 60.7213 177.866 61.276C178.057 61.8133 178.195 62.2727 178.282 62.654L175.864 63.356ZM180.31 62.368C180.275 62.0213 180.18 61.5793 180.024 61.042C179.868 60.4873 179.695 59.95 179.504 59.43C179.313 58.8927 179.131 58.4853 178.958 58.208L181.324 57.428C181.48 57.74 181.653 58.1647 181.844 58.702C182.052 59.2393 182.234 59.7853 182.39 60.34C182.563 60.8773 182.685 61.3367 182.754 61.718L180.31 62.368ZM199.576 70.636C199.351 70.2547 199.047 69.7953 198.666 69.258C198.302 68.7207 197.929 68.296 197.548 67.984C198.848 67.412 200.148 66.7013 201.448 65.852C202.748 65.0027 203.987 64.0493 205.166 62.992C206.362 61.9173 207.445 60.7907 208.416 59.612C209.404 58.416 210.236 57.2027 210.912 55.972C210.063 56.024 209.127 56.0847 208.104 56.154C207.099 56.2233 206.093 56.2927 205.088 56.362C204.1 56.414 203.199 56.4747 202.384 56.544C201.587 56.596 200.971 56.6393 200.538 56.674L200.174 53.372C200.607 53.372 201.257 53.3633 202.124 53.346C202.991 53.3287 203.961 53.3027 205.036 53.268C206.111 53.216 207.177 53.164 208.234 53.112C209.309 53.06 210.271 52.9993 211.12 52.93C211.987 52.8433 212.628 52.7653 213.044 52.696L215.15 54.048C214.734 55.2613 214.197 56.4573 213.538 57.636C212.879 58.7973 212.134 59.9153 211.302 60.99C211.909 61.458 212.55 61.9867 213.226 62.576C213.919 63.1653 214.595 63.772 215.254 64.396C215.913 65.02 216.519 65.618 217.074 66.19C217.629 66.762 218.088 67.2733 218.452 67.724C218.019 68.0013 217.559 68.3653 217.074 68.816C216.589 69.2493 216.164 69.6653 215.8 70.064C215.471 69.596 215.046 69.0673 214.526 68.478C214.006 67.8713 213.443 67.2647 212.836 66.658C212.247 66.034 211.649 65.436 211.042 64.864C210.435 64.2747 209.863 63.7547 209.326 63.304C207.887 64.8467 206.327 66.242 204.646 67.49C202.965 68.738 201.275 69.7867 199.576 70.636ZM226.928 70.272L225.16 67.074C226.391 66.814 227.682 66.3893 229.034 65.8C230.403 65.1933 231.773 64.4913 233.142 63.694C234.511 62.8793 235.811 62.0127 237.042 61.094C238.273 60.158 239.382 59.2133 240.37 58.26C241.375 57.3067 242.19 56.3967 242.814 55.53C242.883 55.8247 242.996 56.1887 243.152 56.622C243.325 57.0553 243.507 57.48 243.698 57.896C243.889 58.2947 244.053 58.6067 244.192 58.832C243.343 59.924 242.277 61.0333 240.994 62.16C239.729 63.2693 238.325 64.344 236.782 65.384C235.239 66.4067 233.627 67.3427 231.946 68.192C230.265 69.0413 228.592 69.7347 226.928 70.272ZM229.71 58.806C229.485 58.5633 229.164 58.2773 228.748 57.948C228.349 57.6187 227.899 57.272 227.396 56.908C226.911 56.544 226.434 56.2147 225.966 55.92C225.498 55.608 225.091 55.374 224.744 55.218L226.824 52.592C227.171 52.7827 227.578 53.0253 228.046 53.32C228.514 53.6147 228.991 53.9353 229.476 54.282C229.979 54.6287 230.447 54.9753 230.88 55.322C231.313 55.6513 231.66 55.946 231.92 56.206L229.71 58.806Z" fill="#E94816"/>
<path d="M230.622 105.09L220.459 87.3104C220.332 87.102 220.17 87 220.003 87C219.837 87 219.67 87.102 219.547 87.3104L209.38 105.09C208.661 106.279 209.108 107.418 209.529 107.791C210.169 108.358 211.19 108.478 211.93 107.955L216.335 104.886V117H223.667V104.886L228.071 107.955C228.817 108.478 229.838 108.358 230.473 107.791C230.894 107.418 231.336 106.279 230.622 105.09Z" fill="#E94816"/>
<path d="M63.78 111.56C62.8867 111.56 62.0867 111.467 61.38 111.28C60.6867 111.08 60.0867 110.733 59.58 110.24C59.0867 109.733 58.68 109.02 58.36 108.1L60.48 106.94C60.6533 107.633 61.0067 108.16 61.54 108.52C62.0733 108.88 62.82 109.06 63.78 109.06C64.6333 109.06 65.5133 109.02 66.42 108.94C67.3267 108.86 68.18 108.747 68.98 108.6C69.78 108.453 70.44 108.287 70.96 108.1C70.96 108.313 70.9733 108.593 71 108.94C71.04 109.287 71.0867 109.627 71.14 109.96C71.2067 110.293 71.2667 110.553 71.32 110.74C70.7867 110.913 70.1067 111.06 69.28 111.18C68.4533 111.3 67.56 111.393 66.6 111.46C65.6533 111.527 64.7133 111.56 63.78 111.56ZM60.64 99.8L60.62 97.38C61.0067 97.5 61.4867 97.5933 62.06 97.66C62.6467 97.7267 63.2733 97.7667 63.94 97.78C64.62 97.7933 65.3 97.7867 65.98 97.76C66.66 97.72 67.2867 97.6667 67.86 97.6C68.4333 97.52 68.9067 97.42 69.28 97.3V99.74C68.9467 99.8467 68.4933 99.9333 67.92 100C67.3467 100.067 66.72 100.12 66.04 100.16C65.36 100.187 64.6733 100.193 63.98 100.18C63.2867 100.167 62.6467 100.127 62.06 100.06C61.4733 99.9933 61 99.9067 60.64 99.8ZM71.96 100.24C71.7067 99.8267 71.3667 99.3867 70.94 98.92C70.5133 98.4533 70.1333 98.0733 69.8 97.78L70.88 96.9C71.08 97.06 71.32 97.2933 71.6 97.6C71.8933 97.9067 72.18 98.22 72.46 98.54C72.74 98.8467 72.9533 99.1133 73.1 99.34L71.96 100.24ZM73.74 98.72C73.4867 98.3067 73.1467 97.8733 72.72 97.42C72.2933 96.9533 71.9067 96.58 71.56 96.3L72.66 95.4C72.86 95.56 73.1 95.7933 73.38 96.1C73.6733 96.3933 73.96 96.7 74.24 97.02C74.52 97.3267 74.7333 97.5933 74.88 97.82L73.74 98.72ZM82.6 113.64C82.56 113.307 82.5 112.893 82.42 112.4C82.3533 111.907 82.2667 111.513 82.16 111.22H84.06C84.34 111.22 84.54 111.173 84.66 111.08C84.78 110.987 84.84 110.807 84.84 110.54V104H77.02V101.8H85.66C85.0067 101.4 84.3333 101.013 83.64 100.64C82.9467 100.267 82.3667 99.98 81.9 99.78L83.16 98.04C83.5333 98.1867 83.98 98.3933 84.5 98.66C85.02 98.9267 85.5467 99.2133 86.08 99.52C86.32 99.3467 86.5867 99.1533 86.88 98.94C87.1733 98.7267 87.4533 98.52 87.72 98.32C88 98.1067 88.2133 97.94 88.36 97.82H78.66V95.8H92.22L92.96 96.66C92.5733 96.9933 92.0733 97.4 91.46 97.88C90.86 98.3467 90.24 98.82 89.6 99.3C88.96 99.78 88.3733 100.213 87.84 100.6C88.2 100.813 88.52 101.033 88.8 101.26L88.36 101.8H94.18L95 102.54C94.7467 102.927 94.4133 103.387 94 103.92C93.6 104.44 93.16 104.98 92.68 105.54C92.2133 106.1 91.7467 106.633 91.28 107.14C90.8133 107.633 90.3867 108.053 90 108.4C89.8133 108.187 89.5467 107.94 89.2 107.66C88.8533 107.367 88.5333 107.133 88.24 106.96C88.52 106.707 88.8333 106.407 89.18 106.06C89.5267 105.7 89.8667 105.34 90.2 104.98C90.5467 104.607 90.8333 104.28 91.06 104H87.22V111.5C87.22 112.247 87.0067 112.787 86.58 113.12C86.1533 113.467 85.5067 113.64 84.64 113.64H82.6ZM101.4 113.46V105.42C100.827 105.487 100.273 105.553 99.74 105.62C99.2067 105.687 98.7467 105.733 98.36 105.76L97.98 103.6C98.1933 103.6 98.4333 103.593 98.7 103.58C98.9667 103.567 99.2467 103.553 99.54 103.54C99.7533 103.313 99.9867 103.053 100.24 102.76C100.493 102.453 100.747 102.127 101 101.78C100.56 101.42 100.053 101.027 99.48 100.6C98.92 100.173 98.3867 99.8067 97.88 99.5L99.08 97.8C99.2 97.88 99.3267 97.9667 99.46 98.06C99.6067 98.14 99.7533 98.2267 99.9 98.32C100.1 98.0133 100.307 97.6667 100.52 97.28C100.747 96.8933 100.953 96.5133 101.14 96.14C101.34 95.7533 101.493 95.4333 101.6 95.18L103.48 96C103.16 96.56 102.813 97.1467 102.44 97.76C102.067 98.3733 101.713 98.9133 101.38 99.38C101.54 99.5 101.693 99.62 101.84 99.74C101.987 99.8467 102.12 99.9533 102.24 100.06C102.64 99.4733 103.007 98.9133 103.34 98.38C103.687 97.8467 103.947 97.4067 104.12 97.06L105.96 98.1C105.693 98.58 105.347 99.1267 104.92 99.74C104.507 100.34 104.067 100.953 103.6 101.58C103.133 102.207 102.68 102.8 102.24 103.36C102.587 103.333 102.92 103.307 103.24 103.28C103.56 103.24 103.853 103.207 104.12 103.18C104.04 103.007 103.953 102.847 103.86 102.7C103.78 102.553 103.7 102.413 103.62 102.28L105.36 101.46C105.387 101.513 105.413 101.56 105.44 101.6C105.48 101.64 105.513 101.687 105.54 101.74C105.967 101.14 106.36 100.467 106.72 99.72C107.08 98.96 107.387 98.1933 107.64 97.42C107.907 96.6467 108.093 95.9467 108.2 95.32L110.46 95.78C110.353 96.2333 110.227 96.7067 110.08 97.2C109.933 97.6933 109.767 98.1867 109.58 98.68H115.56V102.14C115.56 103.3 115.547 104.3 115.52 105.14C115.507 105.98 115.48 106.713 115.44 107.34C115.4 107.967 115.347 108.547 115.28 109.08C115.173 110.12 114.947 110.94 114.6 111.54C114.267 112.127 113.82 112.54 113.26 112.78C112.713 113.033 112.053 113.16 111.28 113.16H109.68C109.653 112.827 109.587 112.433 109.48 111.98C109.373 111.513 109.26 111.14 109.14 110.86H111.24C111.773 110.86 112.173 110.727 112.44 110.46C112.707 110.193 112.913 109.647 113.06 108.82C113.153 108.273 113.22 107.48 113.26 106.44C113.313 105.387 113.34 103.953 113.34 102.14V100.74H108.72C108.507 101.18 108.28 101.607 108.04 102.02C107.8 102.433 107.547 102.813 107.28 103.16C107.107 103.027 106.893 102.887 106.64 102.74C106.387 102.593 106.14 102.46 105.9 102.34C106.167 102.793 106.42 103.267 106.66 103.76C106.913 104.253 107.107 104.693 107.24 105.08C106.987 105.173 106.667 105.313 106.28 105.5C105.893 105.673 105.58 105.833 105.34 105.98C105.287 105.833 105.227 105.667 105.16 105.48C105.093 105.293 105.02 105.107 104.94 104.92C104.74 104.947 104.527 104.98 104.3 105.02C104.073 105.047 103.833 105.08 103.58 105.12V113.46H101.4ZM99.6 111.5C99.3467 111.393 99.02 111.28 98.62 111.16C98.22 111.04 97.8867 110.967 97.62 110.94C97.8333 110.58 98.04 110.127 98.24 109.58C98.44 109.033 98.6133 108.467 98.76 107.88C98.92 107.293 99.0333 106.76 99.1 106.28L101.02 106.66C100.967 107.14 100.86 107.687 100.7 108.3C100.553 108.913 100.38 109.507 100.18 110.08C99.9933 110.64 99.8 111.113 99.6 111.5ZM110.1 107.82C109.953 107.407 109.753 106.953 109.5 106.46C109.26 105.953 108.993 105.467 108.7 105C108.42 104.52 108.147 104.113 107.88 103.78L109.68 102.82C110.12 103.353 110.553 103.987 110.98 104.72C111.407 105.453 111.753 106.14 112.02 106.78C111.727 106.887 111.387 107.04 111 107.24C110.627 107.44 110.327 107.633 110.1 107.82ZM105.18 110.7C105.06 110.353 104.92 109.92 104.76 109.4C104.6 108.867 104.447 108.34 104.3 107.82C104.167 107.287 104.06 106.853 103.98 106.52L105.9 106.04C105.98 106.373 106.093 106.787 106.24 107.28C106.387 107.773 106.547 108.267 106.72 108.76C106.893 109.24 107.053 109.633 107.2 109.94C107.027 109.967 106.807 110.027 106.54 110.12C106.287 110.213 106.033 110.313 105.78 110.42C105.54 110.513 105.34 110.607 105.18 110.7ZM128.24 112.36C127.2 112.307 126.367 112 125.74 111.44C125.113 110.88 124.807 110.187 124.82 109.36C124.833 108.853 125 108.387 125.32 107.96C125.64 107.52 126.093 107.173 126.68 106.92C127.267 106.653 127.967 106.52 128.78 106.52C129.207 106.52 129.607 106.54 129.98 106.58C129.967 105.993 129.947 105.327 129.92 104.58C129.893 103.833 129.867 103.02 129.84 102.14C129.013 102.193 128.213 102.227 127.44 102.24C126.667 102.24 126.007 102.227 125.46 102.2L125.3 99.76C125.793 99.84 126.44 99.8867 127.24 99.9C128.053 99.9 128.907 99.88 129.8 99.84C129.787 99.3067 129.773 98.7667 129.76 98.22C129.76 97.66 129.76 97.0933 129.76 96.52H132.1C132.087 97.0267 132.073 97.5467 132.06 98.08C132.06 98.6133 132.06 99.1533 132.06 99.7C132.86 99.6333 133.587 99.56 134.24 99.48C134.893 99.3867 135.387 99.2867 135.72 99.18V101.58C135.347 101.66 134.84 101.733 134.2 101.8C133.56 101.867 132.867 101.933 132.12 102C132.147 102.973 132.18 103.907 132.22 104.8C132.26 105.68 132.293 106.453 132.32 107.12C133.067 107.387 133.787 107.727 134.48 108.14C135.173 108.553 135.853 109.013 136.52 109.52C136.373 109.64 136.2 109.827 136 110.08C135.813 110.32 135.64 110.573 135.48 110.84C135.32 111.093 135.2 111.307 135.12 111.48C134.227 110.667 133.307 110.013 132.36 109.52C132.267 110.573 131.86 111.327 131.14 111.78C130.433 112.22 129.467 112.413 128.24 112.36ZM120.82 112.6C120.727 112.08 120.653 111.413 120.6 110.6C120.547 109.773 120.507 108.86 120.48 107.86C120.467 106.847 120.467 105.807 120.48 104.74C120.493 103.66 120.527 102.607 120.58 101.58C120.633 100.553 120.7 99.6067 120.78 98.74C120.873 97.8733 120.98 97.1533 121.1 96.58L123.38 97.12C123.233 97.5867 123.107 98.2133 123 99C122.907 99.7867 122.833 100.667 122.78 101.64C122.727 102.6 122.693 103.593 122.68 104.62C122.667 105.647 122.673 106.647 122.7 107.62C122.74 108.58 122.793 109.46 122.86 110.26C122.94 111.06 123.033 111.707 123.14 112.2L120.82 112.6ZM128.42 110.32C128.967 110.32 129.373 110.213 129.64 110C129.92 109.773 130.06 109.373 130.06 108.8V108.66C129.607 108.553 129.133 108.487 128.64 108.46C128.147 108.447 127.747 108.527 127.44 108.7C127.147 108.873 126.993 109.1 126.98 109.38C126.967 109.66 127.093 109.887 127.36 110.06C127.627 110.233 127.98 110.32 128.42 110.32ZM147.78 111.56C146.887 111.56 146.087 111.467 145.38 111.28C144.687 111.08 144.087 110.727 143.58 110.22C143.087 109.713 142.68 109.007 142.36 108.1L144.48 106.94C144.653 107.633 145.007 108.16 145.54 108.52C146.073 108.88 146.82 109.06 147.78 109.06C148.633 109.06 149.513 109.02 150.42 108.94C151.327 108.86 152.18 108.747 152.98 108.6C153.78 108.453 154.44 108.287 154.96 108.1C154.96 108.313 154.973 108.593 155 108.94C155.04 109.287 155.087 109.627 155.14 109.96C155.207 110.293 155.267 110.553 155.32 110.74C154.787 110.913 154.107 111.06 153.28 111.18C152.453 111.3 151.56 111.393 150.6 111.46C149.653 111.527 148.713 111.56 147.78 111.56ZM144.64 99.8L144.62 97.38C145.007 97.5 145.487 97.5933 146.06 97.66C146.647 97.7267 147.273 97.7667 147.94 97.78C148.62 97.7933 149.3 97.7867 149.98 97.76C150.66 97.72 151.287 97.6667 151.86 97.6C152.433 97.52 152.907 97.42 153.28 97.3V99.74C152.947 99.8467 152.493 99.9333 151.92 100C151.347 100.067 150.72 100.12 150.04 100.16C149.36 100.187 148.673 100.193 147.98 100.18C147.287 100.167 146.647 100.127 146.06 100.06C145.473 99.9933 145 99.9067 144.64 99.8ZM168.14 113.16C168.1 112.933 168.02 112.66 167.9 112.34C167.793 112.033 167.667 111.733 167.52 111.44C167.373 111.133 167.22 110.887 167.06 110.7C169.287 110.873 171.04 110.707 172.32 110.2C173.6 109.68 174.24 108.873 174.24 107.78C174.24 107.193 173.993 106.727 173.5 106.38C173.02 106.033 172.407 105.86 171.66 105.86C170.793 105.86 169.913 106.027 169.02 106.36C168.127 106.68 167.32 107.227 166.6 108C166.547 108.067 166.487 108.14 166.42 108.22C166.367 108.287 166.307 108.353 166.24 108.42L164.3 107.04C164.94 106.413 165.487 105.567 165.94 104.5C166.393 103.433 166.747 102.313 167 101.14C165.147 101.207 163.567 101.207 162.26 101.14L162.1 98.78C162.687 98.86 163.447 98.9133 164.38 98.94C165.313 98.9533 166.32 98.94 167.4 98.9C167.56 97.6333 167.62 96.4867 167.58 95.46H170.1C170.1 96.4333 170.02 97.54 169.86 98.78C170.793 98.7133 171.693 98.6333 172.56 98.54C173.427 98.4467 174.213 98.3467 174.92 98.24C175.627 98.12 176.2 97.9933 176.64 97.86L176.48 100.22C175.693 100.393 174.673 100.553 173.42 100.7C172.167 100.833 170.853 100.94 169.48 101.02C169.347 101.633 169.193 102.247 169.02 102.86C168.86 103.473 168.667 104.067 168.44 104.64C169.027 104.333 169.6 104.1 170.16 103.94C170.733 103.767 171.3 103.68 171.86 103.68C172.807 103.667 173.647 103.827 174.38 104.16C175.127 104.493 175.713 104.973 176.14 105.6C176.567 106.213 176.78 106.953 176.78 107.82C176.78 109.58 176.04 110.933 174.56 111.88C173.08 112.827 170.94 113.253 168.14 113.16ZM189.46 113.06C189.42 112.86 189.34 112.607 189.22 112.3C189.113 111.993 188.98 111.687 188.82 111.38C188.66 111.073 188.5 110.833 188.34 110.66C190.473 110.713 192.1 110.46 193.22 109.9C194.353 109.34 194.92 108.547 194.92 107.52C194.92 106.92 194.68 106.453 194.2 106.12C193.72 105.787 193.093 105.62 192.32 105.62C191.72 105.62 191.08 105.713 190.4 105.9C189.72 106.073 189.073 106.367 188.46 106.78C187.86 107.18 187.353 107.72 186.94 108.4L184.8 107.46C185.067 106.993 185.293 106.413 185.48 105.72C185.68 105.013 185.84 104.28 185.96 103.52C186.08 102.76 186.167 102.04 186.22 101.36C186.273 100.68 186.28 100.12 186.24 99.68L188.74 99.98C188.753 100.633 188.7 101.407 188.58 102.3C188.46 103.18 188.273 104.053 188.02 104.92C188.727 104.453 189.467 104.093 190.24 103.84C191.013 103.587 191.74 103.46 192.42 103.46C193.46 103.46 194.36 103.64 195.12 104C195.893 104.347 196.493 104.833 196.92 105.46C197.347 106.073 197.56 106.78 197.56 107.58C197.56 108.593 197.267 109.507 196.68 110.32C196.107 111.12 195.22 111.76 194.02 112.24C192.833 112.72 191.313 112.993 189.46 113.06ZM192.78 100.24C192.447 99.9733 192.047 99.7067 191.58 99.44C191.127 99.1733 190.647 98.92 190.14 98.68C189.633 98.44 189.133 98.2333 188.64 98.06C188.16 97.8733 187.733 97.7467 187.36 97.68L188.56 95.6C188.907 95.6933 189.32 95.84 189.8 96.04C190.28 96.2267 190.78 96.44 191.3 96.68C191.833 96.92 192.333 97.16 192.8 97.4C193.28 97.64 193.673 97.86 193.98 98.06L192.78 100.24Z" fill="#E94816"/>
<g clip-path="url(#clip1_247_1404)">
<path d="M273.028 59.9999C273.028 59.1459 273.715 58.4473 274.554 58.4473L284.474 58.4473C285.313 58.4473 286 59.1459 286 59.9999C286 60.8538 285.313 61.5525 284.474 61.5525L274.554 61.5525C273.715 61.5525 273.028 60.8538 273.028 59.9999Z" fill="white"/>
<path d="M267 37.0988C267 36.5631 267.275 36.043 267.763 35.7558L276.347 30.7097C277.08 30.2827 278.011 30.5389 278.431 31.2764C278.85 32.0217 278.598 32.9688 277.874 33.3958L269.282 38.4418C268.549 38.8688 267.618 38.6126 267.198 37.8751C267.061 37.6344 266.992 37.3627 266.992 37.0988L267 37.0988Z" fill="white"/>
<path d="M267 82.9014C267 82.6374 267.069 82.3735 267.206 82.125C267.626 81.3798 268.564 81.1313 269.289 81.5583L277.881 86.6044C278.614 87.0313 278.858 87.9785 278.438 88.7237C278.018 89.469 277.08 89.7174 276.355 89.2904L267.763 84.2444C267.275 83.9571 267 83.437 267 82.9014Z" fill="white"/>
</g>
<defs>
<clipPath id="clip0_247_1404">
<rect width="59" height="19" fill="white" transform="translate(0 89.5) rotate(-90)"/>
</clipPath>
<clipPath id="clip1_247_1404">
<rect width="59" height="19" fill="white" transform="translate(286 30.5) rotate(90)"/>
</clipPath>
</defs>
</svg>
