<?xml version="1.0" encoding="UTF-8"?>
<svg id="_レイヤー_2" data-name="レイヤー 2" xmlns="http://www.w3.org/2000/svg" viewBox="0 0 244.42 85.53">
  <defs>
    <style>
      .cls-1 {
        fill: #00418d;
      }

      .cls-1, .cls-2, .cls-3, .cls-4, .cls-5 {
        stroke-width: 0px;
      }

      .cls-2 {
        fill: #3d423e;
        fill-rule: evenodd;
      }

      .cls-3 {
        fill: #e94816;
      }

      .cls-4 {
        fill: #efbb3f;
      }

      .cls-5 {
        fill: #009479;
      }
    </style>
  </defs>
  <g id="_レイヤー_1-2" data-name="レイヤー 1">
    <g>
      <path class="cls-2" d="m77.02,18.13l-5.64,26.56c-.61,2.86-2.3,5.21-4.54,6.7-2.24,1.48-5.04,2.1-7.85,1.51-2.82-.6-5.12-2.3-6.56-4.57-1.44-2.27-2.04-5.1-1.43-7.97.61-2.86,2.3-5.21,4.54-6.7,2.24-1.48,5.04-2.1,7.85-1.51,1.36.29,2.61.84,3.7,1.6.67.46,1.27,1,1.81,1.59l6.03-28.38c.09-.41.48-.67.89-.59.24.05.43.21.52.42,1.62,3.05,4.16,5,6.55,6.83,5.19,3.98,9.77,7.5,4.79,19.83-.16.38-.59.57-.97.42-.32-.13-.5-.47-.45-.8.62-4.51-.32-7.65-2.19-9.98-1.72-2.16-4.25-3.68-7.04-4.97h0Z"/>
      <path class="cls-2" d="m173.05,26.7l2.8,19.04c.3,2.07-.26,4.07-1.42,5.63h0c-1.16,1.56-2.91,2.68-4.98,2.98-2.07.3-4.07-.26-5.63-1.42h0c-1.56-1.16-2.67-2.92-2.98-4.99-.3-2.07.26-4.07,1.42-5.63h0c1.16-1.56,2.91-2.68,4.98-2.98,1-.15,1.99-.09,2.93.14.47.12.93.28,1.37.49l-3.22-21.89c-.05-.33.15-.64.45-.75l25.67-11.32c.35-.15.75,0,.9.35.02.06.04.12.05.18l4.15,28.17c.31,2.07-.26,4.07-1.41,5.63h0c-1.16,1.56-2.91,2.68-4.98,2.98s-4.07-.26-5.63-1.42l-.04-.04c-1.53-1.16-2.63-2.9-2.93-4.95-.3-2.05.26-4.07,1.42-5.63,1.15-1.56,2.91-2.68,4.98-2.98,1-.15,1.99-.09,2.93.14.47.12.93.28,1.37.49l-1.66-11.27-20.52,9.05h0Z"/>
      <path class="cls-1" d="m208.47,69.6c2.2-4.06,4.38-8.09,5.69-12.56,1.01-3.43,1.04-3.7-2.34-4.29-2.28-.4-2.27-.85-1.05-2.85,2.13-3.49,4.02-7.13,5.87-10.78.75-1.47-.6-1.19-1.37-1.17-.61.01-1.32.16-1.61-.47-.36-.77.61-.88.9-1.35,2.57-4.25,5.29-8.43,7.66-12.79,1.73-3.19,4.38-3.83,6.52-.9,2.63,3.6,4.91,7.45,7.37,11.17.66,1,1.41,1.95,2.17,2.88.94,1.16,1.16,2.08-.76,2.12-1.9.04-1.77,1.17-1.5,2.46.7,3.4,2.7,6.06,4.88,8.61,1.29,1.5,1.03,2.8-.81,2.8-2.71,0-1.84,1.55-1.53,2.83,1.06,4.45,2.88,8.61,5.29,12.48,1.06,1.7.62,2.18-1.17,2.32-1.78.14-3.52.67-5.33.03-.7-.25-1.53-.18-2.3-.17-4.03.07-4.58.62-4.36,4.53.1,1.78.39,3.54.58,5.31.09.85-.12,1.88-1.12,1.44-2.7-1.21-5.21-.15-7.77.29-1.33.23-1.53-.03-1.09-1.27.87-2.45.92-5.02,1.01-7.6.05-1.32-.41-1.69-1.68-1.94-3.19-.63-6.35-1.13-9.61-.73-.78.1-1.69.22-2.53-.4Zm14.4,6.3c-.06,1.29,0,2.5-.2,3.67-.18,1.04.52,1.07,1.01.93,2.14-.61,4.25-1.05,6.44-.3.39-2.19-.45-4.31-.37-6.49,0-.25-.17-.5-.15-.75.12-1.39-.4-1.82-1.87-1.83-4.43-.04-4.43-.12-4.8,4.37-.01.17-.06.34-.07.4Zm10.62-25.08c.01-1.88-1.74-4.74-2.96-4.72-1.03,0-1.56.64-1.6,1.64-.07,1.64,1.95,5.06,2.97,5.01,1.19-.06,1.58-.85,1.58-1.93Zm-9-16.89c.23-1.3.05-2.18-1.11-2.46-1.09-.26-3.22,2.4-3.59,4.44-.2,1.1.24,2.06,1.35,1.97,2.47-.2,2.57-2.56,3.36-3.95Zm-1.76,15.21c0-.17.04-.68,0-1.18-.09-.96-.58-1.66-1.58-1.65-.99,0-1.63.71-1.57,1.65.09,1.55-1.53,3.37.54,4.63.78.48,1.46-.02,1.95-.69.53-.72.61-1.57.67-2.76Zm5.57,9.52c-.13-1.22.35-3.01-1.62-3.12-1.77-.1-1.76,1.52-1.81,2.79-.06,1.37-.17,3.01,1.77,3.04,1.63.03,1.58-1.45,1.67-2.71Zm3.55-23.45c.11-1.1-1.91-3.03-3.1-3.04-.89,0-1.42.34-1.54.98-.15.84,1.96,3.01,2.98,3.06,1.03.05,1.52-.4,1.66-1Zm4.75,24.62c-.27-1.31-.78-2.65-2.57-2.83-1.02-.1-1.83.52-1.58,1.49.37,1.44.95,3.03,2.74,3.25,1.02.12,1.45-.72,1.41-1.91Zm-8.93-19.05c-.23-1.13-.25-2.6-1.96-2.67-1.13-.04-1.65.87-1.52,1.9.15,1.19,0,2.77,1.76,2.91,1.29.1,1.67-.9,1.72-2.14Zm-10.33,19.44c-.15,1.12.08,2.12,1.22,2.22,1.85.17,2.06-1.49,2.43-2.73.3-1.03-.21-1.97-1.35-2-1.64-.04-1.93,1.37-2.3,2.51Z"/>
      <g>
        <path class="cls-5" d="m200.7,69.12c2.14.06,3.35,1.02,3.78,3.14.33,1.59,1.37,2.62,2.66,3.38,1.39.82,1.34,1.92,1.17,3.06-.14.92-1.25,1.71-2.34,1.81-.33.03-.66.03-.99.01-1.66-.1-1.73-.03-1.8,1.7-.03.78-.03,1.53-.54,2.24-.87,1.2-2.06,1.15-3.27,1-.95-.12-1.8-.61-2.61-1.11-.44-.28-.69-.7-.5-1.27.14-.41.26-.81.4-1.22.43-1.24-.26-2.26-1.58-2.27-.89,0-1.77-.03-2.63-.34-.73-.26-1.27-.67-1.43-1.47-.17-.84.18-1.47.8-2,.54-.46,1.2-.68,1.85-.9,1.54-.53,2.67-1.45,3.27-3.01.73-1.9,2.01-2.79,3.74-2.74Zm-4,10.27c.55,1.04.91,1.93.34,3.03-.57,1.1-.41,1.29.67,1.8.21.1.4.23.61.33,1.95.94,4.49.58,4.36-2.47,0-.2,0-.4.04-.59.24-1.25.23-1.2-1-1.45-.69-.15-.65.37-.86.69-.12.19-.17.47-.47.42-.31-.05-.27-.32-.3-.54-.04-.29-.06-.61-.18-.87-.25-.55-.75-.58-1.26-.44-.58.15-.09.43-.06.65.03.19.12.44-.09.54-.34.16-.32-.18-.42-.37-.27-.5-.68-.77-1.37-.73Zm2.84-6.55c-.03-.4.1-.94-.52-.99-.6-.04-.63.51-.65.92-.04.54-.69,1.4.33,1.51.78.08.73-.83.84-1.44Zm-4.64,3.61c-.02-.33-.22-.51-.55-.56-.52-.07-1.42.68-1.49,1.23-.04.34.1.58.44.65.31.06,1.58-.99,1.6-1.32Zm10.88-.3c-.39.05-.63.26-.54.59.14.51.2,1.15.87,1.27.41.07.59-.27.54-.63-.07-.56-.27-1.07-.87-1.23Zm-4.54-.04c.42-.02.7-.24.74-.65.04-.46-.23-.77-.69-.79-.46-.02-.75.28-.74.74,0,.42.27.65.69.7Zm1.68-3.74c-.03-.36-.24-.65-.65-.68-.46-.03-.77.24-.78.7-.01.46.28.74.75.73.42-.01.65-.27.69-.75Z"/>
        <path class="cls-5" d="m209.15,74.29c-.07,0,.05-.02.15.01,1.53.41,2.8,1.36,3.86,2.38.98.94.22,2.55-1.26,3.28-1.27.62-1.35.75-.43,1.74.6.65.88,1.3.33,2-.57.72-1.47.86-2.37.78-.31-.03-.49-.25-.62-.54-.42-.97-.15-2.17-1.06-2.97-.03-.03.01-.23.07-.27.18-.13.32,0,.47.12.64.54.68,1.31.83,2.04.12.56.04,1.28,1.08,1.03,1.38-.33,1.57-.72.73-1.85-.11-.14-.22-.29-.29-.46-.28-.64-.31-1.38-1.44-1.34-.55.02-1.09-.61-.65-1.47.57-1.11.33-2.24-.23-3.3-.56-1.07-.53-1.17.83-1.18Zm2.07,4.5c.37-.03.62-.2.65-.59.03-.38-.19-.62-.56-.67-.38-.06-.67.13-.71.5-.05.42.2.66.62.76Z"/>
      </g>
      <g>
        <path class="cls-1" d="m119.41,50.14c-.07-5.03.33-9.57.72-14.1.22-2.51.5-5.01.74-7.52.07-.74.24-1.5,1.14-1.37.79.11.61.9.69,1.5.52,3.93.49,7.94,1.57,11.8.47,1.69,1.05,2,2.28.58.84-.97,2.01-1.65,2.57-2.88.21-.46.61-.69,1.13-.54.53.15.62.56.62,1.08,0,1.24-.21,2.42-.61,3.6-3.19,9.32-3.44,18.9-2.07,28.5.44,3.05,1.46,6.29,4.25,8.41.47.35.89.85.9,1.59-1.01.37-1.95.13-2.8-.39-5.91-3.58-12.11-2.59-18.35-1.27-1.02.22-2.25,1.57-3.01.39-.76-1.17.78-2.01,1.57-2.72,3.37-3.01,4.28-6.98,4.38-11.18.18-7.7-1.4-14.98-5.6-21.57-.29-.46-.65-.94-.34-1.48.46-.81,1.05-.07,1.59-.07,2.6,0,3.34,2.43,4.93,3.73,1.25,1.03,2.26,2.36,3.71,3.92Z"/>
        <path class="cls-5" d="m118.99,0c2.28-.1,7.12,3.1,6.98,5.45-.12,2.04-3.86,6.5-5.61,6.46-2.6-.06-6.51-3.56-6.41-5.74C114.1,2.86,116.47-.03,118.99,0Z"/>
        <path class="cls-4" d="m110.63,19.69c-4.56-.53-4.9-.48-5.26-5.93-.12-1.94,2.67-4.34,4.86-4.32,2.86.02,5.87,2.95,5.84,5.69-.03,2.52-2.44,4.54-5.44,4.56Z"/>
        <path class="cls-5" d="m102.77,43.07c-3.69-.1-5.01-1.51-4.99-5.3.02-2.48,2.66-5.32,4.99-5.09,3.04.3,5.61,2.74,5.56,5-.06,2.99-2.57,5.46-5.56,5.38Z"/>
        <path class="cls-4" d="m146.9,34.95c1.94,1.13,2.06,3.7.32,6.85-.99,1.78-5.26,2.9-7.16,1.87-1.78-.97-2.96-5.54-1.86-7.21,1.76-2.68,5.55-3.34,8.69-1.51Z"/>
        <path class="cls-5" d="m128.77,38.93c-2.68.05-5.11-2.38-5.15-5.17-.04-2.62,2.24-5.21,4.63-5.26,3.5-.08,5.95,1.95,6.01,4.96.05,2.87-2.5,5.41-5.49,5.47Z"/>
        <path class="cls-5" d="m141.97,58.42c-2.75-.13-4.41-1.93-4.29-4.69.13-3.25,2.05-5.51,4.55-5.39,3.16.15,5.87,2.17,5.79,4.29-.17,4.22-2,5.97-6.04,5.78Z"/>
        <path class="cls-5" d="m115.24,50.28c2.92-.05,5.43,1.91,5.44,4.25.01,2.93-2.21,5.47-4.91,5.6-2.59.13-5.04-2.16-5.04-4.7,0-2.83,1.99-5.1,4.51-5.15Z"/>
        <path class="cls-4" d="m142.84,16.98c.01,2.18-1.69,4.33-3.4,4.3-3.01-.05-4.96-1.72-5.02-4.31-.06-2.28,1.87-4.22,4.2-4.22,2.24,0,4.21,1.97,4.22,4.23Z"/>
        <path class="cls-5" d="m99.62,47.13c.09,3.46-1.38,5.47-3.86,5.56-1.9.07-3.37-1.36-3.43-3.35-.1-3.06,1.82-5.55,4.33-5.65,2.65-.1,2.54,2.01,2.96,3.43Z"/>
        <path class="cls-3" d="m131.53,49.25c-2.22.07-4.17-1.74-4.16-3.86,0-1.62,2.12-3.77,3.74-3.81,1.67-.04,3.88,1.98,3.9,3.57.03,2.44-1.33,4.04-3.48,4.11Z"/>
        <path class="cls-5" d="m137.04,28.53c0-1.68,1.87-3.65,3.43-3.62,1.85.04,3.65,1.64,3.68,3.25.03,2.17-1.64,4-3.57,3.91-1.65-.08-3.54-1.98-3.53-3.54Z"/>
        <path class="cls-5" d="m117.47,42.27c-2.03.04-3.7-1.4-3.5-3.26.22-2.02,1.45-3.25,3.55-3.4,1.78-.13,3.47,1.52,3.52,3.37.05,1.75-1.59,3.25-3.58,3.3Z"/>
        <path class="cls-3" d="m103.75,28.27c-1.99-.01-3.3-1.36-3.3-3.39,0-2.2,1.28-3.38,3.62-3.33,1.89.04,3.1,1.49,3.06,3.66-.03,1.77-1.47,3.06-3.38,3.05Z"/>
        <path class="cls-5" d="m131.53,5.07c1.66,0,3.4,1.46,3.17,3.34-.21,1.71-1.18,3.05-3.07,3.2-1.99.16-3.86-1.46-3.71-3.28.15-1.82.84-3.35,3.62-3.27Z"/>
        <path class="cls-3" d="m127.85,23.94c.04-2.06.81-3.42,3.15-3.38,1.82.03,3.95,2.15,3.76,4.03-.19,1.81-1.63,2.57-3.21,2.72-1.96.18-3.67-1.53-3.69-3.37Z"/>
        <path class="cls-3" d="m110.49,46.36c-.16,2.44-1.21,3.43-3.5,3.38-2.19-.05-2.86-1.66-3.22-3.34-.26-1.19,2.13-3.22,3.48-3.2,1.86.04,3.36,1.49,3.25,3.16Z"/>
        <path class="cls-4" d="m103.4,51.13c2.1.08,3.77,1.79,3.72,3.51-.04,1.45-2.08,3.37-3.5,3.09-1.75-.35-3.39-1.13-3.16-3.31.19-1.84,1.24-3.1,2.94-3.28Z"/>
        <path class="cls-5" d="m121.55,23.57c-.13,1.73-1.15,2.86-3.24,2.82-1.91-.04-3.03-1.15-3.31-2.95-.22-1.41,1.7-3.68,2.95-3.74,1.83-.09,3.61,1.67,3.6,3.88Z"/>
        <path class="cls-5" d="m150.08,49.31c-2.45.26-2.94-1.41-3.06-3.21-.15-2.21,1.63-2.76,3.22-2.84,1.81-.09,3.15,1.18,3.09,3-.06,1.83-1.08,3.23-3.24,3.05Z"/>
        <path class="cls-4" d="m131.18,60.53c-2.31.09-2.98-1.1-2.97-2.88,0-2.02.97-3.18,3.08-3.21,2.03-.04,2.9,1.31,3.11,2.99.22,1.74-1.46,3.09-3.22,3.1Z"/>
        <path class="cls-5" d="m112.38,28.42c-.39,1.18-1.03,2.04-2.17,1.98-1.28-.06-2.01-.92-1.87-2.26.12-1.15.98-1.58,2-1.56,1.2.03,1.75.86,2.04,1.83Z"/>
        <path class="cls-5" d="m127.36,15.14c-.17,1.28-.66,1.92-1.86,1.86-1.3-.07-1.86-.84-1.8-1.99.06-1.15.92-1.56,1.98-1.54,1.21.03,1.52.88,1.68,1.67Z"/>
        <path class="cls-5" d="m110.35,32.42c-.05.76-.35,1.25-1.2,1.29-.9.05-1.51-.29-1.56-1.22-.04-.76.42-1.25,1.2-1.35.95-.12,1.36.45,1.56,1.27Z"/>
      </g>
      <path class="cls-3" d="m151.91,79.62c-.21.01-.47.08-.44.24.31,2.22-1.42,1.36-2.4,1.61-.13.03-.26.09-.54.19.88.52,1.76.8,2.32,1.55.27.36.8.24,1.19.15.35-.08.54-.47.39-.79-.55-1.19.23-1.71,1.04-2.25.46-.31.91-.63,1.37-.95.02-.09.01-.2.07-.26.5-.5,1.15-.99,1.01-1.77-.17-.9-1.12.22-1.51-.52.29-.61,1.03-.49,1.5-.8.25-.17.52-.48.88-.22.36.27.07.6.06.91-.11,1.9-1.36,2.99-2.74,4.05-.47.36-1.3.6-.99,1.49.29.82-.04,1.5-.7,1.78-.72.3-1.71.33-2.22-.37-.61-.83-1.49-1.23-2.29-1.18-1.32.07-2.82-.99-4,.76-.76,1.13-1.72.77-2.2-.56-.28-.78-.41-1.67-1.3-2.07-1.75-.78-2.77-2.14-3.27-3.98-.17-.62-.21-.84.47-1.12,1.67-.7,2.88-1.9,3.02-3.8.09-1.09.59-1.96,1.03-2.89.5.16.1.62.45.91.79-1.19,2.12-1.12,3.3-1.4.15.6-.23,1.17.12,1.75.63-.22,1.25-.45,1.88-.64.34-.1.72-.39,1.03.01.36.46-.13.73-.3,1.08,3.05-.04,3.45.25,2.61,1.84,1.41.52,2.81,1.04,4.04,1.96.82.61.66,1.02-.17,1.42-.48.23-1.1.23-1.47.87,1.27.51,1.31,1.73,1.68,2.77-.98.08-1.95.17-2.93.25Zm-7.09.94c-.97-.02-1.55-.45-2.08-1.16-.15-.21-.34-.52-.18-.59,1.17-.55.51-2.24,1.75-2.75.31-.13.35-.77-.07-.69-1.17.23-1.8-.67-2.66-1.05-.68-.3-1.15-.29-1.63.25-.22.25-.42.52-.66.74-1.6,1.51-1.58,2.79.35,3.92,1.36.8,2.51,1.63,2.86,3.22.18.82.69.68.92.22.68-1.4,1.71-1.38,2.97-1.04.52.14,1.12.2,1.68-.25-1.02-.65-2.15-.81-3.26-.83Zm2.02-8.39c-.83-.24-1.53.05-2.17.56-.04.04.03.34.07.34.86.12,1.56-.21,2.22-.68-.08-.15-.09-.21-.12-.22Z"/>
      <path class="cls-1" d="m57.36,63.47c-2.18.43-3.28,1.54-4.53,2.38-5.1,3.42-10.73,3.36-16.52,2.7-3.06-.35-3.26-.05-2.64,2.76.57,2.56.96,5.16,2.19,7.55.81,1.57.42,2.35-1.65,2.33-3.01-.03-6.02.21-9.02.43-1.61.11-1.98-.36-1.72-1.94.41-2.57.44-5.19.7-7.79.11-1.13-.07-1.48-1.4-1.21-7.05,1.43-14.12-.27-21.18,0-.52.02-1.36-.25-1.52-.6-.29-.63.36-1.07.87-1.56,6.07-5.89,9.88-13.08,12.71-20.82.63-1.71-.15-2.07-1.75-2.2-3.03-.23-3.35-.84-1.75-3.49,4.04-6.71,8.2-13.36,12.22-20.09,1.23-2.06,2.36-1.53,3.55-.17,2.57,2.92,5.06,5.9,7.64,8.82,2.46,2.78,4.95,5.53,7.47,8.25,1.43,1.55,1.64,2.8-.74,3.53-2.07.64-2.16,1.47-.89,3.18,2.47,3.35,4.81,6.76,8.15,9.41,3.23,2.56,5.84,5.78,9.81,8.53Zm-27.8,16.45c.78-.01,1.56-.07,2.34-.03,2.12.1,2.96-.65,1.81-2.6-1.1-1.85-1.32-3.97-1.53-5.94-.33-3.15-1.83-3.09-4.31-2.44-1.64.43-2.26,1.1-2.16,2.71.08,1.29-.09,2.6-.25,3.89-.57,4.55-.59,4.55,4.11,4.4Zm-6.92-30.47c.09-1.97-.25-3.33-1.65-3.17-2.67.3-2.11,2.74-2.46,4.42-.24,1.16.54,2.19,1.8,1.96,2.19-.39,2.14-2.31,2.31-3.22Zm6.05-12.63c.31,1.39-.1,3.77,2.44,3.51,2.55-.26,1.31-2.4,1.28-3.86,0-.09-.02-.19-.03-.28-.17-1.23-.65-2.3-2.14-2.14-1.55.17-1.58,1.41-1.54,2.76Zm-6.48,21.38c.57,1.02.02,3.12,2.38,3.24,1.34.07,1.92-.99,1.75-2.07-.24-1.47-.09-3.43-2.24-3.71-1.48-.19-1.88.97-1.89,2.53Zm13.54-3c-1.29.18-2.06.85-1.77,1.92.43,1.62,1.06,3.35,3.18,3.53,1.19.1,1.84-.79,1.62-1.84-.35-1.7-1.23-3.12-3.03-3.61Zm-6.03-7.87c-.26-1.28-.08-3.11-2.31-3.12-1.38,0-1.78,1.11-1.57,2.21.27,1.45-.18,3.56,2.29,3.56,1.54,0,1.66-1.31,1.6-2.65Zm-14.71,17.07c1.75-.38,2.18-1.89,2.48-3.31.22-1.02-.48-1.92-1.61-1.85-2.07.13-2.53,1.8-2.73,3.37-.13,1.02.61,1.7,1.86,1.78Zm9.79-27.55c-.05-1.31-.34-2.64-2.02-2.53-1.69.11-1.71,1.53-1.68,2.8.02,1.31.29,2.66,1.98,2.53,1.64-.12,1.76-1.5,1.72-2.8Zm18.65,18.36c-1.3.15-2.05.86-1.75,1.9.42,1.44,1.2,2.92,3.03,3.03,1.14.06,1.76-.82,1.59-1.92-.25-1.64-1.26-2.68-2.87-3.01Zm-5.51-6.3c-.2-1.15-.55-2.42-2.15-2.44-1.37-.02-1.77.99-1.65,2.15.14,1.27.52,2.53,2.14,2.54,1.37.01,1.75-.96,1.66-2.25Z"/>
    </g>
  </g>
</svg>