<svg width="86" height="96" viewBox="0 0 86 96" fill="none" xmlns="http://www.w3.org/2000/svg">
<path fill-rule="evenodd" clip-rule="evenodd" d="M59.5209 25.023L43.5555 79.4753C41.8342 85.3459 37.8994 89.9609 32.9349 92.6828C27.9648 95.403 21.9617 96.2262 16.098 94.5069C10.2343 92.7877 5.62646 88.8519 2.91169 83.88C0.201186 78.9093 -0.618305 72.8989 1.10256 67.0296C2.82342 61.1604 6.75742 56.5483 11.7218 53.8264C16.6905 51.1057 22.6994 50.2842 28.5588 52.0022C31.4003 52.8354 33.9577 54.1997 36.1479 55.9516C37.4862 57.0235 38.6847 58.2401 39.7273 59.572L56.7851 1.39402C57.0317 0.553113 57.9094 0.0690895 58.7494 0.315351C59.2462 0.46102 59.6163 0.828014 59.7861 1.27712C62.7523 7.91699 67.8141 12.3976 72.595 16.6288C82.9627 25.8071 92.1108 33.9035 79.7008 58.7876C79.311 59.5633 78.3625 59.8826 77.5823 59.496C76.9243 59.1669 76.5964 58.4346 76.7457 57.7462C78.7518 48.4363 77.223 41.7396 73.6415 36.5708C70.327 31.7776 65.2211 28.191 59.5209 25.023Z" fill="#E94816"/>
</svg>
