<svg width="71" height="176" viewBox="0 0 71 176" fill="none" xmlns="http://www.w3.org/2000/svg">
<path d="M66.7369 94.8569C62.3792 84.3512 54.9029 80.8885 48.8056 79.9657C44.7336 79.3306 40.5649 79.8418 36.6436 81.1406L34.7888 81.8028L27.7175 67.3808C27.7175 67.3808 42.2771 48.1676 33.2776 22.6757C31.0652 16.2894 24.589 8.25836 22.065 5.25127C21.0038 3.97928 19.7544 2.84182 18.3404 1.99898C15.3395 0.206615 10.5093 -1.1349 7.42921 5.82692C2.68066 16.6187 4.69549 29.4431 5.89146 34.7773C6.22193 36.1754 6.64216 37.5415 7.13289 38.9161C8.75675 43.0868 13.0949 54.1047 15.1942 56.0169C15.1942 56.0169 -10.5793 94.9334 5.06404 117.683C18.7795 137.583 38.7343 139.151 53.7266 130.598C53.7266 130.598 75.5568 159.056 55.9215 168.02C51.1132 170.141 46.5266 168.915 46.5266 168.915C46.5266 168.915 59.4179 161.752 50.6631 151.401C43.8877 143.477 34.5368 150.353 34.5368 150.353C34.5368 150.353 24.8691 158.42 33.3634 168.324C41.8578 178.229 53.209 174.783 53.209 174.783C53.209 174.783 72.3424 169.705 70.3018 152.745C70.0507 150.814 69.479 148.929 68.7279 147.108C66.8862 142.611 62.3556 131.999 58.5851 126.539C58.5851 126.539 74.8759 114.726 66.7283 94.9273L66.7369 94.8569ZM18.5897 16.3971C19.6329 15.3508 22.6285 14.9552 24.623 17.1406C31.2595 29.4943 18.8632 50.7989 18.8632 50.7989C6.73568 25.6152 18.6196 16.3864 18.6196 16.3864L18.5897 16.3971ZM36.2178 129.74C19.2322 129.403 13.9012 117.021 13.9012 117.021C13.9012 117.021 11.2391 112.682 11.2955 102.352C11.3519 92.0228 23.9288 72.6414 23.9288 72.6414L29.8668 84.7391C29.8668 84.7391 22.4742 89.1639 21.0244 100.126C18.653 117.009 36.0655 122.416 36.0655 122.416C36.0655 122.416 41.0406 124.447 43.0096 122.026C44.9892 119.635 41.3212 118.62 41.3212 118.62C41.3212 118.62 40.6547 118.453 39.7467 118.272C37.6787 117.865 33.9126 116.48 31.2635 111.8C26.9749 104.133 36.5056 96.7214 36.5056 96.7214L51.4622 125.578C51.4622 125.578 47.4503 128.796 36.2478 129.729L36.2178 129.74ZM56.1261 121.824L41.7411 94.8523C42.301 94.7198 42.8608 94.5873 43.3715 94.5061C50.3308 93.4029 56.8282 97.6194 59.812 103.899C64.5929 113.984 56.1261 121.824 56.1261 121.824Z" fill="#EFBB3F"/>
</svg>
