<svg width="131" height="90" viewBox="0 0 131 90" fill="none" xmlns="http://www.w3.org/2000/svg">
<path fill-rule="evenodd" clip-rule="evenodd" d="M56.6116 25.7495L36.5908 68.877C34.4114 73.5718 30.5378 76.9385 26.0329 78.5864L26.0246 78.593C21.5239 80.2429 16.3885 80.1775 11.705 78.0033C7.02144 75.8291 3.65706 71.9486 2.00823 67.4441L2.00792 67.4334C0.359091 62.9288 0.431366 57.7957 2.61015 53.1023C4.78893 48.4089 8.66316 45.0408 13.1681 43.3929L13.1764 43.3863C17.6813 41.7384 22.8105 41.8061 27.4983 43.9823C29.7697 45.0368 31.7362 46.5 33.3508 48.2437C34.1716 49.1297 34.8982 50.0908 35.525 51.1052L58.5434 1.52053C58.8897 0.774479 59.7113 0.39933 60.4853 0.589156L128.842 12.0047C129.76 12.1584 130.382 13.0269 130.227 13.9459C130.2 14.0977 130.154 14.2437 130.091 14.3774L100.479 78.1779C98.3015 82.8684 94.428 86.2352 89.9254 87.8893L89.9127 87.8939C85.4035 89.5398 80.2758 89.4728 75.5951 87.2999C70.9145 85.1271 67.5366 81.2456 65.8921 76.743L65.8493 76.6096C64.2516 72.134 64.3415 67.0492 66.4983 62.4033C68.6551 57.7573 72.5556 54.3437 77.0626 52.6915C81.5609 51.0354 86.6943 51.105 91.3865 53.2832C93.6579 54.3377 95.6243 55.801 97.2432 57.5467C98.064 58.4327 98.7906 59.3938 99.4175 60.4081L111.27 34.8755L56.6137 25.7487L56.6116 25.7495Z" fill="#EFBB3F"/>
</svg>
