<svg width="98" height="130" viewBox="0 0 98 130" fill="none" xmlns="http://www.w3.org/2000/svg">
<path d="M43.4637 80.4977C43.3513 72.4226 43.9935 65.1342 44.6196 57.8618C44.9728 53.8323 45.4223 49.8188 45.8075 45.7893C45.9199 44.6013 46.1928 43.3812 47.6377 43.5899C48.9059 43.7665 48.617 45.0348 48.7454 45.998C49.5802 52.3072 49.532 58.7448 51.2659 64.9416C52.0204 67.6547 52.9515 68.1523 54.9261 65.8727C56.2747 64.3154 58.153 63.2238 59.052 61.2492C59.3891 60.5107 60.0313 60.1414 60.8661 60.3823C61.7169 60.6231 61.8614 61.2813 61.8614 62.1161C61.8614 64.1067 61.5243 66.0011 60.8821 67.8955C55.7609 82.8577 55.3596 98.2372 57.559 113.649C58.2653 118.545 59.9028 123.747 64.3819 127.15C65.1364 127.712 65.8107 128.515 65.8267 129.703C64.2053 130.297 62.6962 129.912 61.3316 129.077C51.8438 123.329 41.8904 124.919 31.8728 127.038C30.2353 127.391 28.2607 129.558 27.0406 127.664C25.8205 125.786 28.2928 124.437 29.561 123.297C34.9712 118.465 36.4321 112.092 36.5926 105.349C36.8816 92.9876 34.3451 81.3004 27.6025 70.7209C27.1369 69.9825 26.559 69.2119 27.0566 68.345C27.7951 67.0446 28.7423 68.2326 29.6092 68.2326C33.7832 68.2326 34.9712 72.1337 37.5238 74.2207C39.5305 75.8742 41.1519 78.0094 43.4797 80.5138L43.4637 80.4977Z" fill="#00418D"/>
<path d="M42.8056 0.00367212C46.4659 -0.156866 54.2359 4.98037 54.0112 8.75302C53.8185 12.028 47.8144 19.188 45.005 19.1238C40.831 19.0275 34.5539 13.4086 34.7144 9.9089C34.9553 4.59508 38.744 -0.0444895 42.8056 0.00367212Z" fill="#00418D"/>
<path d="M29.3847 31.6137C22.0641 30.7628 21.5183 30.8431 20.9403 22.0937C20.7477 18.9793 25.2267 15.1264 28.7425 15.1585C33.3339 15.1906 38.1661 19.8944 38.118 24.2931C38.0698 28.3387 34.2008 31.5816 29.3847 31.6137Z" fill="#00418D"/>
<path d="M16.7501 69.1476C10.8262 68.9871 8.70714 66.7235 8.73925 60.6391C8.77136 56.6577 13.0096 52.0984 16.7501 52.4677C21.6305 52.9493 25.7563 56.8664 25.6761 60.4946C25.5797 65.2947 21.5502 69.26 16.7501 69.1316V69.1476Z" fill="#00418D"/>
<path d="M87.6119 56.1119C90.7264 57.9259 90.919 62.0518 88.1257 67.1087C86.5363 69.9663 79.6813 71.7644 76.6311 70.1108C73.7735 68.5536 71.8791 61.217 73.6451 58.536C76.4705 54.2335 82.555 53.174 87.5959 56.1119H87.6119Z" fill="#00418D"/>
<path d="M58.5062 62.5013C54.2038 62.5816 50.3027 58.6805 50.2385 54.2015C50.1743 49.9953 53.8346 45.8374 57.6714 45.7571C63.2903 45.6287 67.2235 48.8876 67.3198 53.7198C67.4001 58.3273 63.3063 62.405 58.5062 62.5013Z" fill="#00418D"/>
<path d="M79.6813 93.7902C75.2665 93.5815 72.6016 90.6918 72.7942 86.261C73.0029 81.0435 76.0853 77.4153 80.0987 77.608C85.1717 77.8488 89.5223 81.0916 89.3939 84.4951C89.121 91.2698 86.1831 94.0792 79.6974 93.7742L79.6813 93.7902Z" fill="#00418D"/>
<path d="M36.7693 80.7225C41.4571 80.6422 45.4866 83.7888 45.5026 87.5454C45.5187 92.2491 41.9547 96.3268 37.6202 96.5355C33.4622 96.7442 29.5291 93.0679 29.5291 88.9902C29.5291 84.447 32.7238 80.8027 36.7693 80.7225Z" fill="#00418D"/>
<path d="M81.0779 27.2631C81.0939 30.7628 78.3648 34.2144 75.6196 34.1662C70.7874 34.0859 67.6569 31.4049 67.5605 27.247C67.4642 23.5867 70.5626 20.4723 74.3032 20.4723C77.8992 20.4723 81.0618 23.6349 81.0779 27.2631Z" fill="#00418D"/>
<path d="M11.7093 75.6655C11.8537 81.2201 9.49382 84.4469 5.51246 84.5914C2.46223 84.7038 0.102319 82.4081 0.00599588 79.2134C-0.154543 74.3009 2.92779 70.3035 6.95731 70.1429C11.2116 69.9824 11.035 73.3698 11.7093 75.6494V75.6655Z" fill="#00418D"/>
<path d="M62.921 79.0689C59.3571 79.1813 56.2266 76.2756 56.2426 72.8722C56.2426 70.2714 59.646 66.8199 62.2468 66.7556C64.9277 66.6914 68.4757 69.9343 68.5078 72.4869C68.5559 76.404 66.3726 78.9726 62.921 79.085V79.0689Z" fill="#00418D"/>
<path d="M71.7667 45.8053C71.7667 43.1082 74.7688 39.9456 77.2732 39.9938C80.2432 40.058 83.1329 42.6266 83.181 45.2113C83.2292 48.695 80.5482 51.6328 77.4498 51.4884C74.8009 51.3599 71.7667 48.3097 71.7828 45.8053H71.7667Z" fill="#00418D"/>
<path d="M40.3493 67.8634C37.0904 67.9276 34.4094 65.6158 34.7305 62.6298C35.0837 59.3869 37.0583 57.4123 40.4296 57.1715C43.2872 56.9628 46.0003 59.6117 46.0806 62.5816C46.1608 65.3911 43.528 67.7992 40.3333 67.8794L40.3493 67.8634Z" fill="#00418D"/>
<path d="M18.3234 45.388C15.1287 45.3719 13.0256 43.2047 13.0256 39.9457C13.0256 36.4139 15.0805 34.5195 18.8371 34.5998C21.8713 34.664 23.8138 36.9918 23.7496 40.4755C23.7015 43.317 21.3897 45.388 18.3234 45.3719V45.388Z" fill="#00418D"/>
<path d="M62.9371 8.14293C65.602 8.14293 68.3954 10.4868 68.0261 13.5049C67.689 16.2501 66.1318 18.4013 63.0976 18.6421C59.9029 18.899 56.9008 16.2983 57.1416 13.3765C57.3824 10.4547 58.4902 7.99844 62.9531 8.12687L62.9371 8.14293Z" fill="#00418D"/>
<path d="M57.0293 38.4366C57.0935 35.1295 58.3297 32.9461 62.0863 33.0104C65.0081 33.0585 68.4275 36.4619 68.1225 39.4801C67.8175 42.3858 65.5057 43.6059 62.9692 43.8467C59.8227 44.1357 57.0775 41.3905 57.0454 38.4366H57.0293Z" fill="#00418D"/>
<path d="M29.1598 74.4293C28.903 78.3465 27.2173 79.9358 23.541 79.8556C20.0252 79.7753 18.9496 77.1906 18.3717 74.4936C17.9543 72.5832 21.7911 69.3242 23.9584 69.3563C26.9444 69.4205 29.3525 71.7484 29.1759 74.4293H29.1598Z" fill="#00418D"/>
<path d="M17.7775 82.087C21.1488 82.2154 23.8298 84.9606 23.7496 87.7219C23.6854 90.0497 20.4104 93.132 18.1307 92.6825C15.3213 92.1206 12.6885 90.8684 13.0577 87.3687C13.3627 84.4148 15.0484 82.392 17.7775 82.103V82.087Z" fill="#00418D"/>
<path d="M46.8994 37.8426C46.6907 40.6199 45.0532 42.434 41.6979 42.3698C38.6316 42.3056 36.8336 40.5236 36.3841 37.6339C36.0309 35.3703 39.1132 31.7261 41.12 31.6298C44.0578 31.4853 46.9154 34.3107 46.8994 37.8586V37.8426Z" fill="#00418D"/>
<path d="M92.701 79.1653C88.7678 79.5827 87.9812 76.9017 87.7885 74.012C87.5477 70.4641 90.4053 69.5811 92.9579 69.4527C95.8636 69.3082 98.0148 71.3471 97.9185 74.2689C97.8222 77.2067 96.1847 79.4543 92.7171 79.1653H92.701Z" fill="#00418D"/>
<path d="M62.3752 97.1776C58.6668 97.3221 57.5912 95.4117 57.6072 92.5541C57.6072 89.3112 59.1645 87.449 62.5518 87.4008C65.8108 87.3366 67.2074 89.5039 67.5446 92.2009C67.8978 94.9943 65.2007 97.1616 62.3752 97.1776Z" fill="#00418D"/>
<path d="M32.178 45.6287C31.5519 47.5231 30.5244 48.9037 28.6943 48.8074C26.6394 48.7111 25.4674 47.3304 25.6922 45.1792C25.8848 43.333 27.2655 42.6427 28.903 42.6748C30.8294 42.723 31.7124 44.0554 32.178 45.6127V45.6287Z" fill="#00418D"/>
<path d="M56.2427 24.3093C55.9698 26.3642 55.1831 27.3916 53.2567 27.2953C51.1697 27.1829 50.2706 25.9468 50.367 24.1006C50.4633 22.2544 51.8439 21.5962 53.5456 21.6283C55.4881 21.6764 55.9858 23.041 56.2427 24.3093Z" fill="#00418D"/>
<path d="M28.935 52.0503C28.8547 53.2704 28.3731 54.057 27.0085 54.1212C25.5637 54.2015 24.5844 53.6557 24.5041 52.1627C24.4399 50.9426 25.1784 50.1559 26.4306 49.9954C27.9557 49.8028 28.6139 50.7178 28.935 52.0342V52.0503Z" fill="#00418D"/>
</svg>
