<svg width="75" height="132" viewBox="0 0 75 132" fill="none" xmlns="http://www.w3.org/2000/svg">
<path d="M73.3504 102.455C73.3504 102.455 73.3504 102.455 73.3628 102.455C73.1156 101.007 72.6396 99.6578 71.9474 98.3952C71.8361 97.3453 71.4344 96.415 70.9523 95.5179C70.4269 93.2453 69.5925 91.1055 68.6469 89.0123C68.6531 88.5737 68.5851 88.1684 68.2266 87.8827C68.2266 87.3577 68.1401 86.8726 67.763 86.4938C67.7754 85.929 67.658 85.4173 67.2377 85.0319V85.0186C66.5207 82.2609 65.5689 79.6028 64.4625 77.0046C64.4625 76.4331 64.2029 75.968 63.9248 75.5094C63.9804 75.0908 63.863 74.7519 63.5354 74.506C62.8246 71.7483 61.8357 69.1035 60.717 66.5119C60.6366 65.5816 60.3214 64.7443 59.8331 63.9801L59.7281 64.0599C59.7281 64.0599 59.7157 64.0532 59.7157 64.0466C59.7528 64.0267 59.796 64.0001 59.8331 63.9801C59.0111 61.5281 58.22 59.0628 57.3547 56.624C56.9776 55.5674 56.7798 54.4178 56.1123 53.4875C56.0567 53.029 56.001 52.5705 55.9454 52.112C55.6982 51.6933 55.451 51.2747 55.2037 50.856C55.1914 50.3377 55.0987 49.8526 54.7031 49.4938C54.2519 47.7594 53.8563 46.0051 52.9169 44.4701C52.6696 43.0081 52.2061 41.6326 51.4829 40.3634C51.4459 39.8384 51.452 39.2935 51.0008 38.9214C50.358 36.7086 49.7523 34.4825 48.7201 32.4358C47.9846 29.6714 46.9957 27.0067 45.877 24.3952C45.2713 22.0162 44.3936 19.7502 43.4541 17.5042C43.4974 17.0855 43.38 16.74 43.0647 16.4742C42.8175 15.0521 42.3416 13.7231 41.6679 12.4672C41.5443 11.5302 41.26 10.6663 40.7532 9.88886C40.7964 9.72938 40.7655 9.59647 40.6604 9.48351C40.7099 9.06487 40.5801 8.72596 40.2649 8.47345C40.3081 7.90197 40.0671 7.43681 39.7704 6.99159C39.8013 6.57294 39.7333 6.19417 39.3687 5.95495C39.381 5.39011 39.3007 4.86515 38.8495 4.48637C38.5652 3.13077 38.2067 1.80839 37.1992 0.266724C36.6862 2.29349 35.7468 3.71554 35.5242 5.45656C35.1534 5.84198 35.0669 6.32708 35.073 6.85204C34.7207 7.13778 34.6157 7.52984 34.6466 7.98171C34.2139 8.37377 34.1336 8.90538 34.1459 9.47686C32.9283 12.0286 32.0754 14.7265 31.3028 17.4577C30.3077 19.2518 29.8441 21.2852 29.1519 23.2057C28.5956 24.7407 27.8354 26.2093 27.6191 27.8772C26.6116 29.9771 25.9194 32.2098 25.2766 34.4625C24.7018 35.745 24.0651 37.0076 23.9168 38.4562C23.0638 40.0378 22.6127 41.7921 22.0378 43.4866C21.4816 44.3704 21.2344 45.3738 21.0613 46.4038C19.9055 48.816 19.2565 51.4475 18.317 53.9527C17.631 55.7734 16.8398 57.561 16.4752 59.508C15.7829 60.7506 15.2761 62.0664 15.0536 63.4951C14.2439 65.0832 13.7062 66.7844 13.2612 68.5188C12.9398 68.9374 12.7358 69.4092 12.7544 69.9674C12.1919 70.8512 11.9323 71.8546 11.7469 72.8846C11.0423 73.9811 10.7889 75.2636 10.4613 76.5128C10.0843 77.3169 9.65781 78.0944 9.55274 79.0114C8.82959 80.8122 8.02609 82.5798 7.64907 84.5136C6.53035 87.1052 5.65268 89.7964 4.82446 92.5077C4.42889 92.8731 4.37327 93.3715 4.34236 93.8832C3.94679 94.86 3.48324 95.8103 3.16802 96.8204C2.35835 99.3987 1.17782 101.831 0.596831 104.502C0.491758 104.535 0.386689 104.555 0.281616 104.562C0.293978 105.971 0.287798 106.004 1.17165 106.03C1.93188 106.057 2.69211 105.997 3.45852 105.977C4.38563 106.137 5.31892 106.124 6.24603 105.984C6.71577 105.984 7.19169 105.984 7.66143 105.984C9.67636 106.143 11.6913 106.19 13.7062 105.984C17.5815 106.15 21.4569 106.177 25.326 105.984C25.4867 105.984 25.6412 105.984 25.8019 105.984C25.9626 105.984 26.1171 105.984 26.2778 105.984C26.9206 106.09 27.5696 106.11 28.2124 106.07C28.1568 106.15 28.1259 106.243 28.0888 106.33C27.718 107.207 27.7798 108.084 28.0764 108.968C27.755 111.739 27.7303 114.51 28.0826 117.281C27.6871 120.723 27.8292 124.165 27.9714 127.607C27.9714 127.674 28.0332 127.747 28.0703 127.813C27.786 132.152 26.9083 131.342 33.225 131.328C33.3363 131.328 33.4475 131.302 33.5588 131.289C33.7875 131.289 34.0223 131.289 34.251 131.289C35.6046 131.421 36.9644 131.441 38.3179 131.289C41.0313 131.435 43.7385 131.468 46.4518 131.269C47.4531 131.129 47.107 130.604 47.1131 130.219C47.1255 124.53 47.1131 118.836 47.107 113.147C47.107 111.034 47.1379 108.914 47.107 106.801C47.107 106.416 47.0452 106.177 46.8535 106.037C49.9254 106.137 52.991 106.157 56.0629 105.997C56.6933 106.143 57.3176 106.11 57.948 105.984C58.7144 106.15 59.487 106.137 60.2534 105.991C62.2745 106.157 64.2956 106.124 66.3106 105.984C67.0893 105.984 67.8619 105.984 68.6407 105.984C69.574 106.163 70.5135 106.124 71.4467 105.971C72.4789 106.13 73.5111 106.23 74.7102 105.851C74.1416 104.688 74.1354 103.426 73.3566 102.475L73.3504 102.455ZM4.38563 96.5147C4.38563 96.5147 4.38563 96.508 4.38563 96.5014V96.5147ZM12.7049 96.8469C12.6246 98.2225 12.5998 99.6047 12.2661 100.947C12.0436 100.993 11.8149 101.087 11.5924 101.08C10.7085 101.053 10.3871 100.801 10.381 100.01C10.3686 98.8671 10.4304 97.7174 10.4551 96.5678C10.4613 96.2422 10.4675 95.91 10.4737 95.5844C10.9681 94.9996 11.6047 94.9066 12.2908 95.0062C12.6802 95.5578 12.742 96.1824 12.7049 96.8469ZM13.1561 75.9015C13.0819 75.7952 13.0449 75.7021 13.051 75.6224C13.0696 75.7021 13.1067 75.7885 13.1623 75.8882C13.1623 75.8882 13.1623 75.9015 13.1561 75.9015ZM18.8609 83.0118C18.8115 84.8259 18.7621 86.64 18.7188 88.4541C17.1118 88.8927 16.6544 88.6136 16.6112 87.0786C16.5802 86.0951 16.5926 85.1116 16.6606 84.1348C16.778 82.5333 17.1427 82.3008 18.7497 82.6729C18.8857 82.7061 18.9475 82.7726 18.9351 82.8589C18.9227 82.9653 18.898 83.0184 18.8671 83.0184L18.8609 83.0118ZM21.1478 65.0035C21.0984 65.0633 21.0613 65.1032 21.018 65.1563C21.0057 65.1032 20.9933 65.05 20.9809 65.0035C21.0366 65.0035 21.0922 65.0035 21.1478 65.0035ZM21.018 85.2512C21.018 85.2512 20.9995 85.2113 20.9933 85.198C20.9995 85.218 21.0057 85.2379 21.018 85.2578V85.2512ZM22.4829 100.037C22.452 100.502 21.8771 100.874 21.4383 100.801C21.0304 100.734 20.709 100.488 20.6225 100.043C20.5421 99.6445 20.4988 99.2192 20.5236 98.8139C20.5854 97.5779 20.6781 96.3353 20.7646 95.0993C21.0675 95.0594 21.3703 94.9929 21.6794 94.9796C22.2171 94.9597 22.625 95.2654 22.6312 95.8302C22.6374 97.2323 22.5818 98.6411 22.4952 100.037H22.4829ZM25.3013 74.0475C25.1344 74.5193 24.7821 74.7718 24.3803 74.9712C23.9601 75.3367 23.5459 75.4363 23.1566 74.918C23.1566 74.918 23.1442 74.918 23.138 74.918C23.138 74.9047 23.138 74.8981 23.138 74.8848C22.9526 74.4595 22.7734 74.0409 22.5879 73.6156C22.9711 72.8514 22.8043 72.0208 22.8599 71.2167C22.9279 70.2864 23.002 69.3494 23.0762 68.4191C22.9773 68.346 22.897 68.2663 22.8352 68.1865C22.9093 68.1267 22.9959 68.0802 23.1071 68.047C24.5781 67.0901 25.2766 67.9008 25.4249 69.3826C25.5856 70.9243 25.635 72.4926 25.2889 74.0342L25.3013 74.0475ZM46.2849 44.995C46.2849 45.0083 46.2849 45.015 46.2849 45.0283C46.2726 45.0216 46.2664 45.0083 46.254 45.0017C46.2602 45.0017 46.2787 45.0017 46.2849 44.995ZM44.6903 98.9734C44.7706 99.8306 44.4122 100.395 43.9362 100.954L43.9239 100.974C43.7817 101.18 43.6334 101.193 43.4851 100.974C43.2007 100.801 42.9226 100.628 42.6383 100.455C42.0511 98.7674 41.773 97.0396 42.1438 95.2455C42.2736 94.973 42.459 94.7537 42.7001 94.5809C43.38 94.3617 44.0042 94.4015 44.5234 94.9929C44.5729 96.322 44.5667 97.651 44.6903 98.9667V98.9734ZM34.1768 80.0148C34.1768 80.0148 34.183 80.0015 34.1892 79.9949C34.2016 79.9949 34.2201 79.9816 34.2325 79.9816C34.2139 80.0082 34.1954 80.0281 34.1768 80.0547C34.1768 80.0414 34.1768 80.0281 34.1768 80.0215V80.0148ZM43.7261 118.151C43.7261 118.151 43.7385 118.151 43.7446 118.158C43.7385 118.158 43.7323 118.158 43.7261 118.158C43.7261 118.158 43.7261 118.151 43.7261 118.145V118.151ZM36.0311 83.0051C36.2721 82.6928 36.4575 82.2609 36.7666 82.0947C37.5886 81.6429 38.3921 82.108 38.4106 83.0583C38.4415 84.7063 38.3859 86.3609 38.3674 88.0089C37.4774 88.4564 36.711 88.2902 36.0682 87.5105C36.0558 86.0087 36.0496 84.5069 36.0372 83.0118L36.0311 83.0051ZM41.2044 40.1042C41.5567 39.1141 42.2365 39.1141 43.0153 39.4198C43.5098 40.1375 43.5098 40.9747 43.5283 41.8054C43.553 42.9683 43.5901 44.1312 43.5778 45.2941C43.5654 46.0715 43.2378 46.4437 42.663 46.4835C42.0511 46.5234 41.6803 46.1912 41.5937 45.4536C41.4516 44.3039 41.3341 43.1477 41.2044 41.9981C41.2044 41.3668 41.2044 40.7422 41.2044 40.1109V40.1042ZM40.1598 68.552C40.2031 67.3293 40.5368 67.1034 42.0078 67.11C42.4652 68.0137 42.4961 69.0172 42.6012 70.0006C42.6012 70.0006 42.6012 70.0006 42.6012 70.0073C42.6012 71.3297 42.6136 72.652 42.6197 73.9744C42.4219 74.3 42.2304 74.6256 42.0326 74.9512C41.0107 74.9025 40.3803 74.2535 40.1413 73.0042C40.1413 71.5157 40.1042 70.0339 40.1536 68.5453L40.1598 68.552ZM39.7581 48.9688C39.7581 48.9688 39.7581 48.9821 39.7581 48.9888C39.7333 48.9888 39.7086 48.9888 39.6777 48.9821C39.7024 48.9821 39.7271 48.9755 39.7519 48.9688H39.7581ZM38.5343 59.1359C38.3797 59.3751 38.1882 59.5678 37.9595 59.7206C37.4217 59.9333 36.9335 59.9333 36.5503 59.3817C36.2968 58.8767 36.0496 58.3783 36.0682 57.767C36.1052 56.5376 36.0681 55.3016 36.1114 54.0656C36.1609 52.6967 36.439 52.4641 37.8358 52.4841C37.9595 52.4841 38.0831 52.5107 38.2005 52.5306C38.2005 52.4974 38.2005 52.4708 38.2005 52.4376C38.2314 52.4708 38.2561 52.5107 38.287 52.5439L38.2932 52.5306C38.4663 54.7301 39.4614 56.8898 38.5281 59.1359H38.5343ZM35.7962 30.203C35.8271 29.791 35.7344 29.3458 36.0187 28.9869C36.0311 28.6879 36.0496 28.3889 36.062 28.0965C36.2783 27.7642 36.1979 27.2791 36.5503 27.0133L36.5379 27.0466C36.9582 26.5681 37.4094 26.6944 37.8667 26.9668C38.0274 27.1462 38.182 27.3257 38.3427 27.5117C38.9607 28.9604 38.2129 30.5685 38.7877 32.0238H38.7753C38.7568 32.0969 38.7382 32.1766 38.7135 32.2563C38.1449 34.2499 37.8915 34.3628 36.0311 33.4525C35.3326 32.4225 35.4254 31.326 35.7777 30.2096L35.7962 30.203ZM34.1274 67.1233C34.5106 67.2894 34.3499 67.7944 34.6218 68.0337C34.6342 68.3526 34.6404 68.6783 34.6528 68.9972C34.5353 70.4658 34.4364 71.9344 34.2881 73.3963C34.1336 74.9114 33.7689 75.0974 32.3164 74.4927C32.3164 72.5324 32.2793 70.5721 32.335 68.6118C32.3721 67.3692 32.6687 67.1765 34.1397 67.1166L34.1274 67.1233ZM31.4079 39.5793C32.0568 38.9945 32.7058 38.8682 33.3733 39.546C33.5773 41.6924 34.6775 43.872 33.1694 45.9519C32.6749 46.5168 32.0568 46.5832 31.3893 46.4636C31.173 46.3706 31.0247 46.2044 30.9505 45.9652C30.8949 43.8189 30.9505 41.6791 31.4079 39.5726V39.5793ZM30.4498 52.4907C30.4869 52.4907 30.524 52.4907 30.5611 52.4907C30.5735 52.5505 30.5735 52.6037 30.5858 52.6635C30.5364 52.6103 30.4993 52.5505 30.4498 52.4974V52.4907ZM30.7898 94.2155C31.8776 93.9497 32.4957 94.6274 32.7738 95.7173C32.8789 96.3818 32.7429 96.9798 32.3473 97.5114C32.3473 97.8437 32.3412 98.176 32.335 98.5149C32.3164 98.9867 32.2917 99.4651 32.2732 99.9369C32.2732 99.9502 32.2732 99.9635 32.2732 99.9834C32.267 99.9834 32.2546 99.9834 32.2484 99.9701C31.6613 100.754 30.9937 101.14 30.1037 100.455C29.5969 99.186 29.4177 97.8371 29.4115 96.4815C29.4115 95.4382 29.7391 94.4746 30.796 94.2221L30.7898 94.2155ZM29.4671 79.45C29.4671 79.45 29.4857 79.4965 29.498 79.5164C29.4795 79.4965 29.4671 79.4766 29.4486 79.4566C29.4486 79.4566 29.4609 79.4566 29.4671 79.45ZM28.6142 51.9923C28.6142 51.9923 28.6018 51.9924 28.5956 51.999C28.5956 51.999 28.5956 51.9923 28.5956 51.9857C28.5956 51.9857 28.608 51.9857 28.6142 51.9857V51.9923ZM26.6549 54.4843C26.7785 53.5606 27.0195 52.73 28.0517 52.5771C28.5647 52.9692 29.0345 53.3679 29.0159 54.1587C28.9912 55.4877 29.053 56.8234 28.985 58.1457C28.9108 59.5744 28.2928 59.8336 26.9206 59.1159C26.8588 59.0827 26.797 59.0295 26.7414 58.983C26.7414 58.983 26.7352 58.983 26.729 58.983C26.729 58.983 26.729 58.9764 26.729 58.9697V58.9764C26.3087 58.4979 26.3458 57.9995 26.661 57.4812C26.8156 56.4778 26.7908 55.481 26.661 54.4776L26.6549 54.4843ZM27.1802 98.5946C27.1802 98.5946 27.1802 98.5281 27.1864 98.4949C27.205 98.5215 27.2235 98.5481 27.242 98.5747C27.2235 98.5747 27.1988 98.588 27.1802 98.588V98.5946ZM27.1988 88.4674C26.5313 87.577 26.8712 86.4872 26.6981 85.4971C26.42 84.8259 26.216 84.1614 26.7599 83.5235V83.5367C27.1555 82.8058 27.4645 81.9552 28.4844 82.0549C28.8305 82.2077 29.189 82.3473 29.3744 82.746C29.6834 83.5235 29.6463 84.3475 29.6649 85.1581C29.6711 85.9954 29.6216 86.8194 29.0715 87.4972C28.6822 88.3412 28.027 88.6003 27.1988 88.4674ZM46.7423 102.502C46.7423 102.495 46.7485 102.482 46.7547 102.475C46.7794 102.515 46.7979 102.548 46.8227 102.582C46.7979 102.562 46.7794 102.542 46.7547 102.522C46.7547 102.522 46.7547 102.515 46.7485 102.509L46.7423 102.502ZM47.5458 88.3611C46.9154 88.5206 46.3282 88.4674 45.809 87.9956C45.7657 86.547 45.7225 85.0917 45.6792 83.6431C45.6483 82.8058 46.0192 82.2675 46.7423 81.9951C47.0328 82.1745 47.3171 82.3539 47.6076 82.5333C47.657 84.3607 47.7065 86.1815 47.7621 88.0089C47.6447 88.0953 47.5767 88.2149 47.552 88.3611H47.5458ZM47.5767 59.4349C47.0081 59.5877 46.4394 59.5545 45.8894 59.3485C45.9017 59.209 45.8646 59.0893 45.7781 58.9897C45.5432 56.9961 45.3455 55.0026 45.877 53.0223V53.0423C46.0253 52.9958 46.1675 52.936 46.3158 52.916C47.3295 52.7499 47.7189 52.9559 47.7621 53.8397C47.861 55.707 47.9785 57.5875 47.5767 59.4415V59.4349ZM48.6089 56.9961C48.6089 56.9961 48.6089 56.9828 48.6151 56.9828C48.6151 56.9828 48.6151 56.9961 48.6213 56.9961C48.6213 56.9961 48.6151 56.9961 48.6089 56.9961ZM49.536 62.4983C49.5731 62.4318 49.604 62.3521 49.6534 62.2923C49.6905 62.2524 49.7276 62.2126 49.7647 62.1793C49.7523 62.2724 49.7214 62.3787 49.672 62.4983C49.6225 62.4983 49.5793 62.4983 49.5298 62.4983H49.536ZM51.4088 74.9845C51.4088 74.9845 51.3902 74.9911 51.3902 74.9978C51.3902 74.9978 51.384 75.0177 51.3779 75.031C51.3779 75.0243 51.3655 75.0111 51.3655 75.0044C50.6176 74.9845 50.0428 74.7253 49.8759 73.8216C49.5978 72.2666 49.5916 70.6917 49.604 69.1168C49.604 68.3061 50.0923 67.7612 50.6856 67.7944C51.2666 67.821 51.7549 68.346 51.792 69.1567C51.86 70.725 51.8909 72.3065 51.8661 73.8747C51.8661 74.2469 51.5695 74.619 51.4149 74.9911L51.4088 74.9845ZM53.263 101.007L53.0652 100.934L52.855 100.967C52.3915 100.754 52.0392 100.422 51.9156 99.8705C51.9156 98.8803 51.9341 97.8836 51.9156 96.8934C51.9032 96.2156 51.9589 95.5711 52.3421 94.9996C52.3421 94.9996 52.3482 94.9863 52.3544 94.9796C52.3544 94.9863 52.3544 94.9929 52.3544 94.9996C53.9799 95.066 54.1098 95.179 54.1777 96.734C54.2148 97.558 54.1777 98.3952 54.2457 99.2192C54.3137 100.096 53.9243 100.621 53.2692 101.013L53.263 101.007ZM57.4226 95.0461C57.4226 95.0461 57.4226 95.0461 57.4288 95.0461C57.4288 95.0461 57.4226 95.0461 57.4164 95.0527L57.4226 95.0461ZM58.4116 83.962C58.2261 85.4572 58.6093 87.0454 57.8553 88.4541L57.8676 88.4741C57.2681 88.6934 56.6748 88.8595 56.0752 88.4874C55.8527 86.5071 55.6302 84.5269 56.0752 82.5466C56.1865 82.4469 56.2977 82.3406 56.409 82.2409C57.8429 81.7957 58.5723 82.6596 58.4116 83.9687V83.962ZM59.7837 95.498C59.7837 95.498 59.8022 95.4515 59.8084 95.4249C59.8208 95.4515 59.8331 95.4714 59.8393 95.498C59.8208 95.498 59.8022 95.498 59.7775 95.498H59.7837ZM62.5774 101.007C62.4352 100.834 62.2992 100.655 62.1571 100.482C62.1138 98.8272 62.0706 97.1725 62.0273 95.5113C61.8913 95.2521 61.9469 95.1059 62.2313 95.0727C62.7752 95.0727 63.3191 95.0727 63.8568 95.0727C64.3883 96.827 64.2956 98.6478 64.4069 100.449C63.9062 101.053 63.282 101.206 62.5712 101L62.5774 101.007Z" fill="#00418D"/>
</svg>
